<svg width="17" height="12" viewBox="0 0 17 12" fill="none" xmlns="http://www.w3.org/2000/svg">
<g clip-path="url(#clip0_615_9040)">
<path fill-rule="evenodd" clip-rule="evenodd" d="M10.9584 0.18333L16.2335 5.36772C16.5888 5.71692 16.5888 6.28308 16.2335 6.63228L10.9584 11.8167C10.7346 12.0367 10.3856 12.0587 10.1367 11.8827L10.0486 11.8077C9.79988 11.5632 9.79988 11.1669 10.0486 10.9225L14.421 6.625L1.12593 6.62593C0.780237 6.62593 0.5 6.34569 0.5 6C0.5 5.65431 0.780237 5.37407 1.12593 5.37407L14.42 5.374L10.0486 1.07751C9.82475 0.857515 9.80237 0.514501 9.98144 0.269901L10.0577 0.18333C10.3065 -0.0611099 10.7097 -0.0611099 10.9584 0.18333Z" fill="#002D74"/>
</g>
<defs>
<clipPath id="clip0_615_9040">
<rect width="16" height="12" fill="white" transform="translate(0.5)"/>
</clipPath>
</defs>
</svg>
