<svg width="18" height="16" viewBox="0 0 18 16" fill="none" xmlns="http://www.w3.org/2000/svg">
<path fill-rule="evenodd" clip-rule="evenodd" d="M14.25 0.0498047C14.4341 0.0498047 14.5872 0.182461 14.619 0.357398L14.625 0.424805V0.949055L16.5 0.949805C17.3284 0.949805 18 1.62138 18 2.4498V14.4498C18 15.2782 17.3284 15.9498 16.5 15.9498H1.5C0.671573 15.9498 0 15.2782 0 14.4498V2.4498C0 1.62138 0.671573 0.949805 1.5 0.949805L3.375 0.949055V0.424805C3.375 0.217698 3.54289 0.0498047 3.75 0.0498047C3.93409 0.0498047 4.08721 0.182461 4.11896 0.357398L4.125 0.424805V0.949055H13.875V0.424805C13.875 0.217698 14.0429 0.0498047 14.25 0.0498047ZM17.25 4.32405H0.75V14.4498C0.75 14.8344 1.03953 15.1514 1.41253 15.1948L1.5 15.1998H16.5C16.8846 15.1998 17.2016 14.9103 17.245 14.5373L17.25 14.4498V4.32405ZM4.5 12.1998C4.91421 12.1998 5.25 12.5356 5.25 12.9498C5.25 13.364 4.91421 13.6998 4.5 13.6998C4.08579 13.6998 3.75 13.364 3.75 12.9498C3.75 12.5356 4.08579 12.1998 4.5 12.1998ZM7.5 12.1998C7.91421 12.1998 8.25 12.5356 8.25 12.9498C8.25 13.364 7.91421 13.6998 7.5 13.6998C7.08579 13.6998 6.75 13.364 6.75 12.9498C6.75 12.5356 7.08579 12.1998 7.5 12.1998ZM10.5 12.1998C10.9142 12.1998 11.25 12.5356 11.25 12.9498C11.25 13.364 10.9142 13.6998 10.5 13.6998C10.0858 13.6998 9.75 13.364 9.75 12.9498C9.75 12.5356 10.0858 12.1998 10.5 12.1998ZM13.5 12.1998C13.9142 12.1998 14.25 12.5356 14.25 12.9498C14.25 13.364 13.9142 13.6998 13.5 13.6998C13.0858 13.6998 12.75 13.364 12.75 12.9498C12.75 12.5356 13.0858 12.1998 13.5 12.1998ZM4.5 9.1998C4.91421 9.1998 5.25 9.53559 5.25 9.9498C5.25 10.364 4.91421 10.6998 4.5 10.6998C4.08579 10.6998 3.75 10.364 3.75 9.9498C3.75 9.53559 4.08579 9.1998 4.5 9.1998ZM7.5 9.1998C7.91421 9.1998 8.25 9.53559 8.25 9.9498C8.25 10.364 7.91421 10.6998 7.5 10.6998C7.08579 10.6998 6.75 10.364 6.75 9.9498C6.75 9.53559 7.08579 9.1998 7.5 9.1998ZM10.5 9.1998C10.9142 9.1998 11.25 9.53559 11.25 9.9498C11.25 10.364 10.9142 10.6998 10.5 10.6998C10.0858 10.6998 9.75 10.364 9.75 9.9498C9.75 9.53559 10.0858 9.1998 10.5 9.1998ZM13.5 9.1998C13.9142 9.1998 14.25 9.53559 14.25 9.9498C14.25 10.364 13.9142 10.6998 13.5 10.6998C13.0858 10.6998 12.75 10.364 12.75 9.9498C12.75 9.53559 13.0858 9.1998 13.5 9.1998ZM4.5 6.1998C4.91421 6.1998 5.25 6.53559 5.25 6.9498C5.25 7.36402 4.91421 7.6998 4.5 7.6998C4.08579 7.6998 3.75 7.36402 3.75 6.9498C3.75 6.53559 4.08579 6.1998 4.5 6.1998ZM7.5 6.1998C7.91421 6.1998 8.25 6.53559 8.25 6.9498C8.25 7.36402 7.91421 7.6998 7.5 7.6998C7.08579 7.6998 6.75 7.36402 6.75 6.9498C6.75 6.53559 7.08579 6.1998 7.5 6.1998ZM10.5 6.1998C10.9142 6.1998 11.25 6.53559 11.25 6.9498C11.25 7.36402 10.9142 7.6998 10.5 7.6998C10.0858 7.6998 9.75 7.36402 9.75 6.9498C9.75 6.53559 10.0858 6.1998 10.5 6.1998ZM13.5 6.1998C13.9142 6.1998 14.25 6.53559 14.25 6.9498C14.25 7.36402 13.9142 7.6998 13.5 7.6998C13.0858 7.6998 12.75 7.36402 12.75 6.9498C12.75 6.53559 13.0858 6.1998 13.5 6.1998ZM3.375 1.69905L1.5 1.6998C1.11537 1.6998 0.79837 1.98933 0.755046 2.36234L0.75 2.4498V3.57405H17.25V2.4498C17.25 2.06518 16.9605 1.74817 16.5875 1.70485L16.5 1.6998L14.625 1.69905V2.2248C14.625 2.43191 14.4571 2.5998 14.25 2.5998C14.0659 2.5998 13.9128 2.46715 13.881 2.29221L13.875 2.2248V1.69905H4.125V2.2248C4.125 2.43191 3.95711 2.5998 3.75 2.5998C3.56591 2.5998 3.41279 2.46715 3.38104 2.29221L3.375 2.2248V1.69905Z" fill="#51556C"/>
</svg>
