<svg width="21" height="20" viewBox="0 0 21 20" fill="none" xmlns="http://www.w3.org/2000/svg">
<path fill-rule="evenodd" clip-rule="evenodd" d="M10.3414 0C16.0505 0 20.6786 4.47715 20.6786 10C20.6786 15.5228 16.0505 20 10.3414 20C4.63229 20 0.00415039 15.5228 0.00415039 10C0.00415039 4.47715 4.63229 0 10.3414 0ZM10.3414 1C5.2032 1 1.03787 5.02944 1.03787 10C1.03787 14.9706 5.2032 19 10.3414 19C15.4796 19 19.6449 14.9706 19.6449 10C19.6449 5.02944 15.4796 1 10.3414 1Z" fill="#002D74"/>
<path fill-rule="evenodd" clip-rule="evenodd" d="M10.7612 12.75C10.9418 12.75 11.0546 12.6516 11.0998 12.4549C11.0998 12.3402 11.1088 12.168 11.1269 11.9385C11.1539 11.6516 11.2533 11.3914 11.4248 11.1578C11.5963 10.9242 11.8536 10.6393 12.1967 10.3033C12.612 9.90164 12.9235 9.54918 13.1311 9.2459C13.3388 8.94262 13.4426 8.58197 13.4426 8.16393C13.4426 7.79508 13.3342 7.44467 13.1176 7.1127C12.9009 6.78074 12.5668 6.51229 12.1154 6.30738C11.664 6.10246 11.1088 6 10.4497 6C9.8268 6 9.27383 6.1127 8.79082 6.33811C8.30781 6.56352 7.93315 6.8668 7.66682 7.24795C7.40048 7.6291 7.25829 8.04508 7.24023 8.4959C7.24023 8.57787 7.26958 8.64344 7.32826 8.69262C7.38694 8.7418 7.45691 8.76639 7.53816 8.76639H8.13402C8.33264 8.76639 8.45001 8.67623 8.48612 8.4959C8.58543 7.97951 8.80436 7.60041 9.14292 7.35861C9.48148 7.1168 9.90354 6.9959 10.4091 6.9959C10.8786 6.9959 11.2894 7.10656 11.6415 7.32787C11.9936 7.54918 12.1696 7.84836 12.1696 8.22541C12.1696 8.29918 12.1651 8.35246 12.1561 8.38525C12.129 8.61475 12.0364 8.82787 11.8785 9.02459C11.7205 9.22131 11.479 9.47131 11.1539 9.77459C10.7296 10.168 10.4023 10.5246 10.1721 10.8443C9.94191 11.1639 9.81777 11.541 9.79972 11.9754V12.4795C9.79972 12.5615 9.8268 12.627 9.88097 12.6762C9.93514 12.7254 10.0074 12.75 10.0976 12.75H10.7612ZM10.6885 15C10.7644 15 10.8289 14.9768 10.882 14.9304C10.9351 14.8839 10.9616 14.825 10.9616 14.7536V14.1321C10.9616 14.0607 10.9351 14 10.882 13.95C10.8289 13.9 10.7644 13.875 10.6885 13.875H9.98292C9.90705 13.875 9.84446 13.9 9.79515 13.95C9.74583 14 9.72117 14.0607 9.72117 14.1321V14.7536C9.72117 14.825 9.74583 14.8839 9.79515 14.9304C9.84446 14.9768 9.90705 15 9.98292 15H10.6885Z" fill="#002D74"/>
</svg>
