<svg width="39" height="43" viewBox="0 0 39 43" fill="none" xmlns="http://www.w3.org/2000/svg">
<path fill-rule="evenodd" clip-rule="evenodd" d="M20 1.24353C20 0.678591 19.6362 0.285452 19.2659 0.117037C18.8979 -0.0503254 18.4391 -0.0482298 18.0458 0.188794L18.0369 0.183811L12.4911 3.60175L12.1465 3.95878L13.0152 4.45273C12.1465 3.95878 12.1461 3.95952 12.1459 3.95976L12.1454 3.96075L12.1442 3.96278L12.1418 3.96701L12.1368 3.97617L12.1255 3.99744C12.1176 4.01276 12.1083 4.03168 12.0985 4.05363C12.0807 4.09322 12.0524 4.16203 12.0309 4.25017C12.0122 4.32696 11.9792 4.49451 12.0183 4.70081C12.0635 4.93956 12.2065 5.21454 12.4949 5.39008L18.0368 8.80569L18.0442 8.81012C18.4378 9.04812 18.8974 9.05045 19.2659 8.88285C19.6362 8.71444 20 8.3213 20 7.75637V5.01556C29.4005 5.19445 36.9977 12.7466 36.9977 22.0128C36.9977 27.0005 34.8201 31.6482 30.9878 34.8879C30.6228 35.1981 30.5803 35.7351 30.8783 36.105C31.2007 36.5107 31.809 36.5584 32.2105 36.2184C36.4259 32.6386 38.8226 27.5136 38.8226 22.0128C38.8226 11.7621 30.4102 3.40457 20 3.22563V1.24353Z" fill="#002D74"/>
<path fill-rule="evenodd" clip-rule="evenodd" d="M19 37.8009V35.2425C19 34.6776 19.3638 34.2845 19.7341 34.1161C20.1021 33.9487 20.5609 33.9508 20.9542 34.1878L20.9631 34.1828L26.5089 37.6008L26.8535 37.9578L25.9842 38.4521C26.8535 37.9578 26.8539 37.9585 26.8541 37.9588L26.8546 37.9598L26.8558 37.9618L26.8582 37.966L26.8632 37.9752L26.8745 37.9965C26.8824 38.0118 26.8917 38.0307 26.9015 38.0527C26.9193 38.0922 26.9476 38.1611 26.9691 38.2492C26.9878 38.326 27.0208 38.4935 26.9817 38.6998C26.9365 38.9386 26.7935 39.2136 26.5051 39.3891L20.9632 42.8047L20.9558 42.8091C20.5622 43.0471 20.1026 43.0495 19.7341 42.8819C19.3638 42.7135 19 42.3203 19 41.7554V39.5917C8.73913 39.2477 0.5 30.9573 0.5 20.8127C0.5 15.3118 2.89667 10.1868 7.11214 6.6071C7.51361 6.26703 8.1219 6.31476 8.4443 6.72046C8.74236 7.09037 8.69978 7.62733 8.3348 7.93758C4.50256 11.1772 2.32488 15.8249 2.32488 20.8127C2.32488 29.9727 9.74893 37.4576 19 37.8009Z" fill="#002D74"/>
</svg>
