<svg xmlns="http://www.w3.org/2000/svg" width="32" height="32">
    <g fill="none" fill-rule="evenodd" stroke="#363D50" transform="translate(3 3)">
        <circle cx="13.5" cy="13.5" r="13"/>
        <path stroke-linecap="round" d="M2.5 6.5l6.979 4.441m9.025 5.744L24.5 20.5"/>
        <path fill="#FFF" stroke-width="2"
              d="M22.225 12.154l-.08.058a5.36 5.36 0 01-.863.456c-1.124.49-2.815.941-5.08 1.264h0l-2.895 5.671.9-5.384c-2.274.287-4.51.474-6.255.52l-.394.009L5.95 16.53l.677-1.898-1.227-1.72 2.119 1.28c1.593-.487 3.72-.997 5.949-1.43l.516-.098-2.291-4.9 4.32 4.554c2.12-.365 3.785-.464 4.98-.373l.234.02c.372.038.685.093.936.169l.062.02z"/>
    </g>
</svg>
