<svg xmlns="http://www.w3.org/2000/svg" width="32" height="32">
    <g fill="none" fill-rule="evenodd" stroke="#363D50" stroke-width="1.342">
        <path d="M22.139 9.252c-1.222-.406-2.402-.223-3.326.335a3.841 3.841 0 00-3.59-2.448 3.832 3.832 0 00-3.705 2.81c-1.083-.604-2.49-.706-3.902.028a3.1 3.1 0 00-1.306 1.297c-1.517 2.887.548 5.77 3.301 5.787v3.15c0 3.123 2.509 5.677 5.575 5.677h.448c3.066 0 5.576-2.554 5.576-5.676v-3.43c0-.057-.003-.112-.004-.169 2.347-.235 4.07-2.565 3.231-5.072a3.668 3.668 0 00-2.298-2.288zm-12.001 9.726h10.544"/>
        <path stroke-linecap="round" d="M16.414 21.883c0 1.64 3.618 4.154 7.236 1.483m-9.244-1.483c0 1.64-3.618 4.154-7.235 1.483M18.813 9.588c-1.88 0-3.215 1.458-3.95 3.032"/>
    </g>
</svg>
