<svg xmlns="http://www.w3.org/2000/svg" width="24" height="24">
    <path d="M11.809 6v5.6M9.95 6.602l1.859 1.507m1.859-1.507l-1.859 1.507m5.626 1.132l-5.626 2.994m3.813-4.18l-.451 2.376m2.173.98l-2.173-.98m2.264 4.797l-5.627-2.993m3.814 4.179l-.451-2.376m2.173-.979l-2.173.98M6.182 9.241l5.627 2.994m-3.814-4.18l.451 2.376m-2.173.98l2.173-.98m-2.264 4.797l5.627-2.993m-3.814 4.179l.451-2.376m-2.173-.979l2.173.98m3.362 4.761v-7.2m-1.859 5.831l1.859-1.507m1.859 1.507l-1.859-1.507"
          fill="none" stroke="#363D50"/>
</svg>
