<svg xmlns="http://www.w3.org/2000/svg" xmlns:xlink="http://www.w3.org/1999/xlink" width="107" height="107">
    <defs>
        <path id="a" d="M0 108.672h91.953V0H0z"/>
    </defs>
    <g fill="none" fill-rule="evenodd">
        <path stroke="#B87100" d="M28.422 62.695h50.156"/>
        <g transform="translate(8.36)">
            <path stroke="#B87100"
                  d="M20.898 49.855V39.422a3.478 3.478 0 013.478-3.477h43.326a3.351 3.351 0 013.352 3.354V53.33c0 1.37-.747 2.702-2.02 3.213-2.397.968-4.667-.846-4.667-3.212v-8.396c0-1.025-.413-2.024-1.172-2.711-6.243-5.661-15.21-.795-14.497 5.462.05.44-.04.9-.35 1.218-3.427 3.501-7.655.345-6.533-3.22.313-.998-.017-2.116-.746-2.867-6.094-6.29-13.483-2.001-13.483 4.041v2.994c0 1.37-.748 2.702-2.02 3.215-2.4.967-4.668-.847-4.668-3.213zM9.24 83.431c-.347-1.886-.044-4.106-.044-5.746 0-2.872-.246-9.205 0-12.07.17-1.999 3.944-2.92 3.944-2.92h65.674s3.772.921 3.944 2.92V78.01c0 1.326-1.001 2.577-2.11 3.212-.707.405-1.583.562-2.349.286-3.086-1.107-1.864-5.892-2.89-8.24-.826-1.893-2.411-3.42-4.39-4.052-5.204-1.663-9.995 2.174-9.995 7.13 0 1.972 1.006 4.881-1.264 6.005-.941.464-2.048.44-3.081.259-.706-.122-1.437-.333-1.926-.855-.55-.586-.688-1.45-.66-2.252.056-1.708.233-3.407.243-5.119.007-1.159-.428-2.305-1.295-3.076-2.717-2.42-6.574-3.58-9.951-1.816a7.735 7.735 0 00-4.023 5.454c-.364 2.02.022 3.965-2.33 4.955-1.825.766-4.19-.113-4.991-1.942-.848-1.935.517-4.37-1.107-6.016-6.672-6.76-14.756-2.138-14.756 4.369v7.127c0 2.229-2.101 4.333-4.338 3.302-1.413-.65-2.045-1.884-2.306-3.309zM.836 94.46v3.234c0 2.82 2.307 5.126 5.126 5.126H85.99c2.819 0 5.126-2.307 5.126-5.126v-3.233H.836z"/>
            <mask id="b" fill="#fff">
                <use xlink:href="#a"/>
            </mask>
            <path stroke="#B87100" d="M22.57 107.836h45.141v-5.016H22.57z" mask="url(#b)"/>
            <path fill="#B87100" d="M41.266 20.835c0-2.124 2.473-5.79 4.862-8.572 2.392 2.782 4.863 6.448 4.863 8.572a4.862 4.862 0 11-9.725 0" mask="url(#b)"/>
            <path stroke="#B87100"
                  d="M41.266 20.835c0-2.124 2.473-5.79 4.862-8.572 2.392 2.782 4.863 6.448 4.863 8.572a4.862 4.862 0 11-9.725 0zm8.054 15.11v-4.95c0-.955-.782-1.737-1.737-1.737H44.37c-.955 0-1.738.782-1.738 1.737v4.95h6.688z"
                  mask="url(#b)"/>
            <path fill="#B87100" d="M45.141 30.094h1.672v-5.016h-1.672z" mask="url(#b)"/>
            <path stroke="#B87100"
                  d="M20.898 16.719v3.344m0 1.671v3.344m.836-4.18h3.344m-8.36 0h3.344m59.352 12.54v3.343m.836-4.179h3.343m-8.359 0h3.344M50.992 0v3.344m0 1.672v3.343m.836-4.179h3.344m-8.36 0h3.344m29.258 24.242v3.344m3.343 62.694V67.842c0-2.83-2.315-5.146-5.146-5.146h-6.557V41.091c0-2.83-2.315-5.146-5.146-5.146H26.044c-2.83 0-5.146 2.316-5.146 5.146v21.604h-6.557c-2.83 0-5.146 2.316-5.146 5.146v26.62h73.562z"
                  mask="url(#b)"/>
        </g>
    </g>
</svg>
