<svg xmlns="http://www.w3.org/2000/svg" width="22" height="22">
    <g fill="none" fill-rule="evenodd">
        <path d="M10.771 15.211c-.029-.002-.052-.006-.075-.01l-.033-.008c-.017-.004-.033-.01-.05-.015l-.052-.022-.04-.021a.609.609 0 01-.123-.094l.075.063-.01-.007-.065-.056-2.933-3.17a.585.585 0 01.762-.885l.066.056 2.469 2.669 4.703-6.497.066-.056a.586.586 0 01.762.884l-4.966 6.863a.616.616 0 01-.033.055l-.068.08-.066.057-.01.007.076-.063a.554.554 0 01-.216.137l-.046.014-.039.01a.49.49 0 01-.067.008h-.087z"
              fill="#FFF"/>
        <path d="M.5.5h21v21H.5z"/>
    </g>
</svg>
