<svg xmlns="http://www.w3.org/2000/svg" width="24" height="24">
    <g fill="#004BC1" fill-rule="evenodd">
        <path d="M12 1c6.075 0 11 4.925 11 11s-4.925 11-11 11S1 18.075 1 12 5.925 1 12 1zm-.05.995c-5.498 0-9.955 4.457-9.955 9.955s4.457 9.955 9.955 9.955 9.955-4.457 9.955-9.955-4.457-9.955-9.955-9.955z"/>
        <path d="M15.066 8.115a.587.587 0 01.763.884L12.828 12l3 3a.584.584 0 01-.762.885l-.065-.056L12 12.828l-3 3-.066.057a.587.587 0 01-.763-.884L11.172 12l-3-3a.584.584 0 01.762-.885l.065.056L12 11.172l3-3z"/>
    </g>
</svg>
