<svg xmlns="http://www.w3.org/2000/svg" width="19" height="19">
    <g fill="none" fill-rule="evenodd">
        <path fill="#004BC1"
              d="M7.483 7.202a1.28 1.28 0 10-1.281 1.28 1.26 1.26 0 001.28-1.242v-.038M3.326 4.325a.708.708 0 01.507-.198L8.352 4c.297-.001.583.116.795.325l5.693 5.695c.425.409.437 1.084.029 1.508l-.029.029-4.284 4.284a1.066 1.066 0 01-1.508.029l-.029-.029-5.695-5.694A1.132 1.132 0 013 9.35l.127-4.52a.703.703 0 01.198-.506"/>
        <path d="M0 0h19v19H0z"/>
    </g>
</svg>
