<svg xmlns="http://www.w3.org/2000/svg" width="22" height="22">
    <g fill="none" fill-rule="evenodd">
        <path d="M19.277 3.241c0-.006-.002-.01-.003-.016l-.016-.067-.007-.027-.016-.053-.012-.038-.015-.041-.017-.05-.012-.029-.026-.06-.007-.016c-.012-.024-.022-.049-.035-.072a1.91 1.91 0 00-.46-.584l-.013-.012c-.013-.01-.027-.021-.042-.03a1.84 1.84 0 00-.233-.154l-.03-.018-.041-.02c-.019-.011-.038-.02-.059-.03l-.013-.005a1.957 1.957 0 00-2.21.392c-.029.03-.058.06-.086.092l-.225.267L4.226 16.246c-.032.037-.923 2.92-.923 2.92l-.309 1.008c-.003.011-.007.023-.009.035l-.001.008c-.001.01-.004.018-.004.029v.01l-.002.026.001.03.001.005a.367.367 0 00.531.295s3.678-1.874 3.713-1.946c0 0 11.277-13.344 11.638-13.767l.013-.015a1.92 1.92 0 00.402-1.643z"/>
        <path stroke="#004BC1" stroke-width="1.2"
              d="M19.294 3.323v-.005c-.005-.025-.01-.052-.017-.077 0-.006-.002-.01-.003-.016l-.016-.067-.007-.027-.016-.053-.012-.038-.015-.041-.017-.05-.012-.029-.026-.06-.007-.016c-.012-.024-.022-.049-.035-.072l-.002-.005a1.925 1.925 0 00-.457-.579l-.014-.012c-.013-.01-.027-.021-.042-.03a1.84 1.84 0 00-.233-.154l-.03-.018-.041-.02c-.019-.011-.038-.02-.059-.03l-.013-.005a1.957 1.957 0 00-2.21.392c-.029.03-.058.06-.086.092l-.225.267L4.226 16.246c-.032.037-.923 2.92-.923 2.92l-.309 1.008c-.003.011-.007.023-.009.035l-.001.008c-.001.01-.004.018-.004.029v.01l-.002.026.001.01v.02l.001.005a.367.367 0 00.531.295s3.678-1.874 3.713-1.946c0 0 11.277-13.344 11.638-13.767l.013-.015a1.92 1.92 0 00.419-1.561zM4.436 15.997l2.941 2.489m7.6-14.961l2.941 2.489"/>
    </g>
</svg>
