<svg xmlns="http://www.w3.org/2000/svg" width="42" height="42">
    <defs>
        <linearGradient id="a" x1="45.309%" x2="100%" y1="86.722%" y2="35.926%">
            <stop offset="0%" stop-color="#003D9D"/>
            <stop offset="100%" stop-color="#013E9E"/>
        </linearGradient>
    </defs>
    <g fill="none" fill-rule="evenodd">
        <circle cx="21" cy="21" r="21" fill="#C9DDFC"/>
        <path d="M12.575.169a.92.92 0 011.163.083c.35.336.35.88 0 1.216L6.165 11.535a.901.901 0 01-.608.446l-.124.017H5.31a.913.913 0 01-.47-.167l-.1-.083L.262 7.091a.835.835 0 010-1.216.92.92 0 011.163-.084l.1.084 3.769 3.92 7.18-9.543z"
              fill="url(#a)" transform="translate(14 15)"/>
    </g>
</svg>
