<svg xmlns="http://www.w3.org/2000/svg" xmlns:xlink="http://www.w3.org/1999/xlink" width="182" height="27">
    <defs>
        <path id="a" d="M.084.305h9.883V20.4H.084z"/>
        <path id="c" d="M0 24.645h180.808V0H0z"/>
    </defs>
    <g transform="translate(.336 .667)" fill="none" fill-rule="evenodd">
        <g transform="translate(90.901 4.245)">
            <mask id="b" fill="#fff">
                <use xlink:href="#a"/>
            </mask>
            <path fill="#FFF"
                  d="M5.063.305C2.038.305.084 2.315.084 5.425v9.783c0 3.3 1.788 5.192 4.904 5.192 3.118 0 4.98-1.97 4.98-5.267V5.24c0-3.043-1.88-4.934-4.905-4.934zM2.234 5.276c0-.936.268-3.114 2.754-3.114 1.772 0 2.83 1.15 2.83 3.077v10.042c0 1.472-.479 3.226-2.755 3.226-2.085 0-2.829-1.666-2.829-3.226V5.276z"
                  mask="url(#b)"/>
        </g>
        <path fill="#FFF"
              d="M107.935 22.53c-1.057 0-1.215-.725-1.215-1.158V.375h-2.15v21.367c0 1.776.982 2.755 2.765 2.755a5.22 5.22 0 001.657-.266l.093-.03v-1.815l-.166.037c-.327.07-.657.108-.984.108m6.99-.001c-1.058 0-1.216-.725-1.216-1.158V.375h-2.149v21.367c0 1.776.982 2.755 2.764 2.755.571 0 1.114-.087 1.657-.266l.094-.03v-1.815l-.167.037c-.326.07-.657.108-.983.108M82.221 0c-3.686 0-6.067 2.27-6.067 5.784v13.3c0 3.482 2.283 5.56 6.105 5.56 3.412 0 5.618-2.095 5.618-5.34v-2.902h-2.038v2.792c0 1.666-.94 3.447-3.58 3.447-2.502 0-3.88-1.395-3.88-3.927V5.894c0-1.48.494-3.964 3.805-3.964 2.323 0 3.655 1.284 3.655 3.521V8.17h2.038V5.008C87.877 2.515 86.127 0 82.22 0"/>
        <mask id="d" fill="#fff">
            <use xlink:href="#c"/>
        </mask>
        <path fill="#FFF"
              d="M152.51 24.152h2.15V4.956h-2.15zM146.454.375h-2.149v4.581h-2.065V6.85h2.065v15.039c0 1.68 1.021 2.645 2.801 2.645.662 0 1.263-.12 2.075-.414l.09-.033v-1.794l-.18.06c-.55.18-1.152.288-1.61.288-.634 0-1.027-.213-1.027-1.27V6.85h3.192V4.956h-3.192V.375zm16.549 4.175c-3.025 0-4.979 2.01-4.979 5.119v9.783c0 3.3 1.788 5.193 4.904 5.193 3.118 0 4.98-1.97 4.98-5.267V9.484c0-3.043-1.88-4.934-4.905-4.934zm-2.829 4.971c0-.936.269-3.114 2.754-3.114 1.771 0 2.83 1.15 2.83 3.077v10.042c0 1.472-.479 3.226-2.755 3.226-2.085 0-2.829-1.666-2.829-3.226V9.521zm17.12-4.971c-1.651 0-3.126.817-3.964 2.164l-.03-1.794h-2v19.232h2.15V10.444c0-1.91 1.255-4.037 3.056-4.037 1.408 0 2.152.847 2.152 2.45v15.295h2.15V7.97c0-2.045-1.413-3.42-3.515-3.42m-41.753 0c-3.024 0-4.903 1.962-4.903 5.119v9.82c0 3.277 1.746 5.156 4.791 5.156 2.863 0 4.64-1.65 4.64-4.306v-2.091h-2v1.906c0 1.185-.444 2.598-2.566 2.598-2.245 0-2.716-1.694-2.716-3.115V9.447c0-.914.269-3.04 2.754-3.04 2.346 0 2.528 1.846 2.528 2.412v2.055h2V8.672c0-1.901-1.185-4.122-4.528-4.122m-12.515 0c-3.071 0-4.978 2.075-4.978 5.414v9.304c0 3.517 1.799 5.377 5.203 5.377 1.478 0 2.956-.399 4.053-1.092l.095-.06-.658-1.64-.132.062c-.732.344-1.85.8-3.095.8-2.356 0-3.317-1.095-3.317-3.78V15.12h7.32V9.595c0-3.159-1.678-5.045-4.49-5.045m-.188 1.894c2.265 0 2.603 1.904 2.603 3.04V13.3h-5.245V9.558c0-1.506.695-3.114 2.642-3.114m29.668-3.946h2.158V.375h-2.158zM14.33 6.176c-.865-.755-1.968-1.138-3.277-1.138-1.285 0-2.38.382-3.258 1.137-.885.762-1.334 1.84-1.334 3.207v1.586c0 1.055.323 1.987.958 2.767.625.768 1.333 1.344 2.106 1.711.73.348 1.4.77 1.992 1.25.555.452.837.927.837 1.412v3.277h-2.6v-3.49H6.46v2.18c0 1.297.455 2.352 1.35 3.135.889.779 1.98 1.173 3.242 1.173 1.287 0 2.384-.394 3.261-1.173.883-.784 1.331-1.84 1.331-3.136v-1.966c0-.884-.216-1.68-.644-2.366-.423-.677-.94-1.22-1.534-1.615a28.442 28.442 0 00-1.732-1.06 8.042 8.042 0 01-1.436-1.008c-.367-.33-.546-.687-.546-1.09V8.056h2.6v3.46h3.292V9.383c0-1.366-.442-2.444-1.314-3.206M33.526 21.38h-2.6l.003-13.328h2.6m1.96-1.882c-.876-.755-1.972-1.138-3.258-1.138-1.285 0-2.381.383-3.258 1.138-.885.761-1.334 1.84-1.334 3.207v10.692c0 1.366.45 2.445 1.334 3.207.877.754 1.973 1.137 3.258 1.137 1.286 0 2.382-.383 3.259-1.137.885-.762 1.333-1.84 1.333-3.207V9.377c0-1.367-.448-2.446-1.333-3.208M0 24.157h3.258V.374H0zM25.502 5.033c-1.285 0-2.382.389-3.258 1.156-.036.031-.07.065-.105.098V5.033h-3.262v19.124h3.262V8.06h3.363V5.033zm27.79 3.025h2.572v2.892c0 .405-.177.761-.54 1.091a7.8 7.8 0 01-1.421 1.008c-.203.116-.408.236-.611.36v-5.35zm4.51-1.9c-.868-.755-1.952-1.138-3.224-1.138-1.295 0-2.386.383-3.242 1.138-.863.763-1.302 1.84-1.302 3.205v10.694c0 1.296.444 2.351 1.318 3.135.867.78 1.953 1.174 3.226 1.174 1.25 0 2.329-.395 3.208-1.173.886-.784 1.336-1.839 1.336-3.136v-2.168h-3.258v3.498h-2.572V18.09c0-.484.278-.96.827-1.411a9.823 9.823 0 011.971-1.25c.765-.368 1.466-.944 2.084-1.712.629-.78.948-1.711.948-2.767V9.363c0-1.365-.445-2.444-1.32-3.206zm7.781 15.229L65.585.375h-3.27v19.77c0 1.341.359 2.397 1.067 3.137.71.743 1.722 1.12 3.006 1.12.397 0 .62-.05 1-.136v-2.88h-1.805zM47.365 5.037h-2.859L44.503.375h-3.264l-.001 4.657-1.88.005v3.021h1.881v12.088c0 1.34.36 2.396 1.067 3.136.71.743 1.723 1.12 3.007 1.12.626 0 1.236-.11 1.814-.324l.134-.05v-2.64l-2.753-.001V8.059h2.857V5.037z"
              mask="url(#d)"/>
    </g>
</svg>
