<svg xmlns="http://www.w3.org/2000/svg" width="145" height="32">
    <path d="M82.947.667h-5.842l.026 23.954h5.729c3.754 0 5.994-2.177 5.994-5.822l-.025-12.796c0-3.342-2.199-5.336-5.882-5.336zM79.359 2.66h3.399c2.814 0 3.817 1.843 3.817 3.567l.026 12.684c0 1.715-1.01 3.716-3.855 3.716h-3.36L79.359 2.66zM15.307 6.5c-.865-.755-1.968-1.138-3.277-1.138-1.285 0-2.38.382-3.258 1.138-.885.761-1.334 1.84-1.334 3.206v1.586c0 1.056.323 1.987.958 2.767.625.768 1.333 1.344 2.106 1.711.73.348 1.4.77 1.992 1.25.555.453.837.928.837 1.413v3.277h-2.6v-3.491H7.437v2.18c0 1.298.455 2.352 1.35 3.136.889.778 1.98 1.173 3.242 1.173 1.287 0 2.384-.395 3.261-1.174.883-.784 1.331-1.84 1.331-3.135v-1.966c0-.885-.216-1.681-.644-2.367-.423-.677-.94-1.22-1.534-1.614a28.462 28.462 0 00-1.732-1.061 7.992 7.992 0 01-1.436-1.008c-.367-.33-.546-.686-.546-1.091v-2.91h2.6v3.46h3.292V9.706c0-1.366-.442-2.444-1.314-3.206m19.196 15.205h-2.6l.004-13.33h2.6m1.96-1.881c-.877-.754-1.973-1.137-3.258-1.137-1.286 0-2.382.383-3.259 1.137-.884.762-1.333 1.841-1.333 3.207v10.692c0 1.367.449 2.446 1.333 3.207.877.755 1.973 1.137 3.259 1.137 1.285 0 2.381-.382 3.258-1.137.885-.761 1.334-1.84 1.334-3.207V9.701c0-1.366-.449-2.445-1.334-3.207M.977 24.481h3.258V.699H.977zM26.48 5.357c-1.286 0-2.382.388-3.259 1.156-.036.032-.07.065-.104.098V5.357h-3.262v19.125h3.262V8.383h3.363V5.357zm27.789 3.026h2.572v2.892c0 .404-.177.76-.54 1.09a7.851 7.851 0 01-1.421 1.009c-.203.116-.408.236-.611.36V8.382zm4.51-1.901c-.868-.755-1.952-1.137-3.224-1.137-1.295 0-2.386.382-3.242 1.138-.863.762-1.302 1.84-1.302 3.205v10.693c0 1.297.444 2.352 1.318 3.135.867.78 1.953 1.174 3.226 1.174 1.25 0 2.329-.394 3.208-1.173.886-.783 1.336-1.838 1.336-3.136v-2.167h-3.258v3.497h-2.572v-3.296c0-.485.278-.96.827-1.412a9.868 9.868 0 011.971-1.25c.765-.367 1.466-.943 2.084-1.711.629-.781.948-1.712.948-2.767V9.688c0-1.366-.445-2.444-1.32-3.206zm7.782 15.229V.699h-3.27v19.77c0 1.341.36 2.398 1.068 3.137.71.743 1.722 1.12 3.006 1.12.397 0 .62-.049 1-.135v-2.88h-1.804zM48.342 5.361h-2.859L45.48.699h-3.264l-.001 4.658-1.88.004v3.021h1.881v12.089c0 1.34.36 2.395 1.067 3.135.71.744 1.723 1.12 3.007 1.12a5.18 5.18 0 001.814-.324l.134-.05v-2.64l-2.753-.001V8.383h2.857V5.361zm48.861-.49c-3.053 0-4.95 2.063-4.95 5.383v9.252c0 3.498 1.79 5.346 5.175 5.346 1.47 0 2.938-.396 4.03-1.086l.094-.06-.655-1.63-.132.061c-.727.342-1.838.796-3.076.796-2.342 0-3.298-1.089-3.298-3.757V15.38h7.278V9.887c0-3.141-1.67-5.016-4.466-5.016m-.186 1.882c2.252 0 2.59 1.895 2.59 3.025v3.793h-5.216v-3.72c0-1.498.69-3.098 2.626-3.098m32.602-.105c-.71-1.223-2.149-1.778-3.385-1.778-2.092 0-4.204 1.37-4.204 4.43v10.61c0 2.623 1.548 4.317 3.944 4.317 1.17 0 2.695-.674 3.485-2.144v3.333c0 2.298-1.098 3.464-3.261 3.464-1.078 0-2.067-.228-3.306-.76l-.125-.054-.777 1.783.117.055c1.244.593 2.495.858 4.053.858 1.636 0 2.997-.478 3.935-1.383.996-.96 1.5-2.343 1.5-4.11V5.2h-1.948l-.028 1.447zm-.16 3.9v7.856c0 2.08-1.385 3.905-2.963 3.905-2.025 0-2.328-1.665-2.328-2.657V9.446c0-1.781.822-2.803 2.253-2.803 1.404 0 3.038 1.705 3.038 3.905zm11.715-5.677c-1.64 0-3.108.812-3.942 2.152l-.03-1.785h-1.986v19.284h2.138v-13.79c0-1.9 1.247-4.015 3.036-4.015 1.401 0 2.142.842 2.142 2.436v15.369h2.137V8.272c0-2.035-1.404-3.401-3.495-3.401m-32.175 1.846c1.41 0 2.042.8 2.254 2.853l.013.126 2.057-.085-.008-.134c-.143-2.904-1.676-4.57-4.204-4.57-2.644 0-4.353 1.61-4.353 4.099 0 1.838.907 3.3 2.27 4.93l1.829 2.203c.923 1.111 2.32 2.79 2.32 4.358 0 1.594-.8 2.472-2.252 2.472-1.534 0-2.274-.85-2.554-2.93l-.015-.116h-2.13l.009.142c.202 3.019 1.898 4.75 4.652 4.75 2.992 0 4.354-2.276 4.354-4.392 0-1.698-.829-3.491-2.533-5.482l-2.24-2.644c-1.17-1.36-1.648-2.355-1.648-3.438 0-1.301.856-2.142 2.179-2.142m7.37 17.759h2.15l.001-19.186h-2.15zm-.012-21.647h2.119V.744h-2.119z"
          fill="#FFF" fill-rule="evenodd"/>
</svg>
