<svg xmlns="http://www.w3.org/2000/svg" xmlns:xlink="http://www.w3.org/1999/xlink" width="94" height="15">
    <defs>
        <path id="a" d="M0 13.37h93.382V0H0z"/>
    </defs>
    <g transform="translate(.24 .583)" fill="none" fill-rule="evenodd">
        <path fill="#FFF"
              d="M7.746 3.19c-.468-.414-1.064-.625-1.771-.625-.695 0-1.287.21-1.762.625-.478.42-.72 1.013-.72 1.764v.872c0 .581.174 1.093.517 1.522.338.423.72.74 1.139.942.394.191.756.423 1.076.687.3.248.453.51.453.776v1.803H5.271v-1.92h-1.78v1.199c0 .714.246 1.294.73 1.725.48.428 1.07.645 1.753.645.695 0 1.288-.217 1.762-.646.478-.43.72-1.011.72-1.724V9.753c0-.486-.117-.924-.348-1.3a2.883 2.883 0 00-.83-.89 15.645 15.645 0 00-.936-.582 4.367 4.367 0 01-.776-.555c-.198-.181-.295-.377-.295-.6v-1.6h1.405v1.903h1.78V4.954c0-.751-.24-1.344-.71-1.763m10.376 8.362h-1.405l.002-7.33h1.405m1.06-1.036c-.474-.414-1.067-.625-1.762-.625-.694 0-1.287.21-1.761.625-.478.42-.72 1.013-.72 1.764v5.881c0 .752.242 1.345.72 1.764.474.415 1.067.625 1.761.625.695 0 1.288-.21 1.762-.625.478-.42.72-1.012.72-1.764v-5.88c0-.752-.242-1.345-.72-1.765"/>
        <mask id="b" fill="#fff">
            <use xlink:href="#a"/>
        </mask>
        <path fill="#FFF"
              d="M0 13.081h1.761V0H0zM13.785 2.562c-.695 0-1.287.214-1.761.636-.02.017-.038.036-.057.054v-.69h-1.763V13.08h1.763V4.226h1.818V2.562zm15.021 1.664h1.391v1.59c0 .223-.096.42-.292.6-.212.197-.47.383-.768.555-.11.064-.22.13-.33.198V4.226zm2.438-1.045c-.469-.415-1.055-.626-1.743-.626-.7 0-1.29.21-1.752.626-.467.42-.703 1.012-.703 1.763v5.881c0 .713.24 1.294.712 1.725.469.428 1.056.645 1.743.645.676 0 1.26-.217 1.734-.645.48-.43.723-1.01.723-1.725V9.633h-1.761v1.924h-1.39V9.744c0-.267.15-.528.446-.777a5.331 5.331 0 011.066-.687c.414-.202.792-.519 1.126-.941.34-.43.513-.942.513-1.522v-.873c0-.751-.24-1.344-.714-1.763zm4.206 8.376L35.452 0h-1.767v10.874c0 .738.194 1.318.576 1.725.385.408.931.616 1.625.616.215 0 .336-.027.541-.075v-1.583h-.975zm-9.847-8.993h-1.546L24.056 0h-1.764l-.001 2.562-1.016.002v1.662h1.017v6.648c0 .738.193 1.318.576 1.725.384.409.931.616 1.625.616.339 0 .669-.06.981-.178l.072-.028v-1.452h-1.488v-7.33h1.545V2.563zm31.517-.256c-1.636 0-2.651 1.078-2.651 2.813v5.396c0 1.8.943 2.833 2.59 2.833 1.547 0 2.508-.907 2.508-2.366v-1.15h-1.08v1.048c0 .652-.242 1.427-1.389 1.427-1.212 0-1.467-.93-1.467-1.71v-5.6c0-.502.145-1.671 1.488-1.671 1.269 0 1.367 1.015 1.367 1.326v1.129h1.081v-1.21c0-1.045-.64-2.265-2.448-2.265m6.031 9.88c-.572 0-.658-.399-.658-.636V0H61.33v11.754c0 .977.53 1.515 1.494 1.515.308 0 .602-.048.896-.146l.05-.017v-.997l-.09.02a2.446 2.446 0 01-.53.059M42.389 6.765h3.326v-1.1h-3.326V1.101h4.131V0h-5.356v13.039h5.377v-1.101h-4.152zm26.868 3.346c0 1.05-.678 2.219-1.65 2.219-.784 0-1.164-.42-1.164-1.285V2.51H65.28v8.96c0 1.136.755 1.899 1.879 1.899a2.49 2.49 0 002.163-1.211l.017.904h1.08V2.511h-1.163v7.6zm-16.046-7.6h-1.093l-1.532 4.083-1.513-4.035-.018-.048h-1.256l2.078 5.206-2.15 5.244-.042.103h1.135l1.664-4.211 1.607 4.145.018.047h1.235l-2.151-5.389zm31.079 8.41l-1.604-8.41H81.48l2.169 10.502.012.059h1.176L87.02 2.6l.018-.089h-1.125zm9.092-2.805V5.08c0-1.736-.908-2.772-2.427-2.772-1.66 0-2.692 1.14-2.692 2.975v5.112c0 1.933.973 2.955 2.813 2.955.8 0 1.598-.219 2.19-.6l.052-.033-.355-.9-.072.033c-.396.189-1 .44-1.673.44-1.274 0-1.793-.602-1.793-2.077V8.116h3.957zM89.425 5.06c0-.827.376-1.712 1.428-1.712 1.224 0 1.407 1.047 1.407 1.671v2.097h-2.835V5.06zM74.736 3.328c.766 0 1.11.442 1.225 1.577l.007.07 1.118-.048-.003-.074c-.079-1.604-.912-2.525-2.286-2.525-1.438 0-2.367.89-2.367 2.265 0 1.016.494 1.824 1.235 2.725l.993 1.217c.503.614 1.262 1.541 1.262 2.408 0 .881-.435 1.366-1.224 1.366-.834 0-1.236-.469-1.389-1.62l-.008-.063h-1.158l.005.079c.11 1.668 1.032 2.625 2.53 2.625 1.14 0 2.366-.76 2.366-2.427 0-.94-.45-1.93-1.376-3.03l-1.219-1.461c-.635-.752-.895-1.302-.895-1.9 0-.72.465-1.184 1.184-1.184m4.024 9.735h1.162V2.511H78.76zm-.007-11.906h1.146V.01h-1.146z"
              mask="url(#b)"/>
    </g>
</svg>
