<svg xmlns="http://www.w3.org/2000/svg" xmlns:xlink="http://www.w3.org/1999/xlink" width="100" height="16">
    <defs>
        <path id="a" d="M.045.168h5.343V11.22H.045z"/>
        <path id="c" d="M0 13.555h97.734V0H0z"/>
    </defs>
    <g transform="translate(.492 .667)" fill="none" fill-rule="evenodd">
        <g transform="translate(49.136 2.335)">
            <mask id="b" fill="#fff">
                <use xlink:href="#a"/>
            </mask>
            <path fill="#FFF"
                  d="M2.737.168C1.102.168.045 1.273.045 2.983v5.381c0 1.815.967 2.856 2.651 2.856 1.686 0 2.692-1.083 2.692-2.897V2.882c0-1.674-1.016-2.714-2.651-2.714zm-1.53 2.734c0-.515.146-1.713 1.49-1.713.957 0 1.529.633 1.529 1.693v5.523c0 .81-.259 1.774-1.49 1.774-1.126 0-1.528-.917-1.528-1.774V2.902z"
                  mask="url(#b)"/>
        </g>
        <path fill="#FFF"
              d="M58.343 12.392c-.571 0-.657-.4-.657-.637V.206h-1.161v11.752c0 .977.53 1.515 1.494 1.515.309 0 .602-.047.896-.146l.05-.016v-.999l-.09.02c-.176.04-.355.06-.532.06m3.778 0c-.571 0-.657-.4-.657-.637V.206h-1.161v11.752c0 .977.53 1.515 1.494 1.515.309 0 .602-.047.896-.146l.05-.016v-.999l-.09.02c-.176.04-.355.06-.532.06M44.444 0c-1.992 0-3.28 1.248-3.28 3.18v7.316c0 1.915 1.234 3.058 3.3 3.058 1.845 0 3.037-1.152 3.037-2.937V9.021h-1.102v1.536c0 .916-.508 1.895-1.935 1.895-1.352 0-2.097-.767-2.097-2.16v-7.05c0-.814.267-2.18 2.057-2.18 1.255 0 1.975.706 1.975 1.936v1.495h1.102V2.755c0-1.372-.945-2.755-3.057-2.755"/>
        <mask id="d" fill="#fff">
            <use xlink:href="#c"/>
        </mask>
        <path fill="#FFF"
              d="M82.438 13.283H83.6V2.726h-1.162zM79.164.206h-1.161v2.52h-1.117v1.042h1.117v8.271c0 .924.552 1.455 1.514 1.455.357 0 .682-.066 1.121-.228l.049-.018v-.987l-.098.033c-.297.1-.622.158-.87.158-.342 0-.555-.116-.555-.697V3.768h1.726V2.726h-1.726V.206zm8.946 2.297c-1.635 0-2.691 1.105-2.691 2.815v5.38c0 1.816.966 2.857 2.65 2.857 1.686 0 2.692-1.083 2.692-2.897V5.216c0-1.674-1.016-2.713-2.651-2.713zm-1.53 2.734c0-.515.146-1.713 1.49-1.713.957 0 1.528.632 1.528 1.692v5.523c0 .81-.258 1.775-1.488 1.775-1.127 0-1.53-.917-1.53-1.775V5.237zm9.255-2.734c-.893 0-1.69.45-2.143 1.19l-.017-.987h-1.08v10.577h1.163V5.744c0-1.05.678-2.22 1.65-2.22.762 0 1.164.466 1.164 1.347v8.412h1.162v-8.9c0-1.124-.763-1.88-1.9-1.88m-22.569 0c-1.635 0-2.65 1.078-2.65 2.815v5.401c0 1.802.943 2.836 2.59 2.836 1.547 0 2.508-.908 2.508-2.369v-1.15h-1.081v1.049c0 .651-.24 1.429-1.387 1.429-1.214 0-1.469-.932-1.469-1.714V5.196c0-.503.146-1.672 1.489-1.672 1.268 0 1.367 1.015 1.367 1.327v1.13h1.08V4.77c0-1.046-.64-2.267-2.447-2.267m-6.765 0c-1.66 0-2.691 1.14-2.691 2.977v5.118c0 1.934.972 2.957 2.813 2.957.799 0 1.597-.22 2.19-.6l.052-.034-.356-.902-.071.034c-.396.19-1 .44-1.673.44-1.274 0-1.793-.602-1.793-2.078v-2.1h3.957V5.278c0-1.737-.908-2.774-2.428-2.774m-.1 1.04c1.224 0 1.407 1.048 1.407 1.672v2.099h-2.835V5.257c0-.828.375-1.713 1.428-1.713m16.036-2.17h1.166V.206h-1.166zM7.746 3.397c-.468-.415-1.064-.626-1.771-.626-.695 0-1.287.21-1.762.625-.478.42-.72 1.013-.72 1.764v.872c0 .58.174 1.093.517 1.522.338.422.72.74 1.139.942.394.191.756.423 1.076.687.3.248.453.51.453.776v1.803H5.271v-1.92h-1.78v1.199c0 .714.246 1.294.73 1.725.48.428 1.07.645 1.753.645.695 0 1.288-.217 1.762-.646.478-.43.72-1.011.72-1.724V9.959c0-.486-.117-.924-.348-1.3a2.883 2.883 0 00-.83-.89 15.645 15.645 0 00-.936-.582 4.367 4.367 0 01-.776-.555c-.198-.181-.295-.377-.295-.6v-1.6h1.405v1.903h1.78V5.16c0-.751-.24-1.344-.71-1.763m10.376 8.363h-1.405l.002-7.332h1.405m1.06-1.035c-.474-.415-1.067-.625-1.762-.625-.694 0-1.287.21-1.761.625-.478.42-.72 1.013-.72 1.764v5.881c0 .751.242 1.345.72 1.764.474.415 1.067.625 1.761.625.695 0 1.288-.21 1.762-.625.478-.42.72-1.013.72-1.764v-5.88c0-.752-.242-1.346-.72-1.765M0 13.286h1.761V.206H0zM13.785 2.768c-.695 0-1.287.214-1.761.636-.02.017-.038.036-.057.054v-.69h-1.763v10.518h1.763V4.432h1.818V2.768zm15.021 1.664h1.391v1.59c0 .223-.096.42-.292.6-.212.197-.47.383-.768.555-.11.064-.22.13-.33.198V4.432zm2.438-1.046c-.469-.414-1.055-.625-1.743-.625-.7 0-1.29.21-1.752.626-.467.42-.703 1.012-.703 1.763v5.881c0 .713.24 1.293.712 1.724.469.43 1.056.646 1.743.646.676 0 1.26-.217 1.734-.645.48-.43.723-1.011.723-1.725V9.84h-1.761v1.924h-1.39V9.95c0-.267.15-.528.446-.777a5.331 5.331 0 011.066-.687c.414-.202.792-.52 1.126-.942.34-.429.513-.94.513-1.521V5.15c0-.751-.24-1.345-.714-1.764zm4.206 8.377L35.452.206h-1.767V11.08c0 .737.194 1.318.576 1.725.385.409.931.616 1.625.616.215 0 .336-.027.541-.075v-1.583h-.975zM25.603 2.77h-1.546L24.056.206h-1.764l-.001 2.562-1.016.002v1.662h1.017v6.648c0 .738.193 1.318.576 1.725.384.409.931.616 1.625.616.339 0 .669-.06.981-.178l.072-.028v-1.452h-1.488v-7.33h1.545V2.77z"
              mask="url(#d)"/>
    </g>
</svg>
