<svg xmlns="http://www.w3.org/2000/svg" xmlns:xlink="http://www.w3.org/1999/xlink" width="174" height="27" viewBox="0 0 174 26">
    <defs>
        <path id="a" d="M0 24.31h172.757V0H0z"/>
    </defs>
    <g transform="translate(.42 .333)" fill="none" fill-rule="evenodd">
        <path fill="#FFF"
              d="M14.33 5.801c-.865-.754-1.968-1.138-3.277-1.138-1.285 0-2.38.383-3.258 1.138-.885.761-1.334 1.84-1.334 3.206v1.587c0 1.055.323 1.986.958 2.766.625.768 1.333 1.344 2.106 1.712.73.348 1.4.77 1.992 1.25.555.452.837.927.837 1.412v3.277h-2.6v-3.49H6.46V19.7c0 1.298.455 2.352 1.35 3.136.889.778 1.98 1.173 3.242 1.173 1.287 0 2.384-.395 3.261-1.174.883-.784 1.331-1.839 1.331-3.135v-1.966c0-.885-.216-1.681-.644-2.366-.423-.678-.94-1.221-1.534-1.615a28.442 28.442 0 00-1.732-1.06 7.994 7.994 0 01-1.436-1.009c-.367-.33-.546-.686-.546-1.09V7.682h2.6v3.461h3.292V9.007c0-1.365-.442-2.444-1.314-3.206m19.196 15.205h-2.6l.003-13.329h2.6m1.96-1.882c-.876-.754-1.972-1.137-3.258-1.137-1.285 0-2.381.383-3.258 1.137-.885.762-1.334 1.841-1.334 3.207v10.693c0 1.366.45 2.445 1.334 3.206.877.755 1.973 1.137 3.258 1.137 1.286 0 2.382-.382 3.259-1.137.885-.761 1.333-1.84 1.333-3.206V9.002c0-1.366-.448-2.445-1.333-3.207"/>
        <mask id="b" fill="#fff">
            <use xlink:href="#a"/>
        </mask>
        <path fill="#FFF"
              d="M0 23.783h3.258V.001H0zM25.502 4.658c-1.285 0-2.382.389-3.258 1.156-.036.032-.07.066-.105.098V4.658h-3.262v19.125h3.262V7.684h3.363V4.658zm27.79 3.026h2.572v2.892c0 .405-.177.761-.54 1.091a7.898 7.898 0 01-1.421 1.008c-.203.116-.408.236-.611.36v-5.35zm4.51-1.901c-.868-.754-1.952-1.137-3.224-1.137-1.295 0-2.386.383-3.242 1.138-.863.762-1.302 1.84-1.302 3.205v10.693c0 1.297.444 2.352 1.318 3.135.867.78 1.953 1.175 3.226 1.175 1.25 0 2.329-.395 3.208-1.173.886-.784 1.336-1.839 1.336-3.137v-2.167h-3.258v3.498h-2.572v-3.297c0-.485.278-.96.827-1.412a9.958 9.958 0 011.971-1.25c.765-.367 1.466-.943 2.084-1.711.629-.78.948-1.711.948-2.767V8.99c0-1.365-.445-2.444-1.32-3.206zm7.781 15.229L65.585 0h-3.27v19.77c0 1.342.359 2.398 1.067 3.138.71.742 1.722 1.12 3.006 1.12.397 0 .62-.05 1-.136v-2.88h-1.805zM47.365 4.663h-2.859L44.503 0h-3.264l-.001 4.658-1.88.005v3.02h1.881v12.088c0 1.341.36 2.397 1.067 3.136.71.744 1.723 1.12 3.007 1.12.626 0 1.236-.109 1.814-.324l.134-.05v-2.64l-2.753-.001V7.684h2.857V4.663zm58.305-.466c-3.024 0-4.903 1.96-4.903 5.113v9.812c0 3.273 1.746 5.15 4.79 5.15 2.864 0 4.642-1.648 4.642-4.301v-2.09h-2v1.905c0 1.184-.446 2.595-2.567 2.595-2.244 0-2.715-1.692-2.715-3.111V9.09c0-.914.269-3.04 2.754-3.04 2.346 0 2.528 1.846 2.528 2.412v2.053h2v-2.2c0-1.9-1.186-4.118-4.528-4.118m11.155 17.963c-1.057 0-1.215-.725-1.215-1.157V0h-2.15v21.372c0 1.775.981 2.753 2.764 2.753.57 0 1.113-.086 1.658-.264l.093-.031v-1.814l-.167.036a4.554 4.554 0 01-.983.108m-38.407-9.859h6.153V10.3h-6.153V2.001h7.643V0h-9.908v23.707H86.1v-2.001h-7.681zm49.707 6.083c0 1.908-1.254 4.034-3.055 4.034-1.448 0-2.152-.764-2.152-2.337V4.565h-2.15v16.29c0 2.067 1.397 3.454 3.477 3.454 1.677 0 3.138-.813 4.001-2.202l.031 1.644h1.998V4.565h-2.15v13.82zM98.44 4.565h-2.022l-2.834 7.424-2.799-7.337-.034-.087h-2.324l3.846 9.466-3.977 9.535-.078.186h2.099l3.079-7.656 2.972 7.536.034.086h2.285l-3.979-9.798zm57.496 15.291L152.97 4.565h-2.232l4.013 19.096.022.107h2.175l4.039-19.041.034-.162h-2.083zm16.821-5.1v-5.52c0-3.155-1.68-5.04-4.491-5.04-3.072 0-4.98 2.073-4.98 5.41V18.9c0 3.515 1.8 5.372 5.204 5.372 1.48 0 2.957-.397 4.054-1.09l.094-.06-.657-1.638-.132.062c-.733.343-1.852.798-3.095.798-2.357 0-3.318-1.094-3.318-3.775v-3.813h7.32zM165.436 9.2c0-1.505.695-3.112 2.642-3.112 2.265 0 2.604 1.903 2.604 3.038v3.812h-5.246V9.2zm-27.174-3.15c1.417 0 2.052.805 2.266 2.868l.013.126 2.068-.085-.006-.135c-.145-2.917-1.686-4.59-4.229-4.59-2.66 0-4.378 1.616-4.378 4.117 0 1.846.912 3.316 2.283 4.954l1.84 2.213c.929 1.116 2.334 2.802 2.334 4.378 0 1.602-.805 2.485-2.266 2.485-1.543 0-2.287-.853-2.568-2.945l-.016-.116h-2.142l.009.143c.204 3.033 1.91 4.773 4.68 4.773 2.108 0 4.377-1.381 4.377-4.413 0-1.707-.833-3.51-2.546-5.508l-2.253-2.657c-1.177-1.367-1.657-2.367-1.657-3.454 0-1.309.86-2.153 2.191-2.153m7.443 17.7h2.15l.002-19.186h-2.15zm-.012-21.647h2.119V.019h-2.119z"
              mask="url(#b)"/>
    </g>
</svg>
