<svg xmlns="http://www.w3.org/2000/svg" width="46" height="42">
    <g fill="none" fill-rule="evenodd">
        <path d="M19.913.531C9.018.532.173 9.444.011 20.502h.003c-.009.235-.014.47-.014.704.004 10.502 8.256 19.472 18.662 20.032l.046-.881C8.773 39.831.862 31.231.866 21.206c0-.23.004-.46.013-.69l.863.012C1.89 10.434 9.966 2.294 19.913 2.295c9.948-.001 18.025 8.139 18.172 18.233l1.731-.026C39.654 9.444 30.81.532 19.913.532"
              fill="#EF7F13"/>
        <path fill="#363D50"
              d="M35.864 21.734c.855 0 1.25.346 1.25 1.284v1.62c0 .201.022.38.066.525l.483 1.396a.761.761 0 01.043.213c0 .19-.098.29-.252.29h-.548c-.143 0-.22-.067-.286-.257l-.493-1.464h-.077l-.877 1.632c-.088.167-.209.256-.396.178l-.515-.2a.226.226 0 01-.153-.213c0-.056.033-.167.076-.246l.845-1.474c.154-.268.34-.391.735-.391h.263v-1.44c0-.225-.066-.348-.296-.348h-.779c-.176 0-.263-.089-.263-.279v-.558c0-.179.087-.268.263-.268h.91zm-26.186 0c.143 0 .23.1.274.302l.439 2.177h.033c.055 0 .11-.078.154-.223l.614-1.966c.066-.19.186-.29.373-.29h.56c.142 0 .207.067.207.212 0 .044 0 .09-.022.134l-.701 2.211c-.132.402-.406.604-.845.604h-.241l.154.77c.043.202.142.302.306.302h1.097c.241 0 .384-.1.439-.313l1.031-3.664c.054-.167.154-.256.329-.256h.658c.12 0 .187.067.187.212 0 .044 0 .078-.012.123l-1.075 3.697c-.131.436-.296.76-.482.95-.22.234-.537.346-.943.346h-1.525c-.329 0-.581-.09-.735-.268-.131-.156-.24-.425-.318-.827l-.625-3.139h-.34c-.175 0-.263-.089-.263-.279v-.547c0-.18.088-.268.263-.268h1.01zm6.426-.023l.197.213c.11.111.263.301.45.558.24-.324.428-.536.56-.614.153-.09.405-.134.767-.134h.746c.855 0 1.283.447 1.283 1.33v3.618c0 .145-.01.235-.055.28-.054.066-.165.1-.317.1h-1.81c-.187 0-.275-.09-.275-.268v-.548c0-.19.088-.279.274-.279h1.108v-2.636c0-.335-.186-.503-.56-.503h-.997c-.439 0-.658.201-.658.604v3.328c0 .201-.1.302-.274.302h-.549c-.176 0-.263-.1-.263-.302v-3.53a.675.675 0 00-.154-.435l-.252-.302c-.065-.078-.099-.145-.099-.212s.034-.134.1-.19l.372-.346c.154-.146.285-.146.406-.034zm5.745.023c.143 0 .23.1.274.302l.44 2.177h.032c.055 0 .11-.078.154-.223l.614-1.966c.066-.19.186-.29.373-.29h.56c.142 0 .208.067.208.212 0 .044 0 .09-.023.134l-.701 2.211c-.132.402-.406.604-.845.604h-.24l.153.77c.043.202.143.302.306.302h1.097c.242 0 .384-.1.44-.313l1.03-3.664c.055-.167.154-.256.33-.256h.657c.12 0 .187.067.187.212 0 .044 0 .078-.011.123l-1.075 3.697c-.132.436-.297.76-.482.95-.22.234-.538.346-.944.346H22.86c-.33 0-.582-.09-.736-.268-.131-.156-.24-.425-.317-.827l-.626-3.139h-.34c-.175 0-.263-.089-.263-.279v-.547c0-.18.088-.268.263-.268h1.01zm6.569 2.368c.164 0 .252.089.252.245v2.413c0 .201-.088.302-.263.302h-.549c-.174 0-.274-.1-.274-.302v-1.486c0-.446.11-.77.22-1.027.054-.1.12-.145.252-.145h.362zm2.215-2.368c.34 0 .603.1.79.301.197.19.285.458.285.793v3.932c0 .201-.088.302-.263.302h-.548c-.176 0-.264-.1-.264-.302v-3.64c0-.19-.098-.29-.296-.29h-2.544c-.176 0-.263-.09-.263-.28v-.547c0-.179.087-.268.263-.268h2.84zm8.959 0c.23 0 .34.122.34.368v4.658c0 .201-.088.302-.275.302h-.537c-.186 0-.274-.1-.274-.302v-3.932h-.516c-.176 0-.274-.089-.274-.28v-.546c0-.179.098-.268.274-.268h1.262zm4.978 0c.713 0 1.064.39 1.064 1.161v3.865c0 .201-.088.302-.263.302h-.549c-.175 0-.263-.1-.263-.302v-3.653c0-.178-.087-.279-.274-.279H42.52v3.932c0 .201-.087.302-.263.302h-.548c-.176 0-.264-.1-.264-.302v-3.932h-.318c-.175 0-.274-.089-.274-.28v-.546c0-.179.099-.268.274-.268h3.444zm1.074 8.536v-1.234c0-.301-.147-.453-.438-.453h-.255a.537.537 0 00-.261.046.859.859 0 00-.191.21 1.657 1.657 0 00-.154-.191l-.067-.073c-.04-.038-.086-.038-.138.012l-.127.118a.084.084 0 00-.034.065c0 .022.011.045.034.072l.085.102a.235.235 0 01.053.15v1.203c0 .069.03.103.09.103h.187c.06 0 .093-.034.093-.103v-1.135c0-.137.075-.206.225-.206h.34c.127 0 .191.057.191.171v.9h-.378c-.064 0-.093.03-.093.095v.187c0 .06.03.091.093.091h.617c.053 0 .09-.012.109-.034.015-.015.019-.046.019-.096zm-2.017.027v-1.589c0-.084-.037-.125-.115-.125h-.43c-.06 0-.094.03-.094.091v.187c0 .065.033.095.093.095h.176v1.341c0 .069.03.103.093.103h.184c.063 0 .093-.034.093-.103zm-.913-1.615c0-.065-.033-.099-.097-.099h-.452c-.06 0-.094.03-.094.091v.187c0 .065.034.095.094.095h.134l-.06.286c-.048.22-.164.43-.362.61l-.015.014-.008-.003a.203.203 0 00.015-.145l-.22-1.01c-.019-.084-.064-.125-.139-.125h-.347c-.064 0-.094.03-.094.091v.187c0 .065.03.095.094.095h.16l.262 1.112-.007.016-.49.388c-.023.02-.038.042-.038.069 0 .019.011.038.026.061l.109.148c.03.042.07.046.116.008l.684-.54c.333-.268.539-.591.621-.972l.108-.507v-.057zm-1.96.194v-.213c0-.053-.029-.08-.081-.08h-1.276c-.06 0-.093.03-.093.091v.187c0 .065.033.095.093.095h.722v1.341c0 .069.03.103.09.103h.187c.06 0 .09-.034.09-.103v-1.34h.194c.049 0 .075-.027.075-.08zm-1.802 1.421v-1.589c0-.084-.037-.125-.116-.125h-.43c-.06 0-.094.03-.094.091v.187c0 .065.034.095.094.095h.176v1.341c0 .069.03.103.093.103h.183c.064 0 .094-.034.094-.103zm-.991.785v-2.374c0-.084-.038-.125-.116-.125h-.43c-.06 0-.093.03-.093.091v.187c0 .065.033.095.093.095h.176v2.076c0 .065.004.13.093.13h.19c.057 0 .087-.027.087-.08zm-1.89-.785v-1.318c0-.263-.12-.396-.364-.396h-1.174c-.06 0-.093.03-.093.091v.187c0 .065.033.095.093.095h.108v1.341c0 .069.03.103.09.103h.188c.06 0 .09-.034.09-.103v-1.34h.601c.064 0 .094.034.094.094v1.246c0 .069.03.103.09.103h.187c.06 0 .09-.034.09-.103zm-1.852.015v-.19c0-.057-.026-.088-.079-.088h-.205v-.023c.056-.045.086-.121.086-.228v-.777c0-.149-.03-.256-.086-.324-.06-.065-.161-.099-.307-.099h-.725c-.064 0-.094.03-.094.095v.187c0 .06.03.091.094.091h.62c.086 0 .131.042.131.126v.808c0 .09-.045.136-.134.136h-.685c-.06 0-.09.031-.09.096v.187c0 .06.03.091.09.091h1.317c.045 0 .067-.03.067-.088zm-1.848-.015v-1.284c0-.285-.142-.43-.426-.43h-.74c-.06 0-.094.03-.094.091v.187c0 .065.033.095.094.095h.677c.082 0 .12.042.12.118v1.223c0 .069.029.103.093.103h.183c.063 0 .093-.034.093-.103zm-1.574-.743v-.846c0-.084-.038-.125-.116-.125h-.43c-.06 0-.094.03-.094.091v.187c0 .065.034.095.094.095h.176v.598c0 .069.03.103.093.103h.183c.064 0 .094-.034.094-.103zm-1.895.716v-1.234c0-.301-.145-.453-.437-.453h-.255a.534.534 0 00-.261.046.84.84 0 00-.19.21 1.906 1.906 0 00-.154-.191l-.068-.073c-.04-.038-.086-.038-.138.012l-.127.118a.084.084 0 00-.034.065c0 .022.011.045.034.072l.086.102a.24.24 0 01.052.15v1.203c0 .069.03.103.09.103h.187c.06 0 .094-.034.094-.103v-1.135c0-.137.074-.206.224-.206h.34c.127 0 .191.057.191.171v.9h-.378c-.063 0-.093.03-.093.095v.187c0 .06.03.091.093.091h.618c.052 0 .09-.012.108-.034.015-.015.018-.046.018-.096zm-1.941-1.333v-.229c0-.084-.037-.125-.116-.125h-.886v-.366c0-.065-.034-.099-.094-.099h-.172c-.07 0-.104.027-.104.084v.651c0 .069.03.103.09.103h.86l-.58 1.265a.102.102 0 00-.008.08c.008.027.023.045.045.053l.187.065c.06.019.101.003.124-.053l.654-1.429zm-1.731 1.36v-1.589c0-.084-.038-.125-.116-.125h-.43c-.06 0-.094.03-.094.091v.187c0 .065.033.095.093.095h.176v1.341c0 .069.03.103.094.103h.183c.064 0 .094-.034.094-.103zm-.992-.29v-1.299c0-.084-.037-.125-.116-.125h-.52c-.063 0-.093.03-.093.091v.187c0 .065.03.095.093.095h.27v.968c0 .068-.034.102-.101.102h-.36c-.056 0-.085.031-.085.096v.187c0 .06.033.091.105.091h.44a.352.352 0 00.27-.11.414.414 0 00.097-.282zm-1.249.29v-1.589c0-.084-.037-.125-.116-.125h-.43c-.06 0-.093.03-.093.091v.187c0 .065.033.095.093.095h.176v1.341c0 .069.03.103.093.103h.184c.063 0 .093-.034.093-.103zm-.991 0v-1.318c0-.263-.12-.396-.355-.396h-1.111c-.064 0-.094.03-.094.091v.187c0 .065.034.095.094.095h.213l-.071.164a.675.675 0 00-.053.278v.628h-.21c-.059 0-.089.031-.089.092v.187c0 .064.03.095.09.095h.464c.086 0 .1-.046.1-.114v-.918c0-.115.016-.19.038-.26l.034-.11c.007-.023.015-.042.03-.042h.46c.06 0 .09.035.09.095v1.246c0 .069.03.103.093.103h.183c.064 0 .094-.034.094-.103zm-2.875-.743v-.846c0-.084-.037-.125-.115-.125h-.43c-.06 0-.094.03-.094.091v.187c0 .065.034.095.093.095h.176v.598c0 .069.03.103.094.103h.183c.064 0 .093-.034.093-.103zm-.923-.899c0-.05-.022-.072-.064-.072h-.224c-.06 0-.094.03-.112.088l-.352 1.25c-.018.071-.068.105-.15.105h-.374c-.056 0-.09-.034-.104-.102l-.053-.263h.083c.15 0 .243-.068.288-.206l.24-.754c.007-.015.007-.03.007-.046 0-.05-.023-.072-.071-.072h-.191c-.064 0-.105.034-.127.099l-.21.67c-.015.05-.034.077-.052.077h-.011l-.15-.743c-.015-.069-.045-.103-.094-.103h-.344c-.06 0-.09.03-.09.091v.187c0 .065.03.095.09.095h.116l.213 1.07a.63.63 0 00.109.283c.052.06.138.091.25.091h.52c.139 0 .247-.038.322-.118a.784.784 0 00.164-.324l.367-1.26c.004-.016.004-.027.004-.043zm-2.499 1.642v-1.284c0-.285-.142-.43-.426-.43h-.74c-.06 0-.094.03-.094.091v.187c0 .065.034.095.093.095h.677c.082 0 .12.042.12.118v1.223c0 .069.03.103.093.103h.184c.063 0 .093-.034.093-.103zm-1.612 0v-1.589c0-.084-.037-.125-.116-.125h-.43c-.06 0-.093.03-.093.091v.187c0 .065.033.095.093.095h.176v1.341c0 .069.03.103.093.103h.184c.063 0 .093-.034.093-.103zm-.99-.454v-1.096c0-.11-.053-.164-.158-.164h-.28a.241.241 0 00-.131.027.368.368 0 00-.098.095l-.273.327a.075.075 0 00-.019.054c0 .034.012.06.038.08l.154.121c.037.028.074.02.108-.03l.27-.354.022.004v.975a.15.15 0 01-.046.107c-.03.034-.059.05-.097.05h-.463a.137.137 0 01-.109-.047.144.144 0 01-.045-.106v-1.208c0-.065-.033-.095-.1-.095h-.364c-.06 0-.093.03-.093.091v.187c0 .065.034.095.093.095h.098v.945c0 .156.052.282.157.377.1.088.228.133.381.133h.416a.503.503 0 00.392-.16.571.571 0 00.146-.408zm-1.96-.906v-.229c0-.084-.038-.125-.117-.125h-.886v-.366c0-.065-.034-.099-.094-.099H9.87c-.07 0-.105.027-.105.084v.651c0 .069.03.103.09.103h.86l-.58 1.265a.107.107 0 00-.007.08c.008.027.023.045.045.053l.187.065c.06.019.101.003.124-.053l.654-1.429z"/>
    </g>
</svg>
