<svg width="19" height="19" xmlns="http://www.w3.org/2000/svg">
    <g fill="none" fill-rule="evenodd">
        <path d="M5.336 5.765c-5.424-3.7-6.882-1.562-1.459 2.137l.066 5.01a.356.356 0 00.158.349l.37.229a.364.364 0 00.31.05.314.314 0 00.209-.207l1.204-3.92c1.11.684 2.19 1.298 3.094 1.758l.531 1.845a.37.37 0 00.154.221l.458.31c.102.07.23.085.337.04a.308.308 0 00.193-.256l.119-.992 4.322 3.141.588-.809-4.68-3.4 1.665-.892a.308.308 0 00.16-.204l.008-.069a.36.36 0 00-.16-.3l-.457-.314a.368.368 0 00-.26-.062l-1.913.18a44.164 44.164 0 00-2.765-2.24l3.21-2.551a.315.315 0 00.117-.272.363.363 0 00-.16-.268l-.349-.262a.356.356 0 00-.381-.02zm11.787 9.27l-.966.26.259.965.966-.259z"
              fill="#004BC1"/>
        <path d="M0 0h19v19H0z"/>
    </g>
</svg>
