<svg xmlns="http://www.w3.org/2000/svg" width="28" height="20">
    <path fill="#363D50"
          d="M9.3 3.847c2.66-2.44 5.815-3.52 9.37-2.429l.309.1c2.616.9 4.377 2.713 5.414 5.151.478 1.124.776 2.322.929 3.533.101.807.127 1.507.11 2.042l-.005.112a.5.5 0 01-.879.295c-.613-.713-1.462-1.264-2.445-1.566-.981-.301-1.994-.322-2.9-.076a.5.5 0 01-.485-.129l-.04-.04a5.144 5.144 0 00-1.973-1.39l-2.252 6.715a3.897 3.897 0 011.583.59l.188.13c.623.457 1.355.71 2.11.739.67.024 1.336-.13 1.936-.454l.222-.129c.452-.282.95-.467 1.51-.55l.282-.035a3.868 3.868 0 012.568.746.5.5 0 01-.592.806 2.856 2.856 0 00-1.858-.56l-.114.013-.01-.001a2.895 2.895 0 00-1.06.317l-.196.112a4.794 4.794 0 01-2.725.734 4.8 4.8 0 01-2.665-.932 2.866 2.866 0 00-3.057-.223l-.18.104a4.786 4.786 0 01-5.19-.057l-.202-.14a2.867 2.867 0 00-3.238-.12.5.5 0 11-.53-.848 3.867 3.867 0 014.173.032l.187.129c1.204.883 2.78.98 4.077.27l.192-.114a3.896 3.896 0 011.535-.559l2.34-6.98a8.504 8.504 0 00-1.331-.042c-.279.01-.553.028-.809.05l-.24.025c-.06.016-.09.024-.059.004l-.072.01a.512.512 0 01-.268-.068l-.078-.056a6.498 6.498 0 00-.16-.136l-.417-.335a13.813 13.813 0 00-.534-.392 8.954 8.954 0 00-.665-.426 3.67 3.67 0 00-.717-.33c-.982-.302-1.994-.322-2.903-.076a.5.5 0 01-.562-.737l.163-.255A14.595 14.595 0 019.3 3.847zm10.459-.915l.076.141c.998 1.951 1.014 4.56.002 6.804a6.3 6.3 0 012.268.17l.291.082a6.469 6.469 0 011.856.91l.157.118-.021-.287-.026-.266-.033-.277a12.281 12.281 0 00-.856-3.266c-.777-1.827-1.989-3.246-3.714-4.13zm-1.554-.466l-.038.01c-2.225.58-4.077 2.976-4.409 5.701.812-.071 1.97-.048 2.645.116l.136.038a6.34 6.34 0 012.491 1.43l-.17-.153c1.177-2.468.91-5.47-.655-7.142zm-1.58-.441c-2.46-.219-4.682.754-6.649 2.559a13.675 13.675 0 00-1.636 1.8l.102-.13.195-.009c.463-.01.934.03 1.403.125l.351.08.291.083c.281.086.588.228.92.418.239.137.487.296.741.473.158.11.314.224.466.34.38-2.425 1.816-4.592 3.712-5.68z"
          fill-rule="evenodd"/>
</svg>
