<svg xmlns="http://www.w3.org/2000/svg" width="40" height="40" viewBox="0 0 40 40">
    <g fill="none" fill-rule="evenodd">
        <g fill="#000">
            <g>
                <path d="M11.945 10.33l8.164 8.076 7.946-7.86c.415-.41 1.064-.438 1.512-.087l.1.088.008.008c.435.44.431 1.15-.009 1.585L21.72 20l7.946 7.86c.44.435.444 1.144.009 1.585l-.009.008c-.446.442-1.164.442-1.61 0l-7.947-7.86-8.164 8.077c-.415.41-1.064.44-1.512.088l-.1-.088-.008-.009c-.435-.44-.431-1.15.009-1.585L18.498 20l-8.164-8.076c-.44-.436-.444-1.145-.009-1.585l.009-.009c.446-.441 1.164-.441 1.61 0z" transform="translate(-1840.000000, -56.000000) translate(1840.000000, 56.000000)"/>
            </g>
        </g>
    </g>
</svg>
