<svg width="157" height="28" xmlns="http://www.w3.org/2000/svg">
    <path d="M82.086 8.668c1.912 0 3.1 1.228 3.1 3.203v6.424c0 2.14-1.177 3.42-3.148 3.42-1.97 0-3.1-1.23-3.1-3.372v-6.352c0-2.018 1.236-3.323 3.148-3.323zm42.374 0c1.912 0 3.1 1.228 3.1 3.203v6.424c0 2.14-1.177 3.42-3.148 3.42-1.97 0-3.1-1.23-3.1-3.372v-6.352c0-2.018 1.236-3.323 3.148-3.323zm-17.36 0c2.114 0 2.863 1.442 2.863 2.676v1.43h-1.264V11.44c0-.367-.115-1.566-1.598-1.566-1.571 0-1.74 1.38-1.74 1.974v6.615c0 .923.297 2.022 1.716 2.022 1.34 0 1.622-.917 1.622-1.686V17.56h1.264v1.358c0 1.724-1.124 2.795-2.933 2.795-1.925 0-3.029-1.22-3.029-3.347v-6.376c0-2.05 1.188-3.323 3.1-3.323zm-7.91 0c1.778 0 2.84 1.225 2.84 3.276v3.586h-4.628v2.478c0 1.743.608 2.453 2.097 2.453.787 0 1.493-.296 1.956-.519l.084-.04.415 1.064-.06.04c-.693.45-1.627.708-2.561.708-2.152 0-3.29-1.207-3.29-3.49v-6.04c0-2.169 1.206-3.516 3.148-3.516zM73.4 5.714c2.468 0 3.574 1.633 3.574 3.252v2.052h-1.289V9.253c0-1.452-.841-2.286-2.31-2.286-2.092 0-2.404 1.613-2.404 2.574v8.323c0 1.644.87 2.549 2.452 2.549 1.668 0 2.262-1.156 2.262-2.237v-1.813h1.289v1.884c0 2.106-1.394 3.467-3.55 3.467-2.417 0-3.86-1.35-3.86-3.61V9.468c0-2.281 1.505-3.755 3.835-3.755zm40.6.244v2.974h2.017v1.23h-2.018v9.427c0 .686.249.824.65.824.29 0 .67-.07 1.017-.187l.113-.038v1.164l-.056.021c-.513.191-.893.27-1.311.27-1.126 0-1.771-.627-1.771-1.718v-9.764h-1.305V8.932h1.305V5.958h1.358zm-20.698 0v13.631c0 .281.1.753.768.753.206 0 .415-.024.622-.07l.105-.024v1.178l-.059.02a3.212 3.212 0 0 1-1.047.172c-1.127 0-1.748-.635-1.748-1.789V5.958h1.359zm-4.418 0v13.631c0 .281.1.753.768.753.207 0 .416-.024.622-.07l.105-.024v1.178l-.059.02a3.212 3.212 0 0 1-1.047.172c-1.127 0-1.747-.635-1.747-1.789V5.958h1.358zM41.801 8.98c.813 0 1.506.249 2.06.739.56.494.843 1.195.843 2.082v6.942c0 .887-.284 1.587-.843 2.081-.554.49-1.247.738-2.06.738-.812 0-1.505-.248-2.06-.738-.558-.494-.842-1.194-.842-2.081v-6.942c0-.887.284-1.588.843-2.082.554-.49 1.247-.739 2.06-.739zm7.757-3.024.002 3.027h1.807v1.962h-1.805L49.56 19.6h1.74v1.714l-.084.033c-.365.14-.751.21-1.147.21-.812 0-1.452-.244-1.9-.727-.448-.48-.675-1.165-.675-2.036v-7.847h-1.189V8.984l1.188-.003.001-3.023h2.063zm13.325 0V19.6h1.14v1.87a2.38 2.38 0 0 1-.632.088c-.812 0-1.45-.245-1.9-.728-.447-.48-.675-1.165-.675-2.036V5.957h2.067zM28.415 8.985c.828 0 1.524.249 2.072.739.551.494.83 1.194.83 2.081v1.387h-2.08v-2.247h-1.643v1.89c0 .263.112.494.344.708.25.232.556.452.908.655.365.21.734.442 1.095.688.376.256.702.609.97 1.049.27.444.407.961.407 1.535v1.277c0 .842-.283 1.527-.842 2.036-.554.505-1.248.762-2.06.762-.8 0-1.489-.257-2.05-.762-.566-.509-.853-1.193-.853-2.036v-1.415h2.08v2.266h1.644V17.47c0-.314-.178-.623-.529-.916a6.265 6.265 0 0 0-1.259-.812c-.488-.238-.936-.612-1.331-1.11-.401-.507-.605-1.112-.605-1.797v-1.03c0-.887.283-1.587.842-2.082.555-.49 1.248-.738 2.06-.738zm27.511-.012c.804 0 1.49.249 2.038.739.553.494.834 1.195.834 2.081v1.03c0 .686-.202 1.29-.599 1.797-.39.498-.833.872-1.317 1.111a6.194 6.194 0 0 0-1.246.811c-.347.294-.523.602-.523.917v2.14h1.626v-2.27h2.06v1.407c0 .842-.285 1.527-.845 2.036-.556.505-1.238.761-2.028.761-.804 0-1.49-.256-2.04-.762-.551-.509-.832-1.194-.832-2.035v-6.943c0-.886.277-1.586.823-2.08.54-.491 1.23-.74 2.05-.74zM23.488 5.957v15.44h-2.06V5.958h2.06zm11.935 3.025v.814l.065-.064c.555-.498 1.248-.75 2.06-.75v1.964h-2.125v10.452H33.36V8.982h2.062zm83.763-.05v12.462h-1.359V8.932h1.359zm14.307-.264c1.328 0 2.221.893 2.221 2.22v10.506h-1.359v-9.93c0-1.04-.47-1.59-1.36-1.59-1.138 0-1.93 1.38-1.93 2.62v8.9h-1.36V8.908h1.263l.02 1.165a2.902 2.902 0 0 1 2.505-1.405zm-9.08 1.206c-1.572 0-1.741 1.414-1.741 2.022v6.495c0 1.013.47 2.094 1.788 2.094 1.438 0 1.74-1.138 1.74-2.094v-6.52c0-1.25-.668-1.997-1.788-1.997zm-42.375 0c-1.57 0-1.74 1.414-1.74 2.022v6.495c0 1.013.47 2.094 1.788 2.094 1.438 0 1.74-1.138 1.74-2.094v-6.52c0-1.25-.668-1.997-1.788-1.997zm-39.416 1.068h-1.644l-.002 8.653h1.644l.002-8.653zm14.117.004h-1.626v3.473c.129-.08.258-.158.387-.233a4.97 4.97 0 0 0 .898-.654c.23-.215.341-.446.341-.708v-1.878zm42.333-1.048c-1.23 0-1.67 1.044-1.67 2.021v2.43h3.316V11.87c0-.737-.214-1.973-1.646-1.973zm20.117-3.94v1.378h-1.364V5.958h1.364z" fill="#002D74" fill-rule="evenodd"/>
</svg>
