<svg width="137" height="28" xmlns="http://www.w3.org/2000/svg">
    <defs>
        <filter color-interpolation-filters="auto" id="a">
            <feColorMatrix in="SourceGraphic" values="0 0 0 0 1.000000 0 0 0 0 1.000000 0 0 0 0 1.000000 0 0 0 1.000000 0"/>
        </filter>
    </defs>
    <g fill="none" fill-rule="evenodd">
        <rect width="135.287" height="31.832" rx="15.916" transform="translate(.784)"/>
        <g filter="url(#a)" transform="translate(.325)">
            <g fill="#FFF">
                <path d="M75.126 5.305h-3.723l.017 17.947h3.65c2.393 0 3.82-1.631 3.82-4.362l-.016-9.587c0-2.503-1.401-3.998-3.748-3.998zM72.84 6.8h2.166c1.793 0 2.432 1.38 2.432 2.672l.016 9.503c0 1.285-.643 2.785-2.456 2.785h-2.142l-.016-14.96zM32.024 9.676c-.552-.566-1.255-.853-2.089-.853-.819 0-1.517.287-2.076.853-.564.57-.85 1.378-.85 2.402v1.188c0 .791.206 1.489.61 2.073.398.576.85 1.007 1.342 1.282.466.26.892.576 1.27.937.353.339.533.695.533 1.058v2.455h-1.657v-2.615h-2.098v1.633c0 .972.29 1.762.86 2.35a2.787 2.787 0 0 0 2.066.878c.82 0 1.52-.296 2.078-.879.563-.587.848-1.378.848-2.35v-1.472c0-.663-.138-1.26-.41-1.773-.27-.508-.599-.915-.978-1.21a17.936 17.936 0 0 0-1.103-.795 5.186 5.186 0 0 1-.915-.754c-.234-.248-.348-.515-.348-.818v-2.18h1.657v2.592h2.097v-1.6c0-1.024-.282-1.831-.837-2.402M44.256 21.067h-1.657l.002-9.986h1.657m1.25-1.41c-.56-.565-1.258-.851-2.077-.851-.82 0-1.518.286-2.077.851-.563.571-.85 1.38-.85 2.403v8.01c0 1.025.287 1.833.85 2.403.56.566 1.258.852 2.077.852s1.518-.286 2.076-.852c.564-.57.85-1.378.85-2.402v-8.011c0-1.023-.286-1.832-.85-2.403M22.892 23.148h2.076V5.329h-2.076zM39.143 8.82c-.82 0-1.518.29-2.077.866-.023.023-.044.048-.066.073v-.94H34.92v14.329H37V11.086h2.143V8.82zM56.851 11.086h1.64v2.167c0 .303-.113.57-.345.817-.25.267-.554.521-.905.756a16.3 16.3 0 0 0-.39.269v-4.009zm2.874-1.424c-.553-.565-1.244-.852-2.054-.852-.825 0-1.52.287-2.066.853-.55.571-.83 1.379-.83 2.401v8.012c0 .971.283 1.761.84 2.348a2.73 2.73 0 0 0 2.056.88 2.74 2.74 0 0 0 2.044-.879c.565-.587.851-1.377.851-2.35v-1.623H58.49v2.62h-1.639v-2.47c0-.363.177-.719.527-1.057.373-.36.796-.676 1.256-.937.488-.275.935-.707 1.328-1.282.4-.585.604-1.282.604-2.073v-1.189c0-1.023-.283-1.83-.84-2.402zM64.684 21.072V5.329h-2.083v14.813c0 1.004.229 1.796.68 2.35.453.556 1.097.84 1.916.84.253 0 .395-.038.637-.102v-2.158h-1.15zM53.075 8.823h-1.822l-.003-3.494h-2.08v3.49l-1.198.004v2.263h1.199v9.057c0 1.004.229 1.795.68 2.349.452.557 1.097.84 1.916.84.399 0 .788-.083 1.156-.244l.085-.038v-1.978h-1.754v-9.986h1.82V8.823zM84.21 8.455c-1.945 0-3.154 1.546-3.154 4.033v6.932c0 2.62 1.14 4.005 3.298 4.005.936 0 1.872-.296 2.568-.814l.06-.044-.417-1.222-.084.046c-.464.256-1.172.596-1.96.596-1.493 0-2.103-.815-2.103-2.815V16.33h4.639v-4.116c0-2.353-1.064-3.758-2.846-3.758m-.119 1.41c1.435 0 1.65 1.42 1.65 2.266v2.843h-3.324v-2.788c0-1.122.44-2.32 1.674-2.32M104.867 9.787c-.453-.917-1.369-1.332-2.157-1.332-1.333 0-2.679 1.026-2.679 3.318v7.95c0 1.965.987 3.234 2.513 3.234.746 0 1.718-.505 2.221-1.606v2.497c0 1.722-.7 2.595-2.078 2.595-.687 0-1.317-.17-2.106-.57l-.08-.04-.495 1.336.074.041c.793.445 1.59.643 2.583.643 1.042 0 1.91-.358 2.507-1.036.635-.72.957-1.755.957-3.08V8.702h-1.242l-.018 1.085zm-.102 2.922v5.885c0 1.56-.882 2.926-1.888 2.926-1.29 0-1.483-1.248-1.483-1.99v-7.647c0-1.334.523-2.1 1.435-2.1.895 0 1.936 1.278 1.936 2.926zM112.23 8.455c-1.045 0-1.98.609-2.511 1.613l-.02-1.338h-1.265v14.448h1.362V12.846c0-1.423.795-3.008 1.935-3.008.893 0 1.365.631 1.365 1.825v11.515h1.362V11.004c0-1.525-.895-2.549-2.227-2.549M91.727 9.838c.899 0 1.301.6 1.437 2.138l.008.094 1.31-.063-.004-.101c-.092-2.175-1.069-3.423-2.68-3.423-1.684 0-2.773 1.205-2.773 3.07 0 1.377.578 2.473 1.446 3.694l1.166 1.65c.588.833 1.479 2.09 1.479 3.265 0 1.195-.51 1.852-1.436 1.852-.977 0-1.449-.636-1.627-2.195l-.01-.087h-1.357l.005.107c.13 2.262 1.21 3.559 2.965 3.559 1.906 0 2.775-1.706 2.775-3.291 0-1.272-.529-2.616-1.614-4.107l-1.428-1.98c-.746-1.02-1.05-1.766-1.05-2.577 0-.975.545-1.605 1.388-1.605M96.424 23.143h1.37V8.77h-1.37zM96.416 6.925h1.35V5.363h-1.35z"/>
            </g>
        </g>
    </g>
</svg>
