<svg width="151" height="29" xmlns="http://www.w3.org/2000/svg">
    <g fill="#000" fill-rule="evenodd">
        <path d="M29.479 10.555c-.547-.495-1.244-.746-2.07-.746-.813 0-1.505.251-2.06.745-.558.499-.842 1.205-.842 2.1v1.038c0 .691.204 1.301.605 1.812.395.503.842.88 1.33 1.12.462.228.885.504 1.26.819.35.296.528.607.528.924v2.146h-1.643v-2.285h-2.08v1.426c0 .85.287 1.54.853 2.054.561.51 1.25.768 2.048.768.813 0 1.506-.259 2.06-.769.558-.513.841-1.204.841-2.053v-1.287c0-.579-.137-1.1-.407-1.549a3.38 3.38 0 0 0-.97-1.057c-.36-.248-.728-.482-1.093-.695a5.058 5.058 0 0 1-.907-.66c-.232-.216-.345-.449-.345-.714v-1.906h1.642v2.266h2.08v-1.398c0-.895-.28-1.6-.83-2.1M41.605 20.51h-1.642l.002-8.727h1.642m1.239-1.232c-.554-.494-1.246-.745-2.059-.745-.812 0-1.504.25-2.058.745-.559.499-.843 1.205-.843 2.1v7c0 .895.284 1.601.843 2.1.554.494 1.246.744 2.058.744.813 0 1.505-.25 2.059-.744.56-.499.842-1.205.842-2.1v-7c0-.895-.283-1.601-.842-2.1M20.425 22.328h2.059V6.757h-2.059zM36.536 9.806c-.812 0-1.504.255-2.058.757-.023.02-.044.043-.066.064v-.82h-2.06v12.52h2.06v-10.54h2.124v-1.98zM54.092 11.787h1.626v1.894c0 .265-.112.498-.342.714a4.969 4.969 0 0 1-.897.66c-.129.076-.258.154-.387.235v-3.503zm2.85-1.245c-.548-.493-1.234-.744-2.037-.744-.818 0-1.508.25-2.048.745-.546.5-.822 1.205-.822 2.099v7.001c0 .849.28 1.54.832 2.053.548.51 1.234.768 2.038.768.79 0 1.471-.258 2.026-.768.56-.513.844-1.203.844-2.053v-1.419h-2.057v2.29h-1.626v-2.158c0-.318.176-.629.523-.925.37-.315.79-.59 1.245-.818.484-.24.926-.618 1.317-1.12.397-.512.598-1.121.598-1.812v-1.04c0-.893-.28-1.6-.833-2.099zM61.858 20.514V6.756h-2.065v12.945c0 .878.227 1.57.674 2.054.449.486 1.088.733 1.899.733.25 0 .392-.032.632-.089v-1.885h-1.14zM50.348 9.809h-1.806l-.002-3.053h-2.062v3.05l-1.188.003v1.978h1.188v7.914c0 .878.227 1.57.674 2.054.449.486 1.088.733 1.9.733.395 0 .78-.071 1.146-.213l.084-.033v-1.728h-1.739v-8.727h1.805V9.81zM87.183 9.504c-1.911 0-3.098 1.283-3.098 3.348v6.424c0 2.143 1.103 3.372 3.026 3.372 1.81 0 2.933-1.079 2.933-2.816v-1.368H88.78v1.247c0 .775-.281 1.699-1.622 1.699-1.417 0-1.715-1.108-1.715-2.037v-6.666c0-.598.17-1.99 1.74-1.99 1.482 0 1.597 1.21 1.597 1.58v1.343h1.264V12.2c0-1.243-.75-2.696-2.861-2.696M94.23 21.265c-.667 0-.768-.474-.768-.757V6.756h-1.358V20.75c0 1.163.62 1.803 1.746 1.803.36 0 .703-.057 1.048-.173l.059-.02V21.17l-.106.024c-.205.046-.414.07-.62.07M69.967 14.81h3.887V13.5h-3.887V8.066h4.828v-1.31h-6.26v15.522h6.284v-1.31h-4.852zM101.369 18.793c0 1.25-.793 2.641-1.93 2.641-.915 0-1.36-.5-1.36-1.53V9.745h-1.358v10.666c0 1.353.883 2.261 2.197 2.261 1.06 0 1.982-.532 2.527-1.441l.02 1.076h1.262V9.745h-1.358v9.048zM82.615 9.745h-1.278l-1.79 4.861-1.768-4.804-.022-.057H76.29l2.43 6.198-2.513 6.243-.05.121h1.327l1.945-5.012 1.878 4.934.021.056h1.444l-2.514-6.415zM118.938 19.757l-1.874-10.012h-1.41l2.535 12.503.014.07h1.374l2.552-12.467.021-.106h-1.315zM129.564 16.418v-3.614c0-2.066-1.06-3.3-2.837-3.3-1.94 0-3.145 1.357-3.145 3.541v6.086c0 2.301 1.137 3.517 3.287 3.517.935 0 1.868-.26 2.56-.714l.06-.039-.415-1.072-.083.04c-.463.225-1.17.523-1.955.523-1.49 0-2.097-.717-2.097-2.472v-2.496h4.625zm-4.625-3.638c0-.985.44-2.038 1.67-2.038 1.43 0 1.645 1.246 1.645 1.99v2.495h-3.315V12.78zM107.772 10.718c.895 0 1.297.526 1.432 1.877l.008.083 1.307-.056-.004-.088c-.092-1.91-1.066-3.006-2.672-3.006-1.68 0-2.766 1.058-2.766 2.696 0 1.209.577 2.17 1.443 3.244l1.161 1.449c.588.73 1.475 1.834 1.475 2.866 0 1.049-.508 1.627-1.431 1.627-.975 0-1.445-.559-1.623-1.928l-.01-.076h-1.353l.006.093c.129 1.986 1.206 3.126 2.956 3.126 1.332 0 2.766-.905 2.766-2.89 0-1.118-.526-2.298-1.609-3.607l-1.423-1.739c-.743-.895-1.047-1.55-1.047-2.261 0-.857.544-1.41 1.384-1.41M112.475 22.307h1.358V9.745h-1.358zM112.467 8.134h1.339V6.768h-1.34z"/>
    </g>
</svg>
