<svg xmlns="http://www.w3.org/2000/svg" width="79" height="18" viewBox="0 0 79 18">
    <g fill="none" fill-rule="evenodd">
        <g fill="#FFF">
            <g>
                <g>
                    <g>
                        <g>
                            <path d="M44.308 0H41.15l.014 13.174h3.097c2.03 0 3.24-1.197 3.24-3.201l-.014-7.038C47.487 1.097 46.3 0 44.308 0zm-1.94 1.096h1.838c1.521 0 2.063 1.014 2.063 1.962l.014 6.976c0 .943-.546 2.044-2.084 2.044h-1.816l-.014-10.982zM7.746 3.208c-.468-.415-1.064-.626-1.771-.626-.695 0-1.287.21-1.762.626-.478.419-.72 1.012-.72 1.764v.872c0 .58.174 1.093.517 1.522.338.422.72.739 1.139.94.394.192.756.424 1.076.688.3.25.453.51.453.777v1.803H5.271v-1.92h-1.78v1.198c0 .714.246 1.294.73 1.725.48.428 1.07.646 1.753.646.695 0 1.288-.218 1.762-.646.478-.431.72-1.012.72-1.725v-1.08c0-.487-.117-.925-.348-1.302-.23-.373-.508-.672-.83-.888-.308-.208-.624-.405-.936-.584-.3-.172-.562-.358-.776-.554-.198-.181-.295-.378-.295-.6V4.243h1.405v1.903h1.78V4.972c0-.752-.24-1.345-.71-1.764M18.122 11.57h-1.405l.002-7.33h1.405m1.06-1.035c-.474-.415-1.067-.625-1.762-.625-.694 0-1.287.21-1.76.625-.479.42-.722 1.012-.722 1.764v5.88c0 .752.243 1.346.721 1.764.474.415 1.067.626 1.761.626.695 0 1.288-.21 1.762-.626.478-.418.72-1.012.72-1.764V4.97c0-.752-.242-1.345-.72-1.764M0 13.098L1.761 13.098 1.761.017 0 .017zM13.785 2.58c-.695 0-1.287.213-1.761.636-.02.017-.038.035-.057.053v-.69h-1.763V13.1h1.763V4.243h1.818V2.58zM28.806 4.244h1.391v1.59c0 .223-.096.419-.292.6-.212.196-.47.383-.768.555-.11.063-.22.13-.33.197V4.244zm2.438-1.046c-.469-.415-1.055-.625-1.743-.625-.7 0-1.29.21-1.752.626-.467.42-.703 1.012-.703 1.763v5.88c0 .714.24 1.294.712 1.725.469.429 1.056.646 1.743.646.676 0 1.26-.217 1.734-.645.48-.431.723-1.011.723-1.725V9.65h-1.761v1.923h-1.39V9.761c0-.266.15-.528.446-.776.317-.265.676-.496 1.066-.687.414-.203.792-.52 1.126-.942.34-.43.513-.941.513-1.522v-.872c0-.752-.24-1.345-.714-1.764zM35.45 11.574L35.452.017h-1.767v10.875c0 .737.194 1.318.576 1.725.385.408.931.616 1.626.616.214 0 .335-.027.54-.075v-1.584h-.975zM25.603 2.582h-1.545L24.056.017h-1.764L22.29 2.58l-1.016.003v1.661h1.017v6.649c0 .737.194 1.318.576 1.725.384.408.931.616 1.625.616.339 0 .669-.06.981-.179l.072-.028v-1.452h-1.488v-7.33h1.545V2.582zM52.014 2.312c-1.65 0-2.676 1.135-2.676 2.96v5.09c0 1.923.968 2.94 2.797 2.94.795 0 1.589-.218 2.18-.598l.05-.032-.354-.897-.071.034c-.393.188-.994.437-1.663.437-1.266 0-1.783-.598-1.783-2.066V8.092h3.934V5.071c0-1.728-.902-2.759-2.414-2.759m-.1 1.035c1.217 0 1.4 1.042 1.4 1.664v2.086h-2.82V5.051c0-.824.373-1.704 1.42-1.704M69.536 3.29c-.384-.673-1.161-.978-1.83-.978-1.13 0-2.272.753-2.272 2.436v5.836c0 1.442.837 2.374 2.132 2.374.632 0 1.456-.37 1.884-1.18v1.834c0 1.264-.594 1.905-1.763 1.905-.583 0-1.117-.125-1.787-.418l-.067-.03-.42.981.063.03c.672.327 1.348.472 2.19.472.885 0 1.62-.262 2.127-.76.539-.528.812-1.289.812-2.261V2.494H69.55l-.015.796zm-.086 2.145v4.32c0 1.145-.749 2.148-1.602 2.148-1.095 0-1.258-.916-1.258-1.461V4.829c0-.98.444-1.542 1.218-1.542.759 0 1.642.938 1.642 2.148zM75.782 2.312c-.886 0-1.68.447-2.13 1.184l-.017-.982h-1.074V13.12h1.156V5.536c0-1.045.674-2.209 1.642-2.209.757 0 1.157.464 1.157 1.34v8.453h1.156V4.183c0-1.12-.76-1.87-1.89-1.87M58.39 3.327c.762 0 1.104.44 1.219 1.57l.007.069 1.111-.047-.004-.074c-.077-1.597-.906-2.513-2.272-2.513-1.43 0-2.353.885-2.353 2.254 0 1.011.49 1.816 1.226 2.712l.99 1.212c.499.61 1.254 1.534 1.254 2.396 0 .877-.433 1.36-1.218 1.36-.829 0-1.229-.467-1.38-1.612l-.008-.063H55.81l.005.078c.11 1.66 1.026 2.613 2.515 2.613 1.617 0 2.353-1.253 2.353-2.416 0-.934-.448-1.92-1.369-3.015l-1.21-1.454c-.633-.748-.891-1.296-.891-1.891 0-.716.462-1.179 1.177-1.179M62.374 13.095L63.536 13.095 63.537 2.542 62.375 2.542zM62.368 1.189L63.513 1.189 63.513.042 62.368.042z" transform="translate(-1530 -1983) translate(270 1697) translate(552.5 268) translate(687 15) translate(21.069 3.667)"/>
                        </g>
                    </g>
                </g>
            </g>
        </g>
    </g>
</svg>
