<svg xmlns="http://www.w3.org/2000/svg" xmlns:xlink="http://www.w3.org/1999/xlink" width="94" height="15" viewBox="0 0 94 15">
    <defs>
        <path id="q1da3aj1ga" d="M0 13.37L93.382 13.37 93.382 0 0 0z"/>
    </defs>
    <g fill="none" fill-rule="evenodd">
        <g>
            <g>
                <g>
                    <g>
                        <g transform="translate(-1523 -1814) translate(270 1697) translate(1.5 98) translate(1238 15) translate(13.74 4.583)">
                            <path fill="#FFF" d="M7.746 3.19c-.468-.414-1.064-.625-1.771-.625-.695 0-1.287.21-1.762.625-.478.42-.72 1.013-.72 1.764v.872c0 .581.174 1.093.517 1.522.338.423.72.74 1.139.942.394.191.756.423 1.076.687.3.248.453.51.453.776v1.803H5.271v-1.92h-1.78v1.199c0 .714.246 1.294.73 1.725.48.428 1.07.645 1.753.645.695 0 1.288-.217 1.762-.646.478-.43.72-1.011.72-1.724V9.753c0-.486-.117-.924-.348-1.3-.23-.373-.508-.672-.83-.89-.308-.207-.624-.403-.936-.582-.3-.172-.562-.359-.776-.555-.198-.181-.295-.377-.295-.6v-1.6h1.405v1.903h1.78V4.954c0-.751-.24-1.344-.71-1.763M18.122 11.553h-1.405l.002-7.33h1.405m1.06-1.036c-.474-.414-1.067-.625-1.762-.625-.694 0-1.287.21-1.761.625-.478.42-.72 1.013-.72 1.764v5.881c0 .752.242 1.345.72 1.764.474.415 1.067.625 1.761.625.695 0 1.288-.21 1.762-.625.478-.42.72-1.012.72-1.764v-5.88c0-.752-.242-1.345-.72-1.765"/>
                            <mask id="2ps9h23nub" fill="#fff">
                                <use xlink:href="#q1da3aj1ga"/>
                            </mask>
                            <path fill="#FFF" d="M0 13.081L1.761 13.081 1.761 0 0 0zM13.785 2.562c-.695 0-1.287.214-1.761.636-.02.017-.038.036-.057.054v-.69h-1.763V13.08h1.763V4.226h1.818V2.562zM28.806 4.226h1.391v1.59c0 .223-.096.42-.292.6-.212.197-.47.383-.768.555-.11.064-.22.13-.33.198V4.226zm2.438-1.045c-.469-.415-1.055-.626-1.743-.626-.7 0-1.29.21-1.752.626-.467.42-.703 1.012-.703 1.763v5.881c0 .713.24 1.294.712 1.725.469.428 1.056.645 1.743.645.676 0 1.26-.217 1.734-.645.48-.43.723-1.01.723-1.725V9.633h-1.761v1.924h-1.39V9.744c0-.267.15-.528.446-.777.317-.264.676-.496 1.066-.687.414-.202.792-.519 1.126-.941.34-.43.513-.942.513-1.522v-.873c0-.751-.24-1.344-.714-1.763zM35.45 11.557L35.452 0h-1.767v10.874c0 .738.194 1.318.576 1.725.385.408.931.616 1.625.616.215 0 .336-.027.541-.075v-1.583h-.975zM25.603 2.564h-1.546L24.056 0h-1.764l-.001 2.562-1.016.002v1.662h1.017v6.648c0 .738.193 1.318.576 1.725.384.409.931.616 1.625.616.339 0 .669-.06.981-.178l.072-.028v-1.452h-1.488v-7.33h1.545V2.563zM57.12 2.308c-1.636 0-2.651 1.078-2.651 2.813v5.396c0 1.8.943 2.833 2.59 2.833 1.547 0 2.508-.907 2.508-2.366v-1.15h-1.08v1.048c0 .652-.242 1.427-1.389 1.427-1.212 0-1.467-.93-1.467-1.71v-5.6c0-.502.145-1.671 1.488-1.671 1.269 0 1.367 1.015 1.367 1.326v1.129h1.081v-1.21c0-1.045-.64-2.265-2.448-2.265M63.15 12.188c-.572 0-.658-.399-.658-.636V0H61.33v11.754c0 .977.53 1.515 1.494 1.515.308 0 .602-.048.896-.146l.05-.017v-.997l-.09.02c-.175.039-.354.059-.53.059M42.389 6.765L45.715 6.765 45.715 5.665 42.389 5.665 42.389 1.101 46.52 1.101 46.52 0 41.164 0 41.164 13.039 46.541 13.039 46.541 11.938 42.389 11.938zM69.257 10.111c0 1.05-.678 2.219-1.65 2.219-.784 0-1.164-.42-1.164-1.285V2.51H65.28v8.96c0 1.136.755 1.899 1.879 1.899.906 0 1.696-.447 2.163-1.211l.017.904h1.08V2.511h-1.163v7.6zM53.211 2.511L52.118 2.511 50.586 6.594 49.073 2.559 49.055 2.511 47.799 2.511 49.877 7.717 47.727 12.961 47.685 13.064 48.82 13.064 50.484 8.853 52.091 12.998 52.109 13.045 53.344 13.045 51.193 7.656zM84.29 10.921L82.686 2.511 81.48 2.511 83.649 13.013 83.661 13.072 84.837 13.072 87.02 2.6 87.038 2.511 85.913 2.511zM93.382 8.116V5.08c0-1.736-.908-2.772-2.427-2.772-1.66 0-2.692 1.14-2.692 2.975v5.112c0 1.933.973 2.955 2.813 2.955.8 0 1.598-.219 2.19-.6l.052-.033-.355-.9-.072.033c-.396.189-1 .44-1.673.44-1.274 0-1.793-.602-1.793-2.077V8.116h3.957zM89.425 5.06c0-.827.376-1.712 1.428-1.712 1.224 0 1.407 1.047 1.407 1.671v2.097h-2.835V5.06zM74.736 3.328c.766 0 1.11.442 1.225 1.577l.007.07 1.118-.048-.003-.074c-.079-1.604-.912-2.525-2.286-2.525-1.438 0-2.367.89-2.367 2.265 0 1.016.494 1.824 1.235 2.725l.993 1.217c.503.614 1.262 1.541 1.262 2.408 0 .881-.435 1.366-1.224 1.366-.834 0-1.236-.469-1.389-1.62l-.008-.063h-1.158l.005.079c.11 1.668 1.032 2.625 2.53 2.625 1.14 0 2.366-.76 2.366-2.427 0-.94-.45-1.93-1.376-3.03l-1.219-1.461c-.635-.752-.895-1.302-.895-1.9 0-.72.465-1.184 1.184-1.184M78.76 13.063L79.922 13.063 79.922 2.511 78.76 2.511zM78.753 1.157L79.899 1.157 79.899.01 78.753.01z" mask="url(#2ps9h23nub)"/>
                        </g>
                    </g>
                </g>
            </g>
        </g>
    </g>
</svg>
