<svg xmlns="http://www.w3.org/2000/svg" xmlns:xlink="http://www.w3.org/1999/xlink" width="131" height="24" viewBox="0 0 131 24">
    <defs>
        <filter id="bnea8car6a">
            <feColorMatrix in="SourceGraphic" values="0 0 0 0 0.223529 0 0 0 0 0.278431 0 0 0 0 0.309804 0 0 0 1.000000 0"/>
        </filter>
        <path id="lde34y6e3b" d="M0 18.057L84.792 18.057 84.792 0 0 0z"/>
    </defs>
    <g fill="none" fill-rule="evenodd">
        <g>
            <g>
                <g>
                    <g filter="url(#bnea8car6a)" transform="translate(-845 -713) translate(664 673) translate(172 32) translate(9 8)">
                        <g transform="translate(23 4)">
                            <path fill="#FFF" d="M48.37 0h-3.448l.016 14.372h3.38c2.216 0 3.538-1.306 3.538-3.493l-.016-7.678C51.84 1.197 50.543 0 48.37 0zm-2.117 1.196h2.005c1.66 0 2.252 1.106 2.252 2.14l.016 7.61c0 1.03-.596 2.23-2.275 2.23h-1.983l-.015-11.98zM8.456 3.5c-.51-.453-1.161-.683-1.934-.683-.758 0-1.405.23-1.922.683-.522.457-.787 1.103-.787 1.924v.951c0 .634.19 1.192.565 1.66.368.461.786.807 1.243 1.027.43.209.826.462 1.175.75.328.271.494.556.494.847v1.967H5.756V10.53H3.812v1.308c0 .779.268 1.412.796 1.882.524.466 1.168.704 1.913.704.76 0 1.407-.238 1.925-.705.52-.47.785-1.103.785-1.88v-1.18c0-.531-.128-1.009-.38-1.42-.25-.407-.554-.733-.905-.97-.337-.226-.682-.44-1.022-.636-.329-.187-.614-.39-.848-.604-.216-.198-.322-.412-.322-.655V4.629H7.29v2.076h1.942V5.424c0-.82-.26-1.467-.776-1.924M19.783 12.623H18.25l.002-7.998h1.534m1.157-1.129c-.517-.452-1.164-.682-1.922-.682-.759 0-1.406.23-1.923.682-.522.458-.787 1.105-.787 1.924v6.416c0 .82.265 1.467.787 1.924.517.453 1.164.682 1.923.682.758 0 1.405-.23 1.922-.682.523-.457.787-1.104.787-1.924V5.42c0-.82-.264-1.466-.787-1.924"/>
                            <mask id="v7tuyavekc" fill="#fff">
                                <use xlink:href="#lde34y6e3b"/>
                            </mask>
                            <path fill="#FFF" d="M0 14.289L1.923 14.289 1.923.019 0 .019zM15.049 2.814c-.759 0-1.406.233-1.923.694l-.062.059v-.753H11.14V14.29h1.924v-9.66h1.985V2.815zM31.447 4.63h1.518v1.735c0 .242-.104.456-.319.654-.23.214-.513.418-.838.605-.12.07-.24.142-.361.216V4.63zm2.661-1.141c-.512-.453-1.152-.682-1.902-.682-.764 0-1.408.23-1.913.682-.51.458-.768 1.105-.768 1.924v6.416c0 .777.262 1.41.777 1.88.512.468 1.153.705 1.904.705.737 0 1.374-.237 1.893-.704.523-.47.788-1.103.788-1.881v-1.3h-1.922v2.098h-1.518v-1.978c0-.291.164-.576.488-.847.346-.289.737-.541 1.163-.75.452-.22.865-.566 1.23-1.027.37-.469.56-1.027.56-1.66v-.952c0-.82-.263-1.467-.78-1.924zM38.7 12.626V.02h-1.929v11.863c0 .804.212 1.438.63 1.881.42.446 1.016.673 1.774.673.234 0 .366-.03.59-.082v-1.728H38.7zM27.95 2.817h-1.687L26.26.019h-1.926l-.001 2.795-1.109.003v1.812h1.11v7.253c0 .804.212 1.438.63 1.881.419.447 1.016.673 1.774.673.37 0 .73-.066 1.07-.195l.08-.03v-1.584h-1.625V4.63h1.686V2.817zM56.782 2.522c-1.802 0-2.921 1.238-2.921 3.23v5.551c0 2.099 1.056 3.208 3.054 3.208.867 0 1.733-.238 2.378-.652l.055-.035-.386-.979-.078.037c-.429.205-1.085.477-1.815.477-1.382 0-1.947-.653-1.947-2.254V8.828h4.296V5.532c0-1.885-.986-3.01-2.636-3.01m-.11 1.13c1.33 0 1.528 1.137 1.528 1.814v2.277h-3.078V5.51c0-.898.408-1.858 1.55-1.858M75.91 3.589c-.419-.734-1.267-1.067-1.997-1.067-1.235 0-2.48.822-2.48 2.657v6.367c0 1.574.913 2.59 2.326 2.59.69 0 1.59-.404 2.057-1.286v2c0 1.378-.648 2.078-1.924 2.078-.637 0-1.22-.137-1.95-.456l-.075-.033-.458 1.07.069.033c.734.356 1.472.515 2.391.515.965 0 1.769-.287 2.322-.83.588-.576.886-1.406.886-2.466V2.72h-1.15l-.017.868zm-.094 2.34v4.713c0 1.249-.817 2.343-1.749 2.343-1.195 0-1.373-.999-1.373-1.594V5.268c0-1.07.485-1.683 1.33-1.683.828 0 1.792 1.024 1.792 2.344zM82.729 2.522c-.968 0-1.834.488-2.326 1.292l-.018-1.072h-1.172v11.57h1.262V6.04c0-1.14.735-2.41 1.791-2.41.827 0 1.264.506 1.264 1.463v9.22h1.261V4.564c0-1.22-.828-2.04-2.062-2.04M63.743 3.63c.832 0 1.205.48 1.33 1.712l.007.075 1.214-.05-.004-.081c-.085-1.742-.99-2.742-2.481-2.742-1.56 0-2.569.966-2.569 2.46 0 1.102.535 1.98 1.34 2.957l1.079 1.322c.545.667 1.37 1.674 1.37 2.615 0 .956-.473 1.483-1.33 1.483-.905 0-1.342-.51-1.507-1.758l-.009-.07h-1.257l.005.086c.12 1.811 1.12 2.85 2.746 2.85 1.765 0 2.57-1.366 2.57-2.635 0-1.02-.49-2.095-1.496-3.29L63.43 6.978c-.69-.816-.972-1.413-.972-2.063 0-.78.505-1.285 1.286-1.285M68.092 14.285L69.36 14.285 69.361 2.774 68.093 2.774zM68.085 1.297L69.335 1.297 69.335.046 68.085.046z" mask="url(#v7tuyavekc)"/>
                        </g>
                    </g>
                </g>
            </g>
        </g>
    </g>
</svg>
