<?xml version="1.0" encoding="UTF-8"?>
<svg width="131px" height="24px" viewBox="0 0 131 24" version="1.1" xmlns="http://www.w3.org/2000/svg" xmlns:xlink="http://www.w3.org/1999/xlink">
    <title>Logos/Hotel Logos/Segments/Collection no bg</title>
    <defs>
        <polygon id="path-1" points="0.049608 0.183276 5.881608 0.183276 5.881608 12.24 0.049608 12.24"></polygon>
        <polygon id="path-3" points="0 14.786856 106.6932 14.786856 106.6932 -0.000144 0 -0.000144"></polygon>
    </defs>
    <g id="Logos/Hotel-Logos/Segments/Collection-no-bg" stroke="none" stroke-width="1" fill="none" fill-rule="evenodd">
        <g id="Group-25-Copy" transform="translate(12.000000, 4.000000)">
            <g id="Group-3" transform="translate(53.640000, 2.546856)">
                <mask id="mask-2" fill="white">
                    <use xlink:href="#path-1"></use>
                </mask>
                <g id="Clip-2"></g>
                <path d="M2.987568,0.183276 C1.202688,0.183276 0.049608,1.388916 0.049608,3.254436 L0.049608,9.124596 C0.049608,11.104596 1.104408,12.240036 2.943288,12.240036 C4.783248,12.240036 5.881608,11.058516 5.881608,9.079956 L5.881608,3.143556 C5.881608,1.317636 4.772448,0.183276 2.987568,0.183276 L2.987568,0.183276 Z M1.318248,3.165876 C1.318248,2.603916 1.476648,1.297116 2.943288,1.297116 C3.988728,1.297116 4.612968,1.987236 4.612968,3.143556 L4.612968,9.168876 C4.612968,10.051956 4.330728,11.104236 2.987568,11.104236 C1.757088,11.104236 1.318248,10.104516 1.318248,9.168876 L1.318248,3.165876 Z" id="Fill-1" fill="#1A3575" mask="url(#mask-2)"></path>
            </g>
            <path d="M63.691524,13.518324 C63.067644,13.518324 62.974404,13.082724 62.974404,12.823164 L62.974404,0.224964 L61.706124,0.224964 L61.706124,13.044924 C61.706124,14.110884 62.285364,14.698044 63.337284,14.698044 C63.674244,14.698044 63.994284,14.646204 64.315044,14.538564 L64.370124,14.520564 L64.370124,13.431564 L64.271844,13.453524 C64.079244,13.496364 63.884124,13.518324 63.691524,13.518324" id="Fill-4" fill="#1A3575"></path>
            <path d="M67.815864,13.518324 C67.191984,13.518324 67.098744,13.082724 67.098744,12.823164 L67.098744,0.224964 L65.830464,0.224964 L65.830464,13.044924 C65.830464,14.110884 66.409704,14.698044 67.461624,14.698044 C67.798584,14.698044 68.118624,14.646204 68.439384,14.538564 L68.494464,14.520564 L68.494464,13.431564 L68.396184,13.453524 C68.203584,13.496364 68.008464,13.518324 67.815864,13.518324" id="Fill-6" fill="#1A3575"></path>
            <path d="M48.518064,7.2e-05 C46.342944,7.2e-05 44.937504,1.361952 44.937504,3.470112 L44.937504,11.449872 C44.937504,13.539312 46.284624,14.786712 48.540384,14.786712 C50.553864,14.786712 51.855264,13.529232 51.855264,11.582712 L51.855264,9.841032 L50.652504,9.841032 L50.652504,11.516472 C50.652504,12.516192 50.097744,13.584312 48.540384,13.584312 C47.063664,13.584312 46.250784,12.747672 46.250784,11.228472 L46.250784,3.536352 C46.250784,2.648232 46.542384,1.158192 48.495744,1.158192 C49.866624,1.158192 50.652504,1.928232 50.652504,3.270672 L50.652504,4.901832 L51.855264,4.901832 L51.855264,3.004992 C51.855264,1.509192 50.823144,7.2e-05 48.518064,7.2e-05" id="Fill-8" fill="#1A3575"></path>
            <mask id="mask-4" fill="white">
                <use xlink:href="#path-3"></use>
            </mask>
            <g id="Clip-11"></g>
            <polygon id="Fill-10" fill="#1A3575" mask="url(#mask-4)" points="89.9946 14.490936 91.26324 14.490936 91.26324 2.973456 89.9946 2.973456"></polygon>
            <path d="M86.42124,0.224892 L85.15296,0.224892 L85.15296,2.973852 L83.93436,2.973852 L83.93436,4.110012 L85.15296,4.110012 L85.15296,13.133412 C85.15296,14.141772 85.7556,14.720292 86.80608,14.720292 C87.19632,14.720292 87.55092,14.648292 88.03008,14.471892 L88.083,14.452452 L88.083,13.376052 L87.9768,13.411332 C87.65244,13.519692 87.29748,13.584492 87.02748,13.584492 C86.65308,13.584492 86.42124,13.457052 86.42124,12.823092 L86.42124,4.110012 L88.3044,4.110012 L88.3044,2.973852 L86.42124,2.973852 L86.42124,0.224892 Z" id="Fill-12" fill="#1A3575" mask="url(#mask-4)"></path>
            <path d="M96.1866,2.730132 C94.40172,2.730132 93.24864,3.935772 93.24864,5.801292 L93.24864,11.671452 C93.24864,13.651452 94.30344,14.786892 96.14232,14.786892 C97.98228,14.786892 99.08064,13.605372 99.08064,11.626812 L99.08064,5.690412 C99.08064,3.864492 97.97148,2.730132 96.1866,2.730132 L96.1866,2.730132 Z M94.51728,5.712732 C94.51728,5.150772 94.67568,3.843972 96.14232,3.843972 C97.1874,3.843972 97.81164,4.534092 97.81164,5.690412 L97.81164,11.715732 C97.81164,12.598812 97.52976,13.651092 96.1866,13.651092 C94.95612,13.651092 94.51728,12.651372 94.51728,11.715732 L94.51728,5.712732 Z" id="Fill-13" fill="#1A3575" mask="url(#mask-4)"></path>
            <path d="M104.619528,2.730132 C103.645008,2.730132 102.774528,3.220452 102.280608,4.028292 L102.262248,2.951892 L101.083248,2.951892 L101.083248,14.490972 L102.352248,14.490972 L102.352248,6.266412 C102.352248,5.120532 103.092408,3.843972 104.154768,3.843972 C104.986008,3.843972 105.424848,4.352292 105.424848,5.313852 L105.424848,14.490972 L106.693488,14.490972 L106.693488,4.782132 C106.693488,3.554892 105.859728,2.730132 104.619528,2.730132" id="Fill-14" fill="#1A3575" mask="url(#mask-4)"></path>
            <path d="M79.980984,2.730132 C78.196104,2.730132 77.087304,3.906972 77.087304,5.801292 L77.087304,11.693412 C77.087304,13.659372 78.117624,14.786892 79.914744,14.786892 C81.603864,14.786892 82.652904,13.796892 82.652904,12.203172 L82.652904,10.948572 L81.472824,10.948572 L81.472824,12.092292 C81.472824,12.803292 81.210384,13.651092 79.958664,13.651092 C78.633864,13.651092 78.355944,12.634812 78.355944,11.782332 L78.355944,5.668452 C78.355944,5.119812 78.514344,3.843972 79.980984,3.843972 C81.365184,3.843972 81.472824,4.952052 81.472824,5.291532 L81.472824,6.524532 L82.652904,6.524532 L82.652904,5.203332 C82.652904,4.062492 81.953424,2.730132 79.980984,2.730132" id="Fill-15" fill="#1A3575" mask="url(#mask-4)"></path>
            <path d="M72.596052,2.730132 C70.783452,2.730132 69.658092,3.975012 69.658092,5.978412 L69.658092,11.560932 C69.658092,13.671252 70.719732,14.786892 72.728892,14.786892 C73.600812,14.786892 74.472732,14.547852 75.120372,14.131692 L75.176172,14.095692 L74.788092,13.111812 L74.709972,13.149252 C74.277972,13.355172 73.618812,13.628772 72.884052,13.628772 C71.493732,13.628772 70.926732,12.972132 70.926732,11.361492 L70.926732,9.071892 L75.246372,9.071892 L75.246372,5.757012 C75.246372,3.861612 74.255652,2.730132 72.596052,2.730132 M72.485532,3.866292 C73.821852,3.866292 74.021652,5.008932 74.021652,5.690412 L74.021652,7.980012 L70.926732,7.980012 L70.926732,5.734692 C70.926732,4.831452 71.336412,3.866292 72.485532,3.866292" id="Fill-16" fill="#1A3575" mask="url(#mask-4)"></path>
            <polygon id="Fill-17" fill="#1A3575" mask="url(#mask-4)" points="89.99244 1.498536 91.26576 1.498536 91.26576 0.225216 89.99244 0.225216"></polygon>
            <path d="M8.456292,3.705516 C7.945452,3.252636 7.294932,3.022596 6.522372,3.022596 C5.763852,3.022596 5.117292,3.252276 4.599612,3.705156 C4.077612,4.161996 3.812652,4.809276 3.812652,5.628996 L3.812652,6.580836 C3.812652,7.214076 4.003092,7.772796 4.377852,8.240796 C4.746492,8.701596 5.164452,9.047196 5.620572,9.267876 C6.051492,9.476676 6.446772,9.729396 6.795972,10.017756 C7.123572,10.288836 7.289892,10.573956 7.289892,10.864836 L7.289532,12.831156 L5.755572,12.831156 L5.755212,10.737036 L3.812652,10.737036 L3.812652,12.044556 C3.812652,12.823236 4.080852,13.456116 4.609332,13.926276 C5.133492,14.393196 5.777172,14.630076 6.522372,14.630076 C7.281612,14.630076 7.929252,14.393196 8.446572,13.925916 C8.967852,13.455396 9.232092,12.822516 9.232092,12.044556 L9.232092,10.864836 C9.232092,10.334196 9.104292,9.856476 8.851932,9.445356 C8.602092,9.038916 8.297532,8.712756 7.946532,8.476236 C7.609572,8.249436 7.265412,8.035236 6.924852,7.840116 C6.596172,7.652556 6.311052,7.449156 6.077412,7.235316 C5.860692,7.037316 5.755212,6.823476 5.755212,6.580836 L5.755572,4.834116 L7.289532,4.834116 L7.289892,6.910596 L9.232092,6.910596 L9.232092,5.628996 C9.232092,4.809636 8.971092,4.162716 8.456292,3.705516" id="Fill-18" fill="#1A3575" mask="url(#mask-4)"></path>
            <path d="M19.783296,12.82806 L18.248976,12.82806 L18.251136,4.83102 L19.785096,4.83102 M20.942136,3.7017 C20.424816,3.24918 19.777896,3.0195 19.019376,3.0195 C18.260856,3.0195 17.613936,3.24918 17.096616,3.7017 C16.574616,4.1589 16.309656,4.80618 16.309656,5.6259 L16.309656,12.04146 C16.309656,12.86118 16.574616,13.50846 17.096616,13.9653 C17.613936,14.41818 18.260856,14.6475 19.019376,14.6475 C19.777896,14.6475 20.424816,14.41818 20.942136,13.9653 C21.464496,13.50846 21.729096,12.86118 21.729096,12.04146 L21.729096,5.6259 C21.729096,4.80618 21.464496,4.1589 20.942136,3.7017" id="Fill-19" fill="#1A3575" mask="url(#mask-4)"></path>
            <polygon id="Fill-20" fill="#1A3575" mask="url(#mask-4)" points="0 14.494176 1.92276 14.494176 1.92276 0.224496 0 0.224496"></polygon>
            <path d="M15.048612,3.019644 C14.290092,3.019644 13.643172,3.252924 13.125852,3.713364 C13.104612,3.732084 13.084812,3.752604 13.064292,3.772044 L13.064292,3.019644 L11.139372,3.019644 L11.139372,14.494284 L13.064292,14.494284 L13.064292,4.835124 L15.048612,4.835124 L15.048612,3.019644 Z" id="Fill-21" fill="#1A3575" mask="url(#mask-4)"></path>
            <path d="M31.4469,4.835088 L32.96502,4.835088 L32.96502,6.570288 C32.96502,6.812928 32.86062,7.026768 32.64606,7.224768 C32.4153,7.438608 32.13342,7.642008 31.80762,7.829568 C31.68774,7.899048 31.56714,7.971048 31.4469,8.045208 L31.4469,4.835088 Z M34.10838,3.694248 C33.59646,3.241728 32.95638,3.012048 32.20578,3.012048 C31.44186,3.012048 30.79782,3.241728 30.29274,3.694968 C29.78334,4.152528 29.52486,4.799088 29.52486,5.618088 L29.52486,12.034008 C29.52486,12.811968 29.78658,13.444848 30.3021,13.915008 C30.81402,14.382648 31.45482,14.619528 32.20578,14.619528 C32.94342,14.619528 33.58026,14.382648 34.09866,13.915728 C34.62174,13.445568 34.88706,12.812688 34.88706,12.034008 L34.88706,10.733688 L32.96502,10.733688 L32.96502,12.832128 L31.4469,12.832128 L31.4469,10.854288 C31.4469,10.563408 31.61106,10.278288 31.93506,10.007208 C32.28066,9.718488 32.67234,9.466128 33.09822,9.257328 C33.54966,9.036648 33.9633,8.691048 34.32798,8.230248 C34.69878,7.761888 34.88706,7.203528 34.88706,6.570288 L34.88706,5.618088 C34.88706,4.798728 34.62498,4.151448 34.10838,3.694248 L34.10838,3.694248 Z" id="Fill-22" fill="#1A3575" mask="url(#mask-4)"></path>
            <path d="M38.700144,12.831912 L38.700864,0.224712 L36.771264,0.224712 L36.771264,12.087072 C36.771264,12.891672 36.983304,13.525272 37.400904,13.969152 C37.820304,14.414832 38.417184,14.641272 39.174984,14.641272 C39.409344,14.641272 39.540744,14.611752 39.765384,14.559552 L39.765384,12.831912 L38.700144,12.831912 Z" id="Fill-23" fill="#1A3575" mask="url(#mask-4)"></path>
            <path d="M27.949716,3.022272 L26.262756,3.022272 L26.260596,0.224712 L24.334956,0.225072 L24.333876,3.019392 L23.225076,3.022272 L23.225076,4.834872 L24.334956,4.834872 L24.334956,12.087432 C24.334956,12.892032 24.546636,13.525272 24.964596,13.969152 C25.383636,14.415192 25.980876,14.641272 26.738676,14.641272 C27.108036,14.641272 27.468396,14.575752 27.809316,14.446512 L27.888156,14.416272 L27.888156,12.832272 L26.263476,12.831912 L26.264196,4.835232 L27.949716,4.835232 L27.949716,3.022272 Z" id="Fill-24" fill="#1A3575" mask="url(#mask-4)"></path>
        </g>
    </g>
</svg>