<svg width="96" height="90" xmlns="http://www.w3.org/2000/svg">
    <defs>
        <filter x="-1.2%" y="-25.6%" width="102.4%" height="151.1%" filterUnits="objectBoundingBox" id="a">
            <feOffset dx="-2" dy="2" in="SourceAlpha" result="shadowOffsetOuter1"/>
            <feGaussianBlur stdDeviation="5" in="shadowOffsetOuter1" result="shadowBlurOuter1"/>
            <feColorMatrix values="0 0 0 0 0.211764706 0 0 0 0 0.239215686 0 0 0 0 0.31372549 0 0 0 0.143852607 0" in="shadowBlurOuter1" result="shadowMatrixOuter1"/>
            <feMerge>
                <feMergeNode in="shadowMatrixOuter1"/>
                <feMergeNode in="SourceGraphic"/>
            </feMerge>
        </filter>
    </defs>
    <g transform="translate(-1744)" filter="url(#a)" fill="none" fill-rule="evenodd">
        <path fill="#002D74" d="M1744.823 0h94.355v90h-94.355z"/>
        <g fill="#FFF">
            <path d="M1767.618 27.77c1.454 0 2.68.427 3.642 1.27.92.807 1.41 1.934 1.457 3.35l.004.226V35h-3.658v-3.861h-2.89v3.247c0 .451.198.85.606 1.218.378.34.826.667 1.336.973l.26.152c.642.362 1.29.76 1.925 1.183.661.439 1.234 1.046 1.705 1.801.435.701.674 1.506.71 2.395l.006.245v2.194c0 1.446-.498 2.624-1.48 3.498-.974.87-2.193 1.31-3.623 1.31-1.404 0-2.616-.44-3.604-1.309-.942-.828-1.445-1.928-1.496-3.273l-.004-.226v-2.432h3.658l.001 3.894h2.89v-3.656c0-.541-.313-1.07-.93-1.575a10.933 10.933 0 0 0-1.913-1.245l-.301-.15c-.859-.41-1.646-1.052-2.34-1.91-.66-.812-1.016-1.771-1.06-2.853l-.005-.234v-1.77c0-1.524.5-2.728 1.482-3.577.975-.842 2.193-1.269 3.622-1.269zm22.68 0c1.43 0 2.648.426 3.622 1.266.934.807 1.431 1.931 1.478 3.346l.004.226v11.909c0 1.522-.499 2.723-1.482 3.571-.974.84-2.193 1.267-3.621 1.267s-2.647-.426-3.621-1.267c-.934-.806-1.431-1.93-1.479-3.345l-.003-.226v-11.91c0-1.52.498-2.722 1.482-3.57.974-.841 2.193-1.267 3.62-1.267zm-31.186-4.544v26.129h-3.402v-26.13h3.402zm55.002 5.68c1.429 0 2.647.404 3.622 1.202.934.765 1.43 1.832 1.478 3.175l.004.214v1.677c0 1.116-.358 2.1-1.064 2.925-.637.744-1.351 1.318-2.128 1.707l-.213.102a11.17 11.17 0 0 0-2.214 1.322c-.573.443-.883.907-.925 1.382l-.004.11v3.484h2.89V42.51h3.658V44.8c0 1.372-.505 2.487-1.5 3.315-.987.823-2.2 1.24-3.604 1.24-1.43 0-2.65-.418-3.624-1.241-.93-.785-1.425-1.827-1.475-3.1l-.004-.214V33.497c0-1.443.492-2.583 1.462-3.388.961-.798 2.187-1.203 3.641-1.203zm12.16-5.68-.001 22.85h2.017v3.13l-.33.072c-.253.05-.47.077-.788.077-1.435 0-2.565-.41-3.36-1.218-.747-.76-1.146-1.826-1.188-3.17l-.004-.24V23.225h3.654zm-22.775 0 .004 5.07h3.24v3.286h-3.237v14.494h3.12v2.871l-.153.055a6.09 6.09 0 0 1-2.056.353c-1.455 0-2.601-.41-3.406-1.218-.758-.76-1.163-1.826-1.206-3.171l-.004-.24V31.582h-2.13v-3.286l2.128-.005.002-5.065h3.698zm-24.026 4.544v1.34l.108-.104c.847-.772 1.895-1.186 3.115-1.232l.231-.004v3.236h-3.454v17.213h-3.35V27.77h3.35zM1792 31.178h-3.398l-.004 14.769h3.398l.004-14.769zm23.816 1.136h-3.403v5.68l.405-.193.404-.188a10.73 10.73 0 0 0 1.879-1.07c.44-.321.674-.666.71-1.052l.005-.107v-3.07z"/>
            <path d="M1815.226 63.523v-5.37h-2.45V59.4h1.006v4.124h1.444zm-9.784 3.251c2.887 0 4.817-2.07 4.817-5.095v-3.526h-1.346v3.43c0 2.41-1.378 3.978-3.438 3.978-1.249 0-2.222-.566-2.773-1.585 2.449-.485 3.519-1.633 3.519-3.865v-1.958h-1.33v1.844c0 1.893-.778 2.669-2.579 2.928a5.206 5.206 0 0 1-.113-1.149v-3.623h-1.346v3.769c0 3.025 1.881 4.852 4.59 4.852zm-7.22-.226V61.29c0-.857-.13-1.423-.373-1.876-.438-.76-1.233-1.262-2.433-1.262h-3.309V59.4h3.033c1.184 0 1.67.728 1.67 1.925v5.224h1.412zm-8.503 0v-8.395h-2.448V59.4h1.005v7.149h1.443zm-8.55.21c2.384 0 3.957-1.795 3.957-4.448 0-1.569-.081-3.154-1.135-3.865-.406-.275-.892-.405-1.509-.405-.535 0-1.135.097-1.719.291v1.23c.47-.178.973-.275 1.395-.275 1.395 0 1.54 1.035 1.54 3.137 0 1.828-.956 3.09-2.448 3.09-1.46 0-2.384-1.197-2.384-3.073v-4.287h-1.428v4.4c0 2.571 1.46 4.205 3.73 4.205zm-9.07-.21 3-7.246v-1.149h-4.914v-2.992h-1.41V59.4h4.784l-2.968 7.149h1.508z" fill-rule="nonzero"/>
        </g>
    </g>
</svg>
