<svg xmlns="http://www.w3.org/2000/svg" width="24" height="24" viewBox="0 0 24 24">
    <g fill="none" fill-rule="evenodd">
        <g fill="#002D74">
            <g>
                <g>
                    <path d="M12 3c4.142 0 7.5 3.358 7.5 7.5 0 2.761-2.5 6.261-7.5 10.5l-.297-.253-.576-.502C6.709 16.345 4.5 13.095 4.5 10.5 4.5 6.358 7.858 3 12 3zm0 .75c-3.728 0-6.75 3.022-6.75 6.75 0 1.617 1.021 3.607 3.081 5.939l.399.44c.821.89 1.789 1.829 2.904 2.813l.366.319.085-.072c.664-.579 1.28-1.142 1.844-1.69l.472-.464c.46-.461.882-.91 1.269-1.348l.374-.433c1.75-2.075 2.646-3.867 2.703-5.354l.003-.15c0-3.728-3.022-6.75-6.75-6.75zm0 3c2.071 0 3.75 1.679 3.75 3.75 0 2.071-1.679 3.75-3.75 3.75-2.071 0-3.75-1.679-3.75-3.75 0-2.071 1.679-3.75 3.75-3.75zm0 .75c-1.657 0-3 1.343-3 3s1.343 3 3 3 3-1.343 3-3-1.343-3-3-3z" transform="translate(-233.000000, -209.000000) translate(20.000000, 197.000000) translate(213.000000, 12.000000)"/>
                </g>
            </g>
        </g>
    </g>
</svg>
