<svg xmlns="http://www.w3.org/2000/svg" width="25" height="24" viewBox="0 0 25 24">
    <g fill="none" fill-rule="evenodd">
        <g fill="#002D74">
            <g>
                <path d="M14.458 6.183l5.276 5.185c.355.349.355.915 0 1.264l-5.276 5.185c-.223.22-.572.242-.821.066l-.088-.075c-.25-.245-.25-.641 0-.886l4.372-4.297H4.626C4.28 12.626 4 12.346 4 12c0-.346.28-.626.626-.626H17.92l-4.371-4.296c-.224-.22-.247-.563-.068-.808l.077-.087c.248-.244.652-.244.9 0z" transform="translate(-216 -3541) translate(216.5 3541)"/>
            </g>
        </g>
    </g>
</svg>
