<svg xmlns="http://www.w3.org/2000/svg" width="24" height="24" viewBox="0 0 24 24">
    <g fill="none" fill-rule="evenodd">
        <g fill="#000">
            <g>
                <g>
                    <g>
                        <path d="M15.375 3c3.032 0 5.505 2.4 5.62 5.404l.005.221v6.75c0 3.032-2.4 5.505-5.404 5.62l-.221.005h-6.75c-3.032 0-5.505-2.4-5.62-5.404L3 15.375v-6.75c0-3.032 2.4-5.505 5.404-5.62L8.625 3h6.75zm0 1.688h-6.75c-2.103 0-3.827 1.657-3.932 3.735l-.005.202v6.75c0 2.103 1.657 3.827 3.735 3.932l.202.006h6.75c2.103 0 3.827-1.658 3.932-3.736l.006-.202v-6.75c0-2.103-1.658-3.827-3.736-3.932l-.202-.005zM12 7.5c2.485 0 4.5 2.015 4.5 4.5s-2.015 4.5-4.5 4.5-4.5-2.015-4.5-4.5S9.515 7.5 12 7.5zm0 1.688c-1.55 0-2.813 1.26-2.813 2.812 0 1.55 1.263 2.813 2.813 2.813 1.55 0 2.813-1.263 2.813-2.813 0-1.551-1.263-2.813-2.813-2.813zm4.837-2.625c.332 0 .6.268.6.6 0 .33-.268.6-.6.6-.33 0-.6-.27-.6-.6 0-.332.27-.6.6-.6z" transform="translate(-303.000000, -5274.000000) translate(0.000000, 5176.000000) translate(295.000000, 90.000000) translate(8.000000, 8.000000)"/>
                    </g>
                </g>
            </g>
        </g>
    </g>
</svg>
