<svg xmlns="http://www.w3.org/2000/svg" width="24" height="24" viewBox="0 0 24 24">
    <g fill="none" fill-rule="evenodd">
        <g fill="#000">
            <g>
                <g>
                    <g>
                        <path d="M16.53 8.68c3.271 0 4.23 1.87 4.427 4.47l.025.405.008.207.01.636v6.601L17.272 21l-.003-6.269-.007-.282-.016-.283c-.084-1.13-.436-2.199-1.914-2.199-1.811 0-2.19 1.32-2.233 2.77l-.005.312v5.95H9.367V8.982h3.58v1.639h.052c.497-.944 1.715-1.94 3.53-1.94zm-9.501.303V21H3.297V8.983h3.732zM5.162 3c1.192 0 2.16.968 2.161 2.162 0 1.193-.968 2.181-2.162 2.181C3.969 7.343 3 6.355 3 5.162 3 3.968 3.968 3 5.162 3z" transform="translate(-483.000000, -5274.000000) translate(0.000000, 5176.000000) translate(475.000000, 90.000000) translate(8.000000, 8.000000)"/>
                    </g>
                </g>
            </g>
        </g>
    </g>
</svg>
