<svg xmlns="http://www.w3.org/2000/svg" width="24" height="24" viewBox="0 0 24 24">
    <g fill="none" fill-rule="evenodd">
        <g fill="#000">
            <g>
                <g>
                    <g>
                        <path d="M12.27 5.5c1.14.006 5.55.052 6.773.397.77.214 1.379.841 1.586 1.637.32 1.202.364 3.484.37 4.235l.001.154v.092l-.001.16c-.006.642-.05 3.054-.37 4.306-.207.796-.815 1.423-1.586 1.637-1.298.352-6.18.38-6.943.382h-.2c-.761-.002-5.632-.03-6.943-.397-.771-.214-1.38-.842-1.587-1.637-.32-1.24-.363-3.66-.37-4.305v-.321c.007-.642.05-3.054.37-4.306.208-.795.83-1.438 1.587-1.652 1.223-.332 5.633-.376 6.772-.382zm-2.064 3.716v5.568L14.89 12l-4.685-2.784z" transform="translate(-243.000000, -5274.000000) translate(0.000000, 5176.000000) translate(235.000000, 90.000000) translate(8.000000, 8.000000)"/>
                    </g>
                </g>
            </g>
        </g>
    </g>
</svg>
