<svg xmlns="http://www.w3.org/2000/svg" width="42" height="42">
    <path fill="#363D50" fill-rule="evenodd"
          d="M9 0v1h17V0h1v1h5.409c3.403-.005 3.57 1.25 3.579 2.451v.185l.012.25V18.82c3.598 2.195 6 6.156 6 10.679C42 36.404 36.404 42 29.5 42c-4.09 0-7.72-1.963-10-5H3.037C1.464 37 .146 35.091.01 33.607l-.01-.25V3.886c0-1.518 1.236-2.75 2.777-2.875L3.037 1H8V0h1zm20.5 18.389c-6.136 0-11.111 4.975-11.111 11.111 0 6.136 4.975 11.111 11.111 11.111 6.136 0 11.111-4.975 11.111-11.111 0-6.136-4.975-11.111-11.111-11.111zM29.5 33a.5.5 0 01.5.5v2a.5.5 0 01-1 0v-2a.5.5 0 01.5-.5zm5.169-24H1.367v23.698c.017 2.87 1.325 2.95 2.67 2.951l14.578.001A12.444 12.444 0 0117 29.5C17 22.596 22.596 17 29.5 17c1.82 0 3.55.389 5.11 1.088L34.668 9zM29.5 24a.5.5 0 01.5.5v6a.5.5 0 01-1 0v-6a.5.5 0 01.5-.5zM2.632 2.375c-.642 0-1.162.817-1.251 1.349l-.014.162V8h33.309l.027-4.114c0-.548-.1-1.505-1.484-1.505h-1.385L27 2.38V5h-1V2.38L9 2.376V5H8V2.375H2.632z"/>
</svg>
