<svg width="19" height="19" xmlns="http://www.w3.org/2000/svg">
    <path d="M13.203 5.765c5.423-3.7 6.881-1.562 1.458 2.137l-.066 5.01a.356.356 0 01-.157.349l-.371.229a.364.364 0 01-.309.05.314.314 0 01-.21-.207l-1.204-3.92a45.142 45.142 0 01-3.093 1.758l-.532 1.845a.37.37 0 01-.153.221l-.46.31a.359.359 0 01-.336.04.308.308 0 01-.193-.256l-.119-.992-4.322 3.141-.588-.809 4.68-3.4-1.665-.892a.308.308 0 01-.16-.204l-.008-.069a.36.36 0 01.16-.3l.457-.314a.368.368 0 01.26-.062l1.914.18a44.164 44.164 0 012.764-2.24L7.74 4.82a.315.315 0 01-.116-.272.363.363 0 01.16-.268l.348-.262a.356.356 0 01.381-.02zm-11.788 9.27l.966.26-.258.965-.966-.259z"
          fill="#004BC1" fill-rule="evenodd"/>
</svg>
