<svg xmlns="http://www.w3.org/2000/svg" width="18" height="17">
    <g fill="#959EB6" fill-rule="evenodd">
        <path d="M7.268 6.638a1.38 1.38 0 10-1.379 1.38 1.36 1.36 0 001.379-1.339v-.04M2.79 3.54a.765.765 0 01.546-.214l4.867-.136c.32-.002.629.124.856.35l6.133 6.133c.457.44.47 1.167.03 1.624l-.03.031-4.614 4.614c-.44.457-1.167.47-1.624.03l-.03-.03L2.79 9.81a1.202 1.202 0 01-.35-.856l.136-4.867a.765.765 0 01.214-.546m10.835-1.413l.713-.713 2.981 2.981-.713.713z"/>
        <path d="M17.48 2.024l-.69-.734-3.146 2.958.69.734zM.539 14.242l.713-.713 2.225 2.225-.713.713z"/>
        <path d="M3.477 14.242l-.713-.713-2.225 2.225.713.713z"/>
    </g>
</svg>
