<svg xmlns="http://www.w3.org/2000/svg" width="20" height="16">
    <g fill="none" fill-rule="evenodd">
        <path fill="#959EB6"
              d="M14.919 12.794l2.183-5.687c.267-.696-.07-1.478-.749-1.738L5.378 1.156c-.679-.26-1.453.095-1.72.79L1.476 7.633c-.267.696.07 1.478.75 1.738L13.2 13.584c.678.26 1.452-.095 1.719-.79z"/>
        <path stroke="#FFF" stroke-width=".648" d="M3.153 3.262L16.957 8.6"/>
        <path fill="#FFF" d="M12.173 9.37a1.295 1.295 0 11-2.42-.928 1.295 1.295 0 012.421.929" opacity=".754"/>
        <path fill="#FFF" d="M13.479 9.872a1.296 1.296 0 11-2.42-.928 1.296 1.296 0 012.42.928"/>
    </g>
</svg>
