<svg xmlns="http://www.w3.org/2000/svg" xmlns:xlink="http://www.w3.org/1999/xlink" width="21" height="23">
    <defs>
        <path id="a" d="M.133.697h18.126v20.392H.133z"/>
    </defs>
    <g fill="none" fill-rule="evenodd" transform="matrix(-1 0 0 1 20 .25)">
        <mask id="b" fill="#fff">
            <use xlink:href="#a"/>
        </mask>
        <path fill="#959EB6"
              d="M15.387 15.761l-1.715-6.497c5.954-6.659 3.225-8.917-2.728-2.257l-6.936-.661a.506.506 0 00-.505.158l-.374.459a.467.467 0 00-.118.402c.026.14.12.252.253.31l5.232 2.187c-1.118 1.372-2.134 2.715-2.908 3.85l-2.634.43a.523.523 0 00-.328.17l-.501.565a.468.468 0 00-.107.443.42.42 0 00.324.294l2.727.617 1.04 2.5a.423.423 0 00.352.265.509.509 0 00.438-.168l.505-.56a.489.489 0 00.127-.338l.05-2.569a61.386 61.386 0 003.522-3.343l3.03 4.65c.08.12.21.19.356.195a.519.519 0 00.396-.173l.416-.424a.464.464 0 00.086-.505"
              mask="url(#b)" transform="matrix(-1 0 0 1 19 0)"/>
    </g>
</svg>
