<svg width="19" height="19" xmlns="http://www.w3.org/2000/svg">
    <path d="M10.264 3.532L6.89 8.396c-7.757.04-7.74 3.099.017 3.058l3.425 4.83a.42.42 0 00.386.232l.515-.026a.429.429 0 00.334-.158.372.372 0 00.066-.342l-1.46-4.621c1.539-.078 3-.206 4.188-.366l1.755 1.439a.434.434 0 00.297.112l.655-.006a.425.425 0 00.355-.188.364.364 0 00.015-.378l-1.109-2.106 1.087-2.116a.364.364 0 00-.02-.38.424.424 0 00-.356-.183h-.654a.438.438 0 00-.296.116l-1.74 1.456a53.337 53.337 0 00-4.192-.322l1.41-4.636a.37.37 0 00-.068-.341.43.43 0 00-.336-.154l-.514-.021a.42.42 0 00-.385.237"
          fill="#CED0D5" fill-rule="evenodd"/>
</svg>
