<svg xmlns="http://www.w3.org/2000/svg" width="24" height="24">
    <g fill="none" fill-rule="evenodd" transform="translate(1 1)">
        <circle cx="11" cy="11" r="10.25" stroke="#AB6503" stroke-width="1.5"/>
        <path fill="#AB6503"
              d="M11.49 13.8c.19 0 .307-.114.355-.341 0-.133.01-.331.028-.597.029-.331.133-.632.312-.902.18-.27.45-.599.81-.987.435-.464.761-.872.979-1.222.217-.35.326-.767.326-1.25 0-.427-.114-.832-.34-1.215-.228-.384-.578-.694-1.05-.93C12.435 6.117 11.853 6 11.163 6c-.653 0-1.233.13-1.739.39a2.972 2.972 0 00-1.178 1.052c-.28.44-.428.921-.447 1.442 0 .095.03.17.092.227a.314.314 0 00.22.086h.625c.208 0 .33-.104.369-.313.104-.597.333-1.035.688-1.314.355-.28.797-.42 1.327-.42.492 0 .922.129 1.291.384.37.256.554.602.554 1.038a.876.876 0 01-.014.184 1.53 1.53 0 01-.291.74 8.858 8.858 0 01-.76.866c-.444.454-.787.866-1.028 1.236-.242.37-.372.805-.39 1.307v.582c0 .095.028.17.084.228a.308.308 0 00.228.085h.695zm.1 3.191a.432.432 0 00.441-.438v-1.08c0-.126.06-.126-.129-.323-.19-.197-.19-.133-.312-.133h-1.162a.387.387 0 00-.303.133.467.467 0 00-.12.324v1.08c0 .126.04.23.12.313.08.083.18.124.303.124h1.162z"/>
    </g>
</svg>
