<svg xmlns="http://www.w3.org/2000/svg" xmlns:xlink="http://www.w3.org/1999/xlink" width="131" height="24">
    <defs>
        <filter id="a">
            <feColorMatrix in="SourceGraphic" values="0 0 0 0 0.000000 0 0 0 0 0.000000 0 0 0 0 0.000000 0 0 0 1.000000 0"/>
        </filter>
        <path id="b" d="M0 14.586h101.942V0H0z"/>
    </defs>
    <g filter="url(#a)" fill="none" fill-rule="evenodd">
        <g transform="translate(15 5)">
            <path fill="#FFF"
                  d="M8.456 3.48c-.51-.452-1.161-.682-1.934-.682-.758 0-1.405.23-1.922.682-.522.457-.787 1.105-.787 1.924v.952c0 .633.19 1.192.565 1.66.368.46.786.807 1.243 1.027.43.209.826.462 1.175.75.328.271.494.556.494.847v1.966H5.756v-2.094H3.812v1.308c0 .779.268 1.411.796 1.882.524.467 1.168.703 1.913.703.76 0 1.407-.236 1.925-.704.52-.47.785-1.103.785-1.881v-1.18a2.68 2.68 0 00-.38-1.42 3.115 3.115 0 00-.905-.968 17.334 17.334 0 00-1.022-.637 4.691 4.691 0 01-.848-.604c-.216-.198-.322-.412-.322-.655V4.61H7.29v2.077h1.942V5.404c0-.819-.26-1.466-.776-1.923m11.327 9.123H18.25l.002-7.998h1.534m1.157-1.129c-.517-.452-1.164-.682-1.923-.682-.758 0-1.405.23-1.922.682-.522.457-.787 1.105-.787 1.924v6.416c0 .82.265 1.467.787 1.924.517.453 1.164.682 1.922.682.759 0 1.406-.23 1.923-.682.522-.457.787-1.104.787-1.924V5.4c0-.82-.265-1.467-.787-1.924"/>
            <mask id="c" fill="#fff">
                <use xlink:href="#b"/>
            </mask>
            <path fill="#FFF"
                  d="M0 14.27h1.923V0H0zM15.049 2.795c-.759 0-1.406.233-1.923.694-.021.018-.041.039-.062.058v-.752H11.14V14.27h1.925V4.61h1.985V2.795zM31.447 4.61h1.518v1.736c0 .242-.104.456-.319.654-.23.214-.513.417-.838.605-.12.07-.24.142-.361.216V4.61zm2.661-1.14c-.512-.453-1.152-.682-1.902-.682-.764 0-1.408.23-1.913.682-.51.458-.768 1.105-.768 1.924v6.415c0 .778.262 1.411.777 1.881.512.468 1.153.705 1.904.705.737 0 1.374-.237 1.893-.704.523-.47.788-1.103.788-1.882v-1.3h-1.922v2.099h-1.518V10.63c0-.291.164-.576.488-.847a5.792 5.792 0 011.163-.75c.452-.22.865-.566 1.23-1.027.37-.469.56-1.027.56-1.66v-.952c0-.82-.263-1.467-.78-1.924zm4.592 9.137V0h-1.929v11.863c0 .804.212 1.438.63 1.882.42.445 1.016.671 1.774.671.234 0 .366-.029.59-.081v-1.728H38.7zM27.95 2.798h-1.687L26.26 0h-1.926l-.001 2.795-1.109.003V4.61h1.11v7.253c0 .804.212 1.438.63 1.881.419.446 1.016.673 1.774.673.369 0 .73-.066 1.07-.195l.08-.03v-1.584h-1.626l.001-7.997h1.686V2.798zm34.405-.28c-1.785 0-2.893 1.176-2.893 3.068v5.887c0 1.964 1.03 3.09 2.827 3.09 1.69 0 2.738-.988 2.738-2.58v-1.254h-1.18v1.142c0 .711-.263 1.557-1.514 1.557-1.325 0-1.603-1.014-1.603-1.866V5.454c0-.549.159-1.824 1.625-1.824 1.385 0 1.492 1.108 1.492 1.447V6.31h1.18V4.99c0-1.14-.7-2.471-2.672-2.471m6.583 10.777c-.624 0-.717-.435-.717-.694V0h-1.269v12.823c0 1.065.58 1.652 1.631 1.652.337 0 .657-.052.978-.159l.055-.018v-1.089l-.098.022a2.658 2.658 0 01-.58.065M46.274 7.38h3.631v-1.2h-3.631V1.201h4.51V0h-5.846v14.224h5.869v-1.201h-4.533zm29.332 3.65c0 1.145-.74 2.42-1.803 2.42-.854 0-1.27-.458-1.27-1.401v-9.31h-1.268v9.774c0 1.24.824 2.072 2.051 2.072.99 0 1.852-.487 2.361-1.32l.019.986h1.178V2.739h-1.268v8.291zM58.088 2.739h-1.193l-1.672 4.455-1.652-4.403-.02-.052H52.18l2.27 5.68-2.348 5.721-.046.111h1.239l1.817-4.593 1.754 4.521.02.052h1.348l-2.348-5.879zm33.928 9.175l-1.75-9.175h-1.317l2.368 11.457.013.065h1.283l2.384-11.425.02-.097h-1.229zm9.926-3.06V5.542c0-1.893-.99-3.024-2.65-3.024-1.813 0-2.938 1.243-2.938 3.245v5.577c0 2.11 1.062 3.223 3.07 3.223.874 0 1.745-.238 2.392-.654l.056-.036-.388-.983-.078.038c-.432.205-1.092.478-1.826.478-1.39 0-1.958-.656-1.958-2.265V8.854h4.32zm-4.32-3.334c0-.903.41-1.867 1.56-1.867 1.336 0 1.536 1.142 1.536 1.823v2.287h-3.096V5.52zM81.587 3.63c.836 0 1.211.483 1.337 1.72l.008.076 1.22-.05-.004-.082c-.085-1.75-.995-2.754-2.495-2.754-1.57 0-2.583.97-2.583 2.47 0 1.108.538 1.99 1.347 2.973l1.085 1.328c.549.67 1.378 1.681 1.378 2.627 0 .961-.475 1.49-1.337 1.49-.91 0-1.35-.511-1.516-1.766l-.009-.07h-1.264l.005.086c.12 1.82 1.127 2.864 2.761 2.864 1.245 0 2.584-.83 2.584-2.648 0-1.025-.492-2.106-1.502-3.305l-1.33-1.594c-.694-.82-.978-1.42-.978-2.073 0-.785.508-1.292 1.293-1.292m4.392 10.621h1.269l.001-11.512H85.98zm-.007-12.989h1.251V.011h-1.251z"
                  mask="url(#c)"/>
        </g>
    </g>
</svg>
