<svg xmlns="http://www.w3.org/2000/svg" width="126" height="62">
    <g fill="none" fill-rule="evenodd">
        <path d="M33.457 9.382c-1.325-1.19-3.012-1.792-5.015-1.792-1.967 0-3.645.603-4.987 1.792-1.353 1.2-2.04 2.9-2.04 5.052v2.5c0 1.663.492 3.13 1.464 4.359.957 1.21 2.041 2.118 3.224 2.697a15.216 15.216 0 013.048 1.97c.85.712 1.28 1.46 1.28 2.224v5.163h-3.979v-5.499h-5.038v3.434c0 2.044.696 3.707 2.066 4.941 1.36 1.227 3.029 1.848 4.962 1.848 1.969 0 3.648-.622 4.99-1.85 1.351-1.234 2.037-2.896 2.037-4.94v-3.097c0-1.394-.332-2.648-.986-3.728-.648-1.067-1.437-1.924-2.348-2.544a42.351 42.351 0 00-2.65-1.67c-.853-.494-1.592-1.028-2.197-1.59-.563-.52-.836-1.082-.836-1.718v-4.588h3.98V17.8h5.037v-3.367c0-2.15-.677-3.85-2.012-5.05m29.376 23.956h-3.979l.005-21h3.978m3.001-2.966c-1.342-1.19-3.02-1.793-4.986-1.793-1.967 0-3.645.603-4.987 1.792-1.354 1.2-2.04 2.9-2.04 5.052v16.848c0 2.152.686 3.852 2.04 5.052 1.342 1.19 3.02 1.792 4.987 1.792s3.644-.603 4.986-1.792c1.354-1.2 2.041-2.9 2.041-5.052V14.425c0-2.152-.687-3.852-2.04-5.052M11 37.8h5.4V.9H11zM50.117 7.776c-1.966 0-3.644.604-4.985 1.795-.055.05-.106.102-.16.152V7.776h-4.99v29.702h4.99V12.476h5.145v-4.7zm42.517 4.7h3.936v4.49c0 .629-.27 1.183-.827 1.696-.598.553-1.33 1.08-2.173 1.565-.312.18-.624.366-.936.558v-8.31zm6.9-2.953c-1.326-1.172-2.986-1.766-4.932-1.766-1.981 0-3.65.595-4.96 1.767-1.321 1.184-1.991 2.859-1.991 4.979V31.11c0 2.014.678 3.652 2.015 4.87 1.327 1.21 2.988 1.823 4.936 1.823 1.912 0 3.564-.613 4.908-1.822 1.356-1.217 2.043-2.855 2.043-4.87v-3.367H96.57v5.432h-3.936v-5.12c0-.753.426-1.49 1.266-2.192.896-.747 1.911-1.4 3.016-1.942 1.17-.57 2.243-1.465 3.188-2.658.962-1.212 1.45-2.658 1.45-4.297v-2.464c0-2.122-.68-3.797-2.02-4.98zm11.906 23.652l.002-32.633h-5.002v30.706c0 2.083.549 3.722 1.632 4.871 1.087 1.154 2.635 1.74 4.6 1.74.607 0 .948-.077 1.53-.212v-4.472h-2.762zM83.567 7.783h-4.374L79.187.54l-4.993.001-.003 7.234-2.874.007v4.692h2.877v18.773c0 2.082.55 3.722 1.633 4.871 1.087 1.154 2.635 1.74 4.6 1.74.958 0 1.892-.17 2.776-.505l.205-.077v-4.101h-4.213l.002-20.7h4.37V7.783zm-48.979 53.5h2.184c1.515-2.81 2.887-5.655 2.887-7.889v-.289c0-1.945-.884-2.792-3.068-2.792h-1.696v-2.666h-1.93v4.342h3.211c1.173 0 1.534.288 1.534 1.279v.288c0 1.927-1.39 4.43-3.122 7.727zm13.453-10.97h-.992v1.676h.595c1.28 0 1.786.63 1.786 2.432v.738c0 2.9-1.245 4.467-2.995 4.467h-.65l-.487-9.313H43.35l.65 10.97h2.219c2.995 0 5.16-2.18 5.16-6.232v-.739c0-2.666-1.137-3.999-3.338-3.999zm8.085 10.97h1.93v-10.97h-3.23v1.657h1.3v9.313zm10.096 0h1.949v-7.115c0-2.666-.92-3.855-3.41-3.855h-2.905v1.676h2.67c1.371 0 1.696.54 1.696 2.323v6.971zm14.004-10.97l-.18 4.18c-.126 3.314-1.136 5.133-3.735 5.133h-1.768l-.162-2.27c2.201-.18 3.32-1.116 3.464-4.142l.144-2.9h-1.822l-.09 3.007c-.072 1.91-.541 2.432-1.787 2.594l-.397-5.602h-1.84l.812 10.97h3.374c3.88 0 5.467-2.485 5.665-6.97l.2-4h-1.878zm6.833 6.593h1.93v-6.593h-3.32v1.657h1.39v4.936z"
              fill="#1A3575"/>
        <path stroke="#002D74" stroke-width=".5"
              d="M34.588 61.283h2.184c1.515-2.81 2.887-5.655 2.887-7.889v-.289c0-1.945-.884-2.792-3.068-2.792h-1.696v-2.666h-1.93v4.342h3.211c1.173 0 1.534.288 1.534 1.279v.288c0 1.927-1.39 4.43-3.122 7.727zm13.453-10.97h-.992v1.676h.595c1.28 0 1.786.63 1.786 2.432v.738c0 2.9-1.245 4.467-2.995 4.467h-.65l-.487-9.313H43.35l.65 10.97h2.219c2.995 0 5.16-2.18 5.16-6.232v-.739c0-2.666-1.137-3.999-3.338-3.999zm8.085 10.97h1.93v-10.97h-3.23v1.657h1.3v9.313zm10.096 0h1.949v-7.115c0-2.666-.92-3.855-3.41-3.855h-2.905v1.676h2.67c1.371 0 1.696.54 1.696 2.323v6.971zm14.004-10.97l-.18 4.18c-.126 3.314-1.136 5.133-3.735 5.133h-1.768l-.162-2.27c2.201-.18 3.32-1.116 3.464-4.142l.144-2.9h-1.822l-.09 3.007c-.072 1.91-.541 2.432-1.787 2.594l-.397-5.602h-1.84l.812 10.97h3.374c3.88 0 5.467-2.485 5.665-6.97l.2-4h-1.878zm6.833 6.593h1.93v-6.593h-3.32v1.657h1.39v4.936z"/>
    </g>
</svg>
