<svg xmlns="http://www.w3.org/2000/svg" width="193" height="80">
    <g fill="none" fill-rule="evenodd">
        <path d="M87.138 1.443C65.725 1.445 48.34 18.59 48.021 39.862h.006c-.017.452-.027.903-.027 1.354.007 20.202 16.226 37.459 36.68 38.536l.089-1.695c-19.527-1.011-35.075-17.555-35.067-36.841 0-.442.009-.885.025-1.329l1.697.025c.29-19.42 16.164-35.079 35.714-35.076 19.551-.003 35.425 15.657 35.715 35.076l3.402-.05c-.32-21.273-17.702-38.417-39.117-38.419"
              fill="#EF7F13"/>
        <path fill="#363D50"
              d="M117.842 41.203c1.676 0 2.451.686 2.451 2.547v3.21c0 .4.044.754.13 1.041l.946 2.77c.042.109.086.308.086.42 0 .376-.193.575-.495.575h-1.075c-.28 0-.43-.133-.56-.509l-.967-2.901h-.15l-1.722 3.233c-.172.332-.408.51-.774.354l-1.01-.398a.443.443 0 01-.3-.422c0-.11.063-.33.149-.487l1.656-2.922c.3-.532.667-.775 1.441-.775h.516v-2.856c0-.444-.129-.688-.58-.688h-1.528c-.344 0-.515-.177-.515-.553v-1.108c0-.354.17-.53.515-.53h1.786zm-51.346 0c.279 0 .451.2.537.599l.86 4.317h.065c.108 0 .215-.155.301-.443l1.204-3.897c.129-.377.365-.576.732-.576h1.096c.28 0 .409.133.409.42 0 .09 0 .179-.043.266l-1.376 4.385c-.258.797-.797 1.196-1.656 1.196h-.474l.302 1.528c.086.399.28.598.602.598h2.15c.473 0 .753-.2.86-.62l2.023-7.264c.106-.332.3-.509.644-.509h1.29c.237 0 .367.133.367.42 0 .09 0 .156-.023.244l-2.107 7.33c-.258.864-.58 1.507-.946 1.883-.43.465-1.054.686-1.85.686h-2.99c-.645 0-1.14-.177-1.44-.531-.258-.31-.473-.842-.624-1.639l-1.226-6.223h-.666c-.344 0-.517-.177-.517-.553v-1.086c0-.354.173-.53.517-.53h1.979zm23.865 0c.28 0 .452.2.538.599l.86 4.317h.065c.108 0 .215-.155.301-.443l1.205-3.897c.128-.377.364-.576.73-.576h1.098c.278 0 .408.133.408.42 0 .09 0 .179-.044.266l-1.375 4.385c-.258.797-.796 1.196-1.657 1.196h-.472l.3 1.528c.086.399.281.598.602.598h2.151c.474 0 .753-.2.86-.62l2.022-7.264c.108-.332.301-.509.645-.509h1.29c.237 0 .367.133.367.42 0 .09 0 .156-.022.244l-2.108 7.33c-.258.864-.581 1.507-.945 1.883-.43.465-1.055.686-1.85.686h-2.989c-.646 0-1.14-.177-1.442-.531-.258-.31-.473-.842-.624-1.639l-1.226-6.223h-.666c-.344 0-.516-.177-.516-.553v-1.086c0-.354.172-.53.516-.53h1.978zm12.88 4.695c.323 0 .495.177.495.487v4.784c0 .398-.172.597-.516.597h-1.076c-.343 0-.537-.199-.537-.597v-2.946c0-.886.215-1.529.43-2.038.107-.199.237-.287.495-.287h.71zm4.345-4.695c.666 0 1.182.2 1.548.598.386.377.56.908.56 1.572v7.796c0 .398-.174.597-.517.597h-1.075c-.344 0-.516-.199-.516-.597v-7.22c0-.376-.194-.576-.582-.576h-4.988c-.345 0-.517-.177-.517-.554v-1.085c0-.354.172-.53.517-.53h5.57zm17.565 0c.452 0 .667.244.667.73v9.236c0 .398-.171.597-.538.597h-1.054c-.364 0-.537-.199-.537-.597v-7.796h-1.01c-.346 0-.539-.177-.539-.554v-1.085c0-.354.193-.53.538-.53h2.473zm9.763 0c1.398 0 2.086.775 2.086 2.303v7.663c0 .398-.172.597-.516.597h-1.076c-.343 0-.516-.199-.516-.597v-7.242c0-.354-.172-.554-.537-.554h-3.464v7.796c0 .398-.17.597-.516.597h-1.074c-.345 0-.516-.199-.516-.597v-7.796h-.624c-.345 0-.538-.177-.538-.554v-1.085c0-.354.193-.53.538-.53h6.753zm-55.819-.044l.386.421c.216.221.517.598.882 1.107.473-.642.84-1.064 1.098-1.218.3-.178.796-.265 1.505-.265h1.462c1.678 0 2.517.885 2.517 2.635v7.174c0 .288-.021.466-.107.554-.108.132-.324.199-.624.199h-3.55c-.364 0-.537-.177-.537-.53v-1.087c0-.376.173-.553.537-.553h2.174V44.37c0-.664-.367-.997-1.098-.997h-1.957c-.86 0-1.29.398-1.29 1.196v6.6c0 .398-.194.597-.537.597H78.88c-.345 0-.516-.2-.516-.598v-6.997c0-.332-.107-.621-.302-.864l-.494-.598c-.128-.155-.194-.288-.194-.42 0-.133.066-.266.194-.377l.73-.687c.303-.288.56-.288.797-.066zM137 58.242V55.81c0-.593-.285-.893-.855-.893h-.496c-.24 0-.408.03-.51.09-.087.053-.212.195-.373.413a3.514 3.514 0 00-.299-.375l-.131-.144c-.08-.074-.167-.074-.27.023l-.248.233c-.044.038-.066.083-.066.128s.022.09.066.142l.167.203c.067.083.103.18.103.293v2.373c0 .135.058.203.175.203h.365c.117 0 .182-.068.182-.203v-2.238c0-.27.147-.405.438-.405h.664c.249 0 .373.112.373.337v1.772h-.737c-.125 0-.183.061-.183.189v.368c0 .12.058.18.183.18h1.203c.103 0 .176-.023.212-.068.03-.03.037-.09.037-.188zm-3.933.053v-3.132c0-.165-.074-.247-.226-.247H132c-.117 0-.182.06-.182.18v.368c0 .128.065.188.182.188h.344v2.643c0 .135.058.203.18.203h.36c.123 0 .182-.068.182-.203zm-1.782-3.184c0-.128-.065-.195-.19-.195h-.882c-.116 0-.182.06-.182.18v.368c0 .128.066.188.182.188h.263l-.116.562c-.096.436-.322.85-.71 1.203l-.028.029-.015-.007a.415.415 0 00.03-.285l-.43-1.99c-.037-.166-.126-.248-.271-.248h-.679c-.124 0-.182.06-.182.18v.368c0 .128.058.188.182.188h.314l.51 2.192-.014.03-.955.767c-.044.037-.074.081-.074.135 0 .037.022.075.051.12l.212.293c.058.083.139.09.226.014l1.336-1.065c.65-.526 1.05-1.165 1.211-1.915l.211-1v-.112zm-3.823.383v-.42c0-.106-.058-.158-.16-.158h-2.49c-.116 0-.181.06-.181.18v.368c0 .128.065.188.182.188h1.408v2.643c0 .135.06.203.176.203h.364c.117 0 .175-.068.175-.203v-2.643h.38c.095 0 .146-.053.146-.158zm-3.517 2.8v-3.13c0-.166-.073-.248-.227-.248h-.838c-.117 0-.184.06-.184.18v.368c0 .128.067.188.184.188h.342v2.643c0 .135.06.203.182.203h.358c.124 0 .183-.068.183-.203zm-1.934 1.548v-4.679c0-.165-.073-.247-.226-.247h-.84c-.116 0-.182.06-.182.18v.368c0 .128.066.188.183.188h.343v4.092c0 .128.007.256.181.256h.373c.109 0 .168-.052.168-.158zm-3.688-1.547v-2.598c0-.518-.234-.781-.709-.781h-2.291c-.116 0-.182.06-.182.18v.368c0 .128.066.188.182.188h.212v2.643c0 .135.059.203.175.203h.365c.116 0 .176-.068.176-.203v-2.643h1.174c.124 0 .182.068.182.187v2.456c0 .135.06.203.175.203h.366c.116 0 .175-.068.175-.203zm-3.612.03v-.375c0-.113-.051-.173-.154-.173h-.401v-.045c.11-.09.168-.24.168-.45v-1.533c0-.292-.058-.503-.168-.638-.118-.128-.314-.195-.6-.195h-1.414c-.124 0-.182.06-.182.188v.367c0 .121.058.18.182.18h1.211c.168 0 .256.083.256.248v1.593c0 .18-.088.27-.263.27h-1.336c-.117 0-.176.06-.176.188v.368c0 .12.06.18.176.18h2.57c.087 0 .13-.06.13-.173zm-3.606-.03v-2.531c0-.563-.277-.848-.83-.848h-1.446c-.117 0-.182.06-.182.18v.368c0 .128.065.188.182.188h1.32c.16 0 .234.082.234.232v2.41c0 .136.058.204.182.204h.358c.124 0 .182-.068.182-.203zm-3.072-1.464v-1.668c0-.165-.073-.247-.226-.247h-.839c-.117 0-.182.06-.182.18v.368c0 .128.065.188.182.188h.343v1.179c0 .135.058.203.182.203h.358c.124 0 .182-.068.182-.203zm-3.696 1.411V55.81c0-.593-.284-.893-.853-.893h-.497c-.24 0-.409.03-.51.09-.088.053-.212.195-.372.413a3.494 3.494 0 00-.3-.375l-.13-.144c-.081-.074-.169-.074-.27.023l-.25.233c-.043.038-.066.083-.066.128s.023.09.067.142l.168.203c.065.083.102.18.102.293v2.373c0 .135.058.203.175.203h.364c.117 0 .184-.068.184-.203v-2.238c0-.27.145-.405.438-.405h.663c.248 0 .372.112.372.337v1.772h-.737c-.123 0-.182.061-.182.189v.368c0 .12.059.18.182.18h1.205c.102 0 .175-.023.21-.068.03-.03.037-.09.037-.188zm-3.787-2.628v-.45c0-.166-.073-.248-.226-.248h-1.73v-.721c0-.128-.065-.195-.182-.195h-.336c-.139 0-.204.052-.204.166v1.282c0 .136.058.204.175.204h1.679l-1.132 2.493a.19.19 0 00-.014.157c.014.054.044.09.088.106l.364.128c.117.037.197.006.242-.106l1.276-2.816zm-3.379 2.68v-3.13c0-.166-.073-.248-.226-.248h-.839c-.117 0-.182.06-.182.18v.368c0 .128.065.188.182.188h.342v2.643c0 .135.06.203.184.203h.357c.124 0 .182-.068.182-.203zm-1.934-.57v-2.56c0-.166-.072-.248-.226-.248h-1.014c-.124 0-.183.06-.183.18v.368c0 .128.059.188.183.188h.525v1.907c0 .135-.066.202-.196.202h-.7c-.11 0-.169.061-.169.189v.368c0 .12.065.18.205.18h.86c.22 0 .394-.075.526-.218a.82.82 0 00.19-.555zm-2.437.57v-3.13c0-.166-.072-.248-.226-.248h-.84c-.116 0-.182.06-.182.18v.368c0 .128.066.188.183.188h.343v2.643c0 .135.058.203.182.203h.358c.124 0 .182-.068.182-.203zm-1.934 0v-2.597c0-.518-.233-.781-.693-.781h-2.167c-.124 0-.182.06-.182.18v.368c0 .128.065.188.182.188h.416l-.139.322a1.356 1.356 0 00-.103.549v1.238h-.408c-.116 0-.175.061-.175.18v.37c0 .126.059.187.175.187h.905c.168 0 .197-.09.197-.225v-1.81c0-.225.03-.375.073-.51l.065-.219c.016-.045.03-.082.06-.082h.897c.117 0 .175.068.175.187v2.456c0 .135.059.203.182.203h.358c.124 0 .182-.068.182-.203zm-5.608-1.463v-1.668c0-.165-.072-.247-.225-.247h-.84c-.116 0-.182.06-.182.18v.368c0 .128.066.188.182.188h.343v1.179c0 .135.06.203.182.203h.358c.124 0 .182-.068.182-.203zm-1.801-1.772c0-.098-.044-.143-.125-.143h-.438c-.117 0-.182.06-.219.173l-.686 2.463c-.036.142-.131.21-.291.21h-.73c-.11 0-.176-.068-.204-.203l-.103-.518h.16c.293 0 .475-.135.563-.405l.467-1.487c.015-.03.015-.06.015-.09 0-.098-.044-.143-.139-.143h-.373c-.124 0-.203.067-.247.195l-.41 1.321c-.028.098-.065.151-.101.151h-.022l-.292-1.465c-.03-.135-.088-.202-.182-.202h-.672c-.117 0-.175.06-.175.18v.368c0 .128.058.188.175.188h.227l.415 2.11c.051.27.124.45.212.556.102.12.27.18.489.18h1.014c.27 0 .482-.075.628-.232.124-.128.233-.346.32-.64l.716-2.485a.286.286 0 00.008-.082zm-4.876 3.236v-2.531c0-.563-.277-.848-.831-.848h-1.445c-.116 0-.182.06-.182.18v.368c0 .128.066.188.182.188h1.32c.16 0 .234.082.234.232v2.41c0 .136.058.204.182.204h.358c.124 0 .182-.068.182-.203zm-3.145 0v-3.132c0-.165-.073-.247-.226-.247h-.84c-.116 0-.182.06-.182.18v.368c0 .128.066.188.183.188h.343v2.643c0 .135.058.203.182.203h.358c.124 0 .182-.068.182-.203zm-1.933-.894v-2.162c0-.218-.103-.323-.307-.323h-.548a.486.486 0 00-.254.052.795.795 0 00-.19.188l-.533.646a.14.14 0 00-.037.105c0 .067.022.12.073.158l.3.24c.072.053.145.037.212-.06l.525-.698.044.007v1.922c0 .076-.03.15-.089.211-.058.067-.116.097-.189.097h-.904a.267.267 0 01-.212-.09.283.283 0 01-.088-.21v-2.38c0-.128-.065-.188-.197-.188H70.4c-.116 0-.183.06-.183.18v.368c0 .128.067.188.183.188h.19v1.862c0 .308.102.556.306.743.197.173.446.263.744.263h.81c.322 0 .577-.105.767-.315.19-.203.285-.473.285-.804zm-3.824-1.787v-.45c0-.166-.074-.248-.227-.248h-1.729v-.721c0-.128-.066-.195-.183-.195h-.335c-.139 0-.205.052-.205.166v1.282c0 .136.06.204.175.204h1.679l-1.13 2.493a.198.198 0 00-.016.157c.015.054.044.09.088.106l.365.128c.116.037.197.006.24-.106l1.278-2.816z"/>
        <path d="M187 2h2v4h-2zm0 6h2v4h-2zm2-2h4v2h-4zm-6 0h4v2h-4zM4 35h2v4H4zm0 6h2v4H4zm2-2h4v2H6zm-6 0h4v2H0zm27 17h2v4h-2zm0 6h2v4h-2zm2-2h4v2h-4zm-6 0h4v2h-4zm122-42h2v4h-2zm0 6h2v4h-2zm2-2h4v2h-4zm-6 0h4v2h-4zM39 0h2v4h-2zm0 6h2v4h-2zm2-2h4v2h-4zm-6 0h4v2h-4z"
              fill="#B87100"/>
    </g>
</svg>
