<svg xmlns="http://www.w3.org/2000/svg" width="32" height="32">
    <g transform="translate(3 3)" fill="none" fill-rule="evenodd">
        <circle cx="13.5" cy="13.5" r="13" stroke="#363D50"/>
        <path stroke="#363D50" stroke-linecap="round" d="M2.5 6.5l6.979 4.441m9.025 5.744L24.5 20.5"/>
        <path fill="#363D50" fill-rule="nonzero"
              d="M13.623 21.181l3.236-6.336.537-.089.513-.093.49-.098.468-.103.445-.105.422-.11.398-.112.377-.115.353-.117.331-.12.308-.122.286-.123.263-.125c.042-.02.083-.04.123-.061l.23-.126.207-.124.095-.063.174-.124.15-.125c.56-.494.587-.964.093-1.31l-.135-.084-.076-.04-.166-.075-.189-.07-.102-.032-.22-.06-.12-.027-.252-.05-.274-.041-.296-.035c-.05-.004-.103-.01-.156-.013l-.327-.022-.35-.013-.37-.004-.39.004-.204.007-.423.02-.443.03-.465.04-.485.052-.507.063c-.086.01-.173.022-.261.035l-.538.08-4.774-5.08a.488.488 0 00-.491-.205l-.602.123a.52.52 0 00-.37.245.447.447 0 00-.025.415l2.425 5.185-.537.112-1.051.229-1.011.236c-.823.2-1.593.402-2.28.603L5.37 11.725a.508.508 0 00-.366-.079l-.771.124a.52.52 0 00-.39.285.433.433 0 00.04.45l1.628 2.283-.959 2.687a.43.43 0 00.082.443c.108.122.277.18.448.153l.77-.117a.543.543 0 00.332-.189l1.829-2.027c1.423-.04 3.165-.17 4.988-.37l-.954 5.716a.436.436 0 00.133.39c.109.1.263.145.419.122l.61-.068a.516.516 0 00.416-.348zm8.601-9.027l-.099.07a5.08 5.08 0 01-.63.348c-1.075.505-2.716.96-4.79 1.285l-.117.026a.998.998 0 00-.62.508l-2.661 5.21.68-4.068a1 1 0 00-1.096-1.159c-.541.06-1.075.113-1.595.16l-1.017.083c-.826.06-1.602.102-2.296.122l-.115.01a.998.998 0 00-.6.32l-1.318 1.46.502-1.406.033-.116a1 1 0 00-.161-.8l-.925-1.298 1.74 1.055a1 1 0 00.798.104c1.342-.392 3.017-.797 4.798-1.16l.116-.03a1 1 0 00.59-1.373l-1.786-3.822 3.99 4.247a1 1 0 00.883.303c2.074-.326 3.766-.397 4.927-.241.271.037.502.084.688.137l.081.025z"/>
    </g>
</svg>
