<svg xmlns="http://www.w3.org/2000/svg" width="24" height="24" viewBox="0 0 24 24">
    <g fill="none" fill-rule="evenodd">
        <g fill="#000">
            <g>
                <g>
                    <path d="M12.251 3C7.191 3 4.5 6.161 4.5 9.609c0 1.598.916 3.592 2.383 4.224.223.098.344.056.393-.145.044-.153.237-.89.33-1.238.03-.111.014-.208-.078-.312-.487-.55-.874-1.55-.874-2.488 0-2.404 1.96-4.739 5.297-4.739 2.885 0 4.903 1.828 4.903 4.441 0 2.953-1.603 4.996-3.686 4.996-1.152 0-2.01-.882-1.739-1.973.33-1.3.974-2.697.974-3.634 0-.84-.487-1.536-1.481-1.536-1.174 0-2.126 1.133-2.126 2.654 0 .967.35 1.62.35 1.62L7.77 16.904c-.364 1.445.05 3.786.086 3.988.022.111.15.146.221.055.114-.146 1.518-2.098 1.911-3.51.143-.513.73-2.598.73-2.598.387.68 1.503 1.251 2.692 1.251 3.535 0 6.09-3.03 6.09-6.79C19.487 5.697 16.323 3 12.251 3z" transform="translate(-423.000000, -5274.000000) translate(0.000000, 5176.000000) translate(415.000000, 90.000000) translate(8.000000, 8.000000)"/>
                </g>
            </g>
        </g>
    </g>
</svg>
