<svg xmlns="http://www.w3.org/2000/svg" width="24" height="24" viewBox="0 0 24 24">
    <g fill="none" fill-rule="evenodd">
        <g fill="#000">
            <g>
                <g>
                    <path d="M21 6.276c-.67.3-1.383.5-2.126.597.765-.468 1.349-1.204 1.623-2.091-.713.436-1.5.744-2.34.916-.677-.74-1.642-1.198-2.695-1.198-2.043 0-3.688 1.7-3.688 3.786 0 .3.025.588.085.863-3.068-.154-5.782-1.662-7.606-3.959-.318.567-.505 1.215-.505 1.913 0 1.31.658 2.473 1.64 3.145-.594-.011-1.175-.188-1.668-.466v.042c0 1.84 1.28 3.367 2.956 3.719-.3.084-.627.124-.967.124-.236 0-.475-.014-.699-.064.479 1.499 1.835 2.6 3.449 2.636-1.256 1.008-2.85 1.614-4.576 1.614-.303 0-.593-.013-.883-.051 1.635 1.08 3.572 1.698 5.661 1.698 6.79 0 10.503-5.77 10.503-10.77 0-.167-.006-.329-.014-.49.733-.532 1.348-1.198 1.85-1.964z" transform="translate(-363.000000, -5274.000000) translate(0.000000, 5176.000000) translate(355.000000, 90.000000) translate(8.000000, 8.000000)"/>
                </g>
            </g>
        </g>
    </g>
</svg>
