<?xml version="1.0" encoding="UTF-8"?>
<svg width="40px" height="43px" viewBox="0 0 40 43" version="1.1" xmlns="http://www.w3.org/2000/svg" xmlns:xlink="http://www.w3.org/1999/xlink">
    <title>078AA59E-69A3-468E-9BB9-4EA8BAB0BBD8</title>
    <defs>
        <filter x="-1.2%" y="-7.6%" width="102.4%" height="118.4%" filterUnits="objectBoundingBox" id="filter-1">
            <feOffset dx="-2" dy="2" in="SourceAlpha" result="shadowOffsetOuter1"></feOffset>
            <feGaussianBlur stdDeviation="5" in="shadowOffsetOuter1" result="shadowBlurOuter1"></feGaussianBlur>
            <feColorMatrix values="0 0 0 0 0.211764706   0 0 0 0 0.239215686   0 0 0 0 0.31372549  0 0 0 0.143852607 0" type="matrix" in="shadowBlurOuter1" result="shadowMatrixOuter1"></feColorMatrix>
            <feMerge>
                <feMergeNode in="shadowMatrixOuter1"></feMergeNode>
                <feMergeNode in="SourceGraphic"></feMergeNode>
            </feMerge>
        </filter>
        <filter color-interpolation-filters="auto" id="filter-2">
            <feColorMatrix in="SourceGraphic" type="matrix" values="0 0 0 0 1.000000 0 0 0 0 1.000000 0 0 0 0 1.000000 0 0 0 1.000000 0"></feColorMatrix>
        </filter>
    </defs>
    <g id="New-Header!!!1920" stroke="none" stroke-width="1" fill="none" fill-rule="evenodd">
        <g id="Isrotel_HP_New1A/1920/-Header-Engine-+-Notification" transform="translate(-1326.000000, -199.000000)">
            <g id="Components-/-Header-/-1920-/-RTL" transform="translate(0.000000, 50.000000)" filter="url(#filter-1)">
                <g id="Group" transform="translate(191.000000, 95.000000)">
                    <g id="noun_notification_3408002" transform="translate(708.000000, 53.000000)" filter="url(#filter-2)">
                        <g transform="translate(439.000000, 8.000000)">
                            <path d="M19.4665623,16.3452632 L18.3293726,14.9810526 C17.6217879,14.1221053 17.2427246,13.0357895 17.2427246,11.9242105 L17.2427246,9.37263158 C17.2427246,5.68421053 14.4629275,2.62736842 10.899733,2.17263158 L10.899733,0.909473684 C10.899733,0.404210526 10.4953989,0 9.98998125,0 C9.48456359,0 9.08022946,0.404210526 9.08022946,0.909473684 L9.08022946,2.17263158 C5.51703497,2.62736842 2.73723785,5.68421053 2.73723785,9.37263158 L2.73723785,11.9242105 C2.73723785,13.0357895 2.35817461,14.1221053 1.65058989,14.9810526 L0.538671037,16.3452632 C-0.0425592699,17.0526316 -0.168913684,18.0378947 0.235420442,18.8715789 C0.639754569,19.7052632 1.44842282,20.2357895 2.38344549,20.2357895 L5.87082733,20.2357895 C6.07299439,22.3578947 7.8419562,24 10.0152521,24 C12.1885481,24 13.9575099,22.3326316 14.1596769,20.2357895 L17.6470588,20.2357895 C18.5820814,20.2357895 19.3907497,19.7052632 19.7950838,18.8715789 C20.1488762,18.0378947 20.0477926,17.0778947 19.4665623,16.3452632 Z M9.98998125,22.1810526 C8.82752063,22.1810526 7.86722708,21.3221053 7.6903309,20.2105263 L12.2896316,20.2105263 C12.1127354,21.3221053 11.1524419,22.1810526 9.98998125,22.1810526 Z M18.1272055,18.0884211 C18.0766638,18.1894737 17.9503094,18.4168421 17.6217879,18.4168421 L2.35817461,18.4168421 C2.02965313,18.4168421 1.90329871,18.1894737 1.85275695,18.0884211 C1.80221518,17.9873684 1.72640253,17.7347368 1.9285696,17.4821053 L3.04048845,16.1178947 C4.000782,14.9305263 4.53147054,13.44 4.53147054,11.8989474 L4.53147054,9.37263158 C4.55674142,6.36631579 6.98274618,3.91578947 9.98998125,3.91578947 C12.9972163,3.91578947 15.4232211,6.36631579 15.4232211,9.34736842 L15.4232211,11.8989474 C15.4232211,13.44 15.9539096,14.9305263 16.9142032,16.1178947 L18.026122,17.4821053 C18.25356,17.7347368 18.1777473,17.9873684 18.1272055,18.0884211 Z" id="Shape" fill="#000000" fill-rule="nonzero"></path>
                        </g>
                    </g>
                </g>
            </g>
        </g>
    </g>
</svg>
