<svg xmlns="http://www.w3.org/2000/svg" width="19" height="19" viewBox="0 0 19 19">
  <g fill="none" fill-rule="evenodd">
    <g fill="#002d74">
      <g>
        <g>
          <path d="M14.483 3.187c.372-.277.9-.246 1.238.092.372.371.372.973 0 1.345L10.845 9.5l4.876 4.876c.372.372.372.974 0 1.345-.337.338-.866.369-1.238.092l-.107-.092L9.5 10.845l-4.876 4.876-.107.092c-.372.277-.9.246-1.238-.092-.372-.371-.372-.973 0-1.345L8.155 9.5 3.279 4.624c-.372-.372-.372-.974 0-1.345.337-.338.866-.369 1.238-.092l.107.092L9.5 8.155l4.876-4.876z" transform="translate(-18 -94) translate(18 92) translate(0 2)"></path>
        </g>
      </g>
    </g>
  </g>
</svg>
