<svg xmlns="http://www.w3.org/2000/svg" width="33" height="32" viewBox="0 0 33 32">
    <g fill="none" fill-rule="evenodd">
        <g>
            <g>
                <g>
                    <g>
                        <g>
                            <path fill="#363D50" d="M23 5.8c.245 0 .45.177.492.41l.008.09v.699L26 7c1.105 0 2 .895 2 2v16c0 1.105-.895 2-2 2H6c-1.105 0-2-.895-2-2V9c0-1.105.895-2 2-2l2.5-.001V6.3c0-.276.224-.5.5-.5.245 0 .45.177.492.41l.008.09v.699h13V6.3c0-.276.224-.5.5-.5zm4 5.699H5V25c0 .513.386.936.883.993L6 26h20c.513 0 .936-.386.993-.883L27 25V11.499zM10 22c.552 0 1 .448 1 1s-.448 1-1 1-1-.448-1-1 .448-1 1-1zm4 0c.552 0 1 .448 1 1s-.448 1-1 1-1-.448-1-1 .448-1 1-1zm4 0c.552 0 1 .448 1 1s-.448 1-1 1-1-.448-1-1 .448-1 1-1zm4 0c.552 0 1 .448 1 1s-.448 1-1 1-1-.448-1-1 .448-1 1-1zm-12-4c.552 0 1 .448 1 1s-.448 1-1 1-1-.448-1-1 .448-1 1-1zm4 0c.552 0 1 .448 1 1s-.448 1-1 1-1-.448-1-1 .448-1 1-1zm4 0c.552 0 1 .448 1 1s-.448 1-1 1-1-.448-1-1 .448-1 1-1zm4 0c.552 0 1 .448 1 1s-.448 1-1 1-1-.448-1-1 .448-1 1-1zm-12-4c.552 0 1 .448 1 1s-.448 1-1 1-1-.448-1-1 .448-1 1-1zm4 0c.552 0 1 .448 1 1s-.448 1-1 1-1-.448-1-1 .448-1 1-1zm4 0c.552 0 1 .448 1 1s-.448 1-1 1-1-.448-1-1 .448-1 1-1zm4 0c.552 0 1 .448 1 1s-.448 1-1 1-1-.448-1-1 .448-1 1-1zM8.5 7.999L6 8c-.513 0-.936.386-.993.883L5 9v1.499h22V9c0-.513-.386-.936-.883-.993L26 8l-2.5-.001V8.7c0 .276-.224.5-.5.5-.245 0-.45-.177-.492-.41L22.5 8.7v-.701h-13V8.7c0 .276-.224.5-.5.5-.245 0-.45-.177-.492-.41L8.5 8.7v-.701z" transform="translate(-1454.000000, -893.000000) translate(0.000000, 854.000000) translate(177.501562, 0.000000) translate(1013.410417, 0.000000) translate(264.000000, 39.000000)"/>
                        </g>
                    </g>
                </g>
            </g>
        </g>
    </g>
</svg>
