<svg xmlns="http://www.w3.org/2000/svg" width="29" height="28" viewBox="0 0 29 28">
    <g fill="none" fill-rule="evenodd">
        <g fill="#363D50">
            <g>
                <g>
                    <g>
                        <g>
                            <g>
                                <path d="M7.635 23.705l.06.05c.209.145.509.084.638-.147l4.378-7.817 3.984 3.673-.499 2.668c-.026.141.02.287.122.388l1.871 1.852.059.05c.225.157.552.071.661-.194l1.649-3.99 3.646-1.262c.307-.106.397-.494.167-.721l-1.872-1.852-.063-.052c-.09-.06-.2-.087-.31-.071l-2.553.356-3.718-3.952 7.741-4.181c.259-.14.31-.486.101-.692l-2.495-2.47-.064-.051c-.112-.076-.255-.097-.387-.054l-9.088 3L8.249 4.6l-.08-.082c-1.183-1.17-2.827-1.38-3.85-.369l-.194.196-.104.122c-.863 1.08-.63 2.745.52 3.803l3.858 3.555-2.748 9.602c-.043.152 0 .316.113.428l1.871 1.851zm.21-1.026L6.57 21.42l2.751-9.615c.045-.158-.003-.327-.124-.439L5.142 7.63c-.86-.791-1.002-2.004-.364-2.7l.166-.166c.636-.63 1.733-.489 2.595.364l.07.071 3.6 3.836.065.056c.113.081.262.106.398.06l9.1-3 1.885 1.866-7.723 4.17c-.253.136-.308.472-.112.68l4.26 4.529.065.056c.091.065.206.094.32.079l2.564-.356 1.22 1.207-3.172 1.094-.084.04c-.08.048-.143.12-.178.207l-1.474 3.568-1.237-1.224.5-2.68c.028-.146-.022-.297-.132-.399l-4.575-4.217-.066-.051c-.209-.13-.495-.065-.62.158L7.844 22.68z" transform="translate(-556.000000, -744.000000) translate(0.000000, 708.000000) translate(135.000000, 0.000000) translate(294.000000, 0.000000) translate(16.000000, 36.000000) translate(111.830508, 0.000000)"/>
                            </g>
                        </g>
                    </g>
                </g>
            </g>
        </g>
    </g>
</svg>
