<svg xmlns="http://www.w3.org/2000/svg" width="14" height="15" viewBox="0 0 14 15">
    <g fill="none" fill-rule="evenodd">
        <g>
            <g>
                <g>
                    <g>
                        <g>
                            <path fill="#363D50" d="M9.3 4.086c.172-.127.416-.113.571.043.172.171.172.449 0 .62L7.621 7l2.25 2.25c.172.172.172.45 0 .621-.155.156-.4.17-.571.043l-.05-.043L7 7.621l-2.25 2.25-.05.043c-.172.127-.416.113-.571-.043-.172-.171-.172-.449 0-.62L6.379 7l-2.25-2.25c-.172-.172-.172-.45 0-.621.155-.156.4-.17.571-.043l.05.043L7 6.379l2.25-2.25z" transform="translate(-947 -758) translate(943 755) translate(1 .4) translate(2 2) translate(1 1)"/>
                        </g>
                    </g>
                </g>
            </g>
        </g>
    </g>
</svg>
