<svg xmlns="http://www.w3.org/2000/svg" width="15" height="14" viewBox="0 0 15 14">
  <g fill="none" fill-rule="evenodd">
    <g>
      <g>
        <g>
          <g>
            <g>
              <path fill="#363d50"
                    d="M8.587 2.187c.342-.264.875-.246 1.19.04.287.261.295.654.037.922l-.086.076-4.934 3.582c-.126.098-.144.228-.054.334l.054.052 4.934 3.582c.343.264.364.71.05.997-.287.261-.754.3-1.093.106l-.098-.065-4.934-3.582c-.827-.64-.869-1.679-.124-2.358l.124-.104 4.934-3.582z"
                    transform="translate(-294 -692) translate(222 136) translate(64 544) translate(8.287 10) translate(0 2)"/>
            </g>
          </g>
        </g>
      </g>
    </g>
  </g>
</svg>
