<svg width="132" height="28" xmlns="http://www.w3.org/2000/svg" xmlns:xlink="http://www.w3.org/1999/xlink">
    <defs>
        <path id="a" d="M0 20.464h94.36V0H0z"/>
    </defs>
    <g transform="translate(19.416 5.768)" fill="none" fill-rule="evenodd">
        <path d="M53.828 0h-3.836l.017 16.288h3.762c2.465 0 3.936-1.48 3.936-3.959l-.017-8.7C57.69 1.355 56.247 0 53.828 0zm-2.356 1.355h2.232c1.848 0 2.506 1.254 2.506 2.426l.017 8.624c0 1.166-.663 2.527-2.531 2.527h-2.207l-.017-13.577zM9.41 3.967c-.568-.514-1.292-.774-2.152-.774-.844 0-1.563.26-2.14.773-.58.518-.875 1.251-.875 2.18v1.079c0 .718.212 1.35.629 1.881.41.522.875.914 1.383 1.164.48.236.92.523 1.308.85.364.307.55.63.55.96v2.228H6.404v-2.373H4.243v1.482c0 .882.298 1.6.886 2.132.584.53 1.3.798 2.13.798.844 0 1.565-.269 2.14-.798.58-.533.875-1.25.875-2.132V12.08c0-.601-.142-1.143-.423-1.61a3.504 3.504 0 0 0-1.008-1.097c-.375-.257-.758-.5-1.137-.721a5.257 5.257 0 0 1-.943-.685c-.241-.225-.358-.467-.358-.742v-1.98h1.707v2.353h2.162V6.146c0-.929-.29-1.661-.863-2.18M22.016 14.305h-1.708l.003-9.063h1.707m1.288-1.28c-.576-.512-1.296-.773-2.14-.773-.844 0-1.564.26-2.14.773-.58.519-.876 1.252-.876 2.18v7.271c0 .93.295 1.663.876 2.18.576.514 1.296.774 2.14.774.844 0 1.564-.26 2.14-.774.58-.517.875-1.25.875-2.18v-7.27c0-.929-.294-1.662-.875-2.18" fill="#363D50"/>
        <mask id="b" fill="#fff">
            <use xlink:href="#a"/>
        </mask>
        <path fill="#363D50" mask="url(#b)" d="M0 16.193h2.14V.022H0zM16.747 3.19c-.844 0-1.564.263-2.14.786-.023.02-.045.044-.068.066v-.853h-2.142v13.004h2.142V5.247h2.208V3.189zM34.996 5.247h1.689v1.966c0 .275-.116.517-.355.742-.257.242-.57.473-.933.685-.133.079-.268.16-.401.245V5.247zm2.961-1.293c-.57-.513-1.282-.773-2.117-.773-.85 0-1.567.26-2.129.774-.567.518-.854 1.25-.854 2.18v7.27c0 .882.29 1.599.865 2.132.57.53 1.282.798 2.118.798.82 0 1.53-.268 2.107-.798.582-.532.877-1.25.877-2.132v-1.474h-2.14v2.378h-1.688v-2.241c0-.33.182-.653.543-.96a6.43 6.43 0 0 1 1.294-.85c.503-.25.963-.641 1.369-1.164.412-.53.622-1.163.622-1.88v-1.08c0-.928-.292-1.662-.867-2.18zM43.067 14.309 43.068.022h-2.147v13.443c0 .912.236 1.63.7 2.133.467.505 1.131.761 1.975.761.26 0 .407-.033.657-.092V14.31h-1.186zM31.104 3.192h-1.878l-.002-3.17h-2.143L27.08 3.19l-1.234.003v2.054h1.235v8.22c0 .911.236 1.629.7 2.132.467.505 1.132.761 1.975.761.411 0 .812-.074 1.191-.22l.088-.035V14.31h-1.808l.001-9.062h1.876V3.192zM63.19 2.859c-2.005 0-3.251 1.402-3.251 3.66v6.29c0 2.379 1.175 3.636 3.398 3.636.965 0 1.93-.27 2.647-.739l.061-.04-.43-1.109-.086.042c-.478.232-1.207.54-2.02.54-1.538 0-2.166-.74-2.166-2.554v-2.58h4.78V6.269c0-2.135-1.097-3.41-2.933-3.41m-.123 1.28c1.48 0 1.7 1.288 1.7 2.056v2.58h-3.424v-2.53c0-1.018.453-2.107 1.724-2.107M84.477 4.067c-.467-.831-1.411-1.209-2.223-1.209-1.374 0-2.76.932-2.76 3.012v7.214c0 1.784 1.016 2.936 2.589 2.936.768 0 1.77-.458 2.288-1.458v2.266c0 1.563-.72 2.356-2.141 2.356-.708 0-1.357-.155-2.17-.517l-.083-.037-.51 1.213.077.037c.816.404 1.638.583 2.661.583 1.074 0 1.968-.324 2.584-.94.654-.653.986-1.593.986-2.795V3.083h-1.28l-.018.984zm-.106 2.652v5.341c0 1.415-.909 2.656-1.946 2.656-1.33 0-1.528-1.133-1.528-1.807v-6.94c0-1.21.54-1.906 1.48-1.906.922 0 1.994 1.16 1.994 2.656zM92.064 2.859a2.994 2.994 0 0 0-2.588 1.463l-.02-1.214h-1.304V16.22h1.404V6.844c0-1.292.819-2.73 1.994-2.73.92 0 1.406.572 1.406 1.656v10.45h1.404V5.171c0-1.383-.923-2.312-2.296-2.312M70.936 4.114c.926 0 1.34.544 1.48 1.94l.008.085 1.35-.057-.004-.092c-.094-1.974-1.1-3.106-2.76-3.106-1.737 0-2.86 1.093-2.86 2.786 0 1.25.596 2.244 1.49 3.352l1.202 1.498c.607.756 1.524 1.898 1.524 2.964 0 1.084-.525 1.68-1.48 1.68-1.006 0-1.492-.577-1.676-1.992l-.01-.079h-1.399l.006.097c.133 2.053 1.247 3.23 3.055 3.23 1.965 0 2.86-1.548 2.86-2.987 0-1.154-.545-2.374-1.664-3.727l-1.47-1.798c-.77-.924-1.083-1.601-1.083-2.337 0-.885.562-1.457 1.43-1.457M75.776 16.19h1.411l.001-13.047h-1.412zM75.768 1.47h1.391V.052h-1.391z"/>
    </g>
</svg>
