<svg width="137" height="29" xmlns="http://www.w3.org/2000/svg" xmlns:xlink="http://www.w3.org/1999/xlink">
    <defs>
        <path id="a" d="M0 15.916h108.002V0H0z"/>
    </defs>
    <g transform="translate(.929 1.072)" fill="none" fill-rule="evenodd">
        <rect width="135.287" height="27.285" rx="4.547"/>
        <g transform="translate(13.642 5.684)">
            <path d="M8.959 3.798c-.541-.494-1.23-.745-2.049-.745-.804 0-1.489.25-2.037.745-.553.498-.834 1.205-.834 2.1v1.038c0 .69.202 1.3.6 1.811.39.503.832.88 1.316 1.121.456.228.875.504 1.245.818.347.296.523.607.523.925v2.145H6.098v-2.285H4.038v1.427c0 .85.284 1.54.844 2.053.556.51 1.238.768 2.027.768.804 0 1.49-.258 2.039-.768.552-.514.832-1.204.832-2.053V11.61c0-.58-.136-1.1-.403-1.55a3.366 3.366 0 0 0-.96-1.057 17.693 17.693 0 0 0-1.082-.694 5.008 5.008 0 0 1-.897-.66c-.23-.216-.342-.45-.342-.714V5.03h1.626v2.266h2.058V5.897c0-.894-.277-1.6-.822-2.099M20.96 13.753h-1.626l.002-8.726h1.625m1.226-1.233c-.548-.494-1.233-.744-2.037-.744-.804 0-1.489.25-2.037.744-.553.5-.834 1.205-.834 2.1v7c0 .895.28 1.601.834 2.1.548.494 1.233.744 2.037.744.804 0 1.489-.25 2.037-.744.553-.499.834-1.205.834-2.1v-7c0-.895-.28-1.6-.834-2.1" fill="#FFF"/>
            <mask id="b" fill="#fff">
                <use xlink:href="#a"/>
            </mask>
            <path fill="#FFF" mask="url(#b)" d="M0 15.572h2.037V0H0zM15.943 3.05c-.803 0-1.489.254-2.037.757-.022.02-.043.043-.065.064V3.05H11.8V15.57h2.04V5.031h2.102V3.05zM33.316 5.031h1.609v1.894c0 .264-.111.498-.338.714a4.92 4.92 0 0 1-.889.66c-.127.075-.254.154-.382.235V5.03zm2.82-1.245c-.542-.494-1.22-.744-2.016-.744-.81 0-1.491.25-2.027.745-.54.499-.813 1.205-.813 2.098v7.002c0 .848.277 1.54.823 2.052.543.51 1.222.769 2.017.769.782 0 1.456-.259 2.006-.768.554-.513.835-1.204.835-2.053v-1.42h-2.036v2.29h-1.609V11.6c0-.317.174-.628.517-.924.367-.315.782-.59 1.233-.818.478-.241.916-.618 1.303-1.121.392-.511.592-1.12.592-1.811v-1.04c0-.894-.278-1.6-.825-2.099zM41 13.757 41.002 0h-2.044v12.944c0 .878.225 1.57.667 2.054.445.486 1.077.733 1.88.733.248 0 .387-.032.625-.089v-1.885h-1.128zM29.611 3.053h-1.787L27.822 0h-2.04l-.002 3.05-1.174.003V5.03h1.176v7.914c0 .878.224 1.569.667 2.053.444.487 1.076.733 1.88.733.39 0 .772-.071 1.133-.212l.084-.033v-1.729h-1.721V5.031h1.786V3.053zM66.062 2.748c-1.891 0-3.066 1.283-3.066 3.348v6.424c0 2.143 1.092 3.372 2.995 3.372 1.79 0 2.902-1.08 2.902-2.817v-1.368h-1.25v1.247c0 .776-.279 1.7-1.605 1.7-1.403 0-1.698-1.108-1.698-2.038V5.951c0-.598.168-1.99 1.722-1.99 1.467 0 1.58 1.209 1.58 1.58v1.343h1.251v-1.44c0-1.244-.741-2.696-2.831-2.696M73.036 14.508c-.66 0-.76-.474-.76-.757V.001h-1.344v13.992c0 1.162.614 1.802 1.728 1.802a3.15 3.15 0 0 0 1.036-.173l.059-.02v-1.188l-.104.024a2.75 2.75 0 0 1-.615.07M49.025 8.053h3.847v-1.31h-3.847V1.31h4.778V0H47.61v15.522h6.218v-1.31h-4.802zM80.1 12.037c0 1.249-.784 2.64-1.91 2.64-.905 0-1.345-.5-1.345-1.53V2.99H75.5v10.666c0 1.353.873 2.26 2.173 2.26 1.049 0 1.962-.532 2.502-1.441l.02 1.076h1.248V2.99H80.1v9.048zM61.542 2.989h-1.265l-1.771 4.86-1.75-4.803-.021-.057h-1.453l2.404 6.198-2.486 6.242-.05.122h1.313l1.925-5.012 1.858 4.933.022.056h1.428l-2.488-6.414zM97.486 13 95.632 2.99h-1.396l2.51 12.502.013.07h1.36l2.525-12.466.021-.106h-1.302zM108.002 9.661V6.047c0-2.066-1.05-3.3-2.808-3.3-1.92 0-3.113 1.357-3.113 3.542v6.086c0 2.3 1.126 3.517 3.254 3.517.925 0 1.848-.26 2.534-.714l.059-.04-.41-1.072-.084.04c-.458.225-1.157.523-1.934.523-1.474 0-2.075-.716-2.075-2.472V9.661h4.577zm-4.577-3.638c0-.985.435-2.037 1.652-2.037 1.416 0 1.628 1.246 1.628 1.989V8.47h-3.28V6.023zM86.437 3.962c.886 0 1.283.526 1.416 1.877l.008.082 1.294-.055-.004-.089c-.091-1.91-1.055-3.005-2.644-3.005-1.663 0-2.737 1.058-2.737 2.696 0 1.208.57 2.17 1.427 3.243l1.15 1.45c.581.73 1.46 1.834 1.46 2.866 0 1.048-.504 1.626-1.417 1.626-.965 0-1.43-.558-1.606-1.928l-.01-.076h-1.339l.006.094c.127 1.986 1.194 3.125 2.925 3.125 1.319 0 2.737-.904 2.737-2.89 0-1.117-.52-2.297-1.591-3.606l-1.41-1.74c-.734-.894-1.035-1.55-1.035-2.26 0-.857.538-1.41 1.37-1.41M91.09 15.55h1.344l.001-12.561h-1.344zM91.082 1.377h1.325V.012h-1.325z"/>
        </g>
    </g>
</svg>
