<svg xmlns="http://www.w3.org/2000/svg" width="32" height="32" viewBox="0 0 32 32">
    <g fill="none" fill-rule="evenodd">
        <g fill="#002D74">
            <g>
                <g>
                    <g>
                        <g>
                            <g>
                                <path d="M16 4c5.523 0 10 4.477 10 10 0 3.682-3.333 8.349-10 14l-.396-.338-.768-.669C8.946 21.793 6 17.461 6 14 6 8.477 10.477 4 16 4zm0 1c-4.97 0-9 4.03-9 9 0 2.156 1.362 4.81 4.109 7.918l.531.588c1.095 1.187 2.385 2.438 3.872 3.75l.488.425.113-.096c.886-.772 1.706-1.522 2.459-2.252l.63-.62c.612-.615 1.176-1.214 1.691-1.797l.499-.578c2.333-2.766 3.529-5.156 3.604-7.139L25 14c0-4.97-4.03-9-9-9zm0 4c2.761 0 5 2.239 5 5s-2.239 5-5 5-5-2.239-5-5 2.239-5 5-5zm0 1c-2.21 0-4 1.79-4 4s1.79 4 4 4 4-1.79 4-4-1.79-4-4-4z" transform="translate(-1477.000000, -217.000000) translate(702.000000, 182.000000) translate(161.000000, 32.000000) translate(508.000000, 0.000000) translate(16.000000, 3.000000) translate(90.000000, 0.000000)"/>
                            </g>
                        </g>
                    </g>
                </g>
            </g>
        </g>
    </g>
</svg>
