<svg xmlns="http://www.w3.org/2000/svg" width="32" height="32" viewBox="0 0 32 32">
    <defs>
        <filter id="f1ybmdo2pa" width="102.4%" height="137.1%" x="-1.2%" y="-18.5%" filterUnits="objectBoundingBox">
            <feOffset dx="-2" dy="2" in="SourceAlpha" result="shadowOffsetOuter1"/>
            <feGaussianBlur in="shadowOffsetOuter1" result="shadowBlurOuter1" stdDeviation="5"/>
            <feColorMatrix in="shadowBlurOuter1" result="shadowMatrixOuter1" values="0 0 0 0 0.211764706 0 0 0 0 0.239215686 0 0 0 0 0.31372549 0 0 0 0.143852607 0"/>
            <feMerge>
                <feMergeNode in="shadowMatrixOuter1"/>
                <feMergeNode in="SourceGraphic"/>
            </feMerge>
        </filter>
    </defs>
    <g fill="none" fill-rule="evenodd">
        <g fill="#363D50">
            <g filter="url(#f1ybmdo2pa)" transform="translate(-220.000000, -64.000000) translate(0.000000, 50.000000)">
                <g>
                    <g>
                        <g>
                            <g>
                                <path d="M10 11c5.523 0 10 4.274 10 9.545 0 .251-.213.455-.476.455s-.476-.204-.476-.455c0-4.77-4.051-8.636-9.048-8.636S.952 15.776.952 20.545c0 .251-.213.455-.476.455S0 20.796 0 20.545C0 15.274 4.477 11 10 11z" transform="translate(52.000000, 10.000000) translate(122.000000, 4.000000) translate(46.000000, 0.000000) translate(6.000000, 5.000000)"/>
                                <path d="M10 0C6.686 0 4 2.686 4 6s2.686 6 6 6 6-2.686 6-6-2.686-6-6-6zm0 1c2.761 0 5 2.239 5 5s-2.239 5-5 5-5-2.239-5-5 2.239-5 5-5z" transform="translate(52.000000, 10.000000) translate(122.000000, 4.000000) translate(46.000000, 0.000000) translate(6.000000, 5.000000)"/>
                            </g>
                        </g>
                    </g>
                </g>
            </g>
        </g>
    </g>
</svg>
