<?xml version="1.0" encoding="UTF-8"?>
<svg width="156px" height="144px" viewBox="0 0 156 144" version="1.1" xmlns="http://www.w3.org/2000/svg" xmlns:xlink="http://www.w3.org/1999/xlink">
    <title>Logos /Isrotel Cube@1x</title>
    <defs>
        <filter x="-1.2%" y="-18.5%" width="102.4%" height="137.1%" filterUnits="objectBoundingBox" id="filter-1">
            <feOffset dx="-2" dy="2" in="SourceAlpha" result="shadowOffsetOuter1"></feOffset>
            <feGaussianBlur stdDeviation="5" in="shadowOffsetOuter1" result="shadowBlurOuter1"></feGaussianBlur>
            <feColorMatrix values="0 0 0 0 0.211764706   0 0 0 0 0.239215686   0 0 0 0 0.31372549  0 0 0 0.143852607 0" type="matrix" in="shadowBlurOuter1" result="shadowMatrixOuter1"></feColorMatrix>
            <feMerge>
                <feMergeNode in="SourceGraphic"></feMergeNode>
            </feMerge>
        </filter>
    </defs>
    <g id="Symbols" stroke="none" stroke-width="1" fill="none" fill-rule="evenodd">
        <g id="Components-/-Header-/-1920-/-RTL" transform="translate(-1669.000000, 8.000000)" filter="url(#filter-1)">
            <g id="Group" transform="translate(1681.000000, 0.000000)">
                <rect id="Rectangle" fill="#002D74" x="0" y="0" width="136" height="124"></rect>
                <g transform="translate(18.000000, 32.000000)" fill="#FFFFFF">
                    <path d="M16.4069244,6.26086957 C18.4105541,6.26086957 20.0992411,6.84951271 21.4244287,8.01015184 C22.6936078,9.12288048 23.3681435,10.6749124 23.4324241,12.6262835 L23.4375,12.9377075 L23.4375,16.2218568 L18.3977406,16.2218568 L18.3970662,10.9020943 L14.4161082,10.9020943 L14.4154338,15.3768476 C14.4154338,15.9981192 14.6892384,16.5468092 15.2516845,17.0542142 C15.7713546,17.5233784 16.3886331,17.9734629 17.0920535,18.3952424 L17.450889,18.6037307 C18.3350218,19.103811 19.2272474,19.6518351 20.1019387,20.2338194 C21.0130473,20.8391097 21.8027647,21.6747965 22.450859,22.7162421 C23.0511274,23.6818876 23.3799562,24.7902131 23.4305925,26.0160863 L23.4375,26.3533109 L23.4375,29.375767 C23.4375,31.3687635 22.7516395,32.9908616 21.3994761,34.1954492 C20.0567541,35.3927121 18.3768344,36 16.4069244,36 C14.4727574,36 12.8022792,35.3933779 11.4420229,34.196781 C10.1431367,33.0555927 9.45013067,31.5396859 9.38078069,29.687561 L9.375,29.375767 L9.375,26.025695 L14.4154338,26.025695 L14.4161082,31.3907378 L18.3970662,31.3907378 L18.3977406,26.3533109 C18.3977406,25.6075187 17.9661273,24.8777077 17.1163887,24.1831887 C16.3232993,23.5358644 15.4383024,22.9599147 14.4808251,22.4673841 L14.0660968,22.261442 C12.8832066,21.6961049 11.7981039,20.8111425 10.8411363,19.6298609 C9.93348959,18.5105511 9.44294912,17.1893802 9.38157771,15.6988316 L9.375,15.3768476 L9.375,12.9377075 C9.375,10.8381693 10.0628837,9.17944749 11.4170703,8.00882007 C12.7597922,6.84884682 14.4383632,6.26086957 16.4069244,6.26086957 Z M47.65625,6.26086957 C49.6241368,6.26086957 51.3027078,6.84779548 52.6454297,8.00569461 C53.9325477,9.11643362 54.6171099,10.6656904 54.6823484,12.615282 L54.6875,12.9264336 L54.6875,29.334436 C54.6875,31.4308848 54.0002907,33.085976 52.6454297,34.255175 C51.3027078,35.4130741 49.6241368,36 47.65625,36 C45.6883632,36 44.0097922,35.4130741 42.6670703,34.255175 C41.3799523,33.1444359 40.6953901,31.5951792 40.6301516,29.6455876 L40.625,29.334436 L40.625,12.9264336 C40.625,10.8299848 41.3122093,9.17489357 42.6670703,8.00569461 C44.0097922,6.84779548 45.6883632,6.26086957 47.65625,6.26086957 Z M4.6875,0 L4.6875,36 L0,36 L0,0 L4.6875,0 Z M80.4684092,7.82608696 C82.4369274,7.82608696 84.1157572,8.38311804 85.4578668,9.48204006 C86.7451741,10.536204 87.4296227,12.00655 87.4948493,13.8562992 L87.5,14.1515124 L87.5,16.4622767 C87.5,17.999632 87.0065072,19.3553056 86.0338356,20.4914472 C85.1572156,21.517297 84.1723459,22.3072611 83.1028523,22.8443327 L82.8090919,22.984524 C81.6919169,23.4917188 80.6647157,24.1042637 79.7581613,24.8051262 C78.969527,25.416094 78.5417549,26.0558905 78.4846683,26.7098683 L78.4780791,26.8610314 L78.4780791,31.6617183 L82.4594209,31.6617183 L82.4594209,26.5683219 L87.5,26.5683219 L87.5,29.7244109 C87.5,31.6144053 86.8047477,33.150499 85.4326469,34.2916872 C84.0734968,35.4253054 82.4028464,36 80.4684092,36 C78.4985277,36 76.8183347,35.4246746 75.4755435,34.2904256 C74.1943851,33.2087022 73.5115266,31.7731147 73.4431956,30.0196008 L73.4375,29.7244109 L73.4375,14.1515124 C73.4375,12.1637378 74.1150302,10.592948 75.4510052,9.48330174 C76.7760742,8.38374888 78.4644467,7.82608696 80.4684092,7.82608696 Z M97.2219811,0 L97.2206246,31.4822333 L100,31.4822333 L100,35.7962105 L99.5456905,35.8936606 C99.1966606,35.9625825 98.896718,36 98.4597459,36 C96.4820351,36 94.9248253,35.4353603 93.8301665,34.3223062 C92.8008059,33.2747661 92.2505751,31.8063643 92.1926154,29.9537325 L92.1875,29.6228163 L92.1875,0 L97.2219811,0 Z M65.8430572,0 L65.8492457,6.98583018 L70.3125,6.98583018 L70.3125,11.5132504 L65.8533713,11.5132504 L65.8519961,31.4823148 L70.1502248,31.4823148 L70.1502248,35.4386155 L69.9411924,35.5132504 C69.0390526,35.8358031 68.0860299,36 67.1082533,36 C65.1031926,36 63.5237602,35.4353705 62.4146508,34.3216874 C61.3704056,33.2747792 60.8125296,31.805859 60.7537664,29.9531981 L60.7485801,29.6222823 L60.7485801,11.5126014 L57.8125,11.5126014 L57.8125,6.98583018 L60.7458297,6.97934018 L60.7485801,0.000648999459 L65.8430572,0 Z M32.7411326,6.26086957 L32.7411326,8.10824512 L32.8888538,7.96402859 L32.8888538,7.96402859 C34.0562511,6.9003847 35.4997105,6.33021336 37.1818174,6.2668148 L37.5,6.26086957 L37.5,10.7188197 L32.7411326,10.7188197 L32.7411326,34.4347826 L28.125,34.4347826 L28.125,6.26086957 L32.7411326,6.26086957 Z M50,10.9565217 L45.318052,10.9565217 L45.3125,31.3043478 L49.994448,31.3043478 L50,10.9565217 Z M82.8125,12.5217391 L78.125,12.5217391 L78.125,20.3478261 L78.6819466,20.0811429 L78.6819466,20.0811429 L79.2388932,19.8225386 C80.2444466,19.3650505 81.1151772,18.8689105 81.827812,18.3480584 C82.4354509,17.9054609 82.7564966,17.4298525 82.8057845,16.8982943 L82.8125,16.7519194 L82.8125,12.5217391 Z" id="Isrotel"></path>
                    <path d="M75.163,52.634 L75.163,46.658 L72.445,46.658 L72.445,48.044 L73.561,48.044 L73.561,52.634 L75.163,52.634 Z M64.305,56.252 C67.509,56.252 69.651,53.948 69.651,50.582 L69.651,46.658 L68.157,46.658 L68.157,50.474 C68.157,53.156 66.627,54.902 64.341,54.902 C62.955,54.902 61.875,54.272 61.263,53.138 C63.981,52.598 65.169,51.32 65.169,48.836 L65.169,46.658 L63.693,46.658 L63.693,48.71 C63.693,50.816 62.829,51.68 60.831,51.968 C60.741,51.572 60.705,51.14 60.705,50.69 L60.705,46.658 L59.211,46.658 L59.211,50.852 C59.211,54.218 61.299,56.252 64.305,56.252 Z M56.291,56 L56.291,50.15 C56.291,49.196 56.147,48.566 55.877,48.062 C55.391,47.216 54.509,46.658 53.177,46.658 L49.505,46.658 L49.505,48.044 L52.871,48.044 C54.185,48.044 54.725,48.854 54.725,50.186 L54.725,56 L56.291,56 Z M46.855,56 L46.855,46.658 L44.137,46.658 L44.137,48.044 L45.253,48.044 L45.253,56 L46.855,56 Z M37.365,56.234 C40.011,56.234 41.757,54.236 41.757,51.284 C41.757,49.538 41.667,47.774 40.497,46.982 C40.047,46.676 39.507,46.532 38.823,46.532 C38.229,46.532 37.563,46.64 36.915,46.856 L36.915,48.224 C37.437,48.026 37.995,47.918 38.463,47.918 C40.011,47.918 40.173,49.07 40.173,51.41 C40.173,53.444 39.111,54.848 37.455,54.848 C35.835,54.848 34.809,53.516 34.809,51.428 L34.809,46.658 L33.225,46.658 L33.225,51.554 C33.225,54.416 34.845,56.234 37.365,56.234 Z M27.299,56 L30.629,47.936 L30.629,46.658 L25.175,46.658 L25.175,43.328 L23.609,43.328 L23.609,48.044 L28.919,48.044 L25.625,56 L27.299,56 Z" id="ישרוטל" fill-rule="nonzero"></path>
                </g>
            </g>
        </g>
    </g>
</svg>
