<?xml version="1.0" encoding="UTF-8"?>
<svg width="131px" height="24px" viewBox="0 0 131 24" version="1.1" xmlns="http://www.w3.org/2000/svg" xmlns:xlink="http://www.w3.org/1999/xlink">
    <title>Logos/Hotel Logos/Segments/Exclusive no bg</title>
    <defs>
        <filter id="filter-1">
            <feColorMatrix in="SourceGraphic" type="matrix" values="0 0 0 0 0.000000 0 0 0 0 0.000000 0 0 0 0 0.000000 0 0 0 1.000000 0"></feColorMatrix>
        </filter>
        <polygon id="path-2" points="0 14.585796 101.94228 14.585796 101.94228 3.6e-05 0 3.6e-05"></polygon>
    </defs>
    <g id="Logos/Hotel-Logos/Segments/Exclusive-no-bg" stroke="none" stroke-width="1" fill="none" fill-rule="evenodd">
        <g filter="url(#filter-1)" id="Group-21-Copy">
            <g transform="translate(15.000000, 5.000000)">
                <path d="M8.456292,3.48084 C7.945452,3.02796 7.294932,2.79792 6.522372,2.79792 C5.763852,2.79792 5.117292,3.0276 4.599612,3.48048 C4.077612,3.93732 3.812652,4.5846 3.812652,5.40432 L3.812652,6.35616 C3.812652,6.9894 4.003092,7.54812 4.377852,8.01612 C4.746492,8.47692 5.164452,8.82252 5.620572,9.0432 C6.051492,9.252 6.446772,9.50472 6.795972,9.79308 C7.123572,10.06416 7.289892,10.34928 7.289892,10.64016 L7.289532,12.60648 L5.755572,12.60648 L5.755212,10.51236 L3.812652,10.51236 L3.812652,11.81988 C3.812652,12.59856 4.080852,13.23144 4.609332,13.7016 C5.133492,14.16852 5.777172,14.4054 6.522372,14.4054 C7.281612,14.4054 7.929252,14.16852 8.446572,13.70124 C8.967852,13.23072 9.232092,12.59784 9.232092,11.81988 L9.232092,10.64016 C9.232092,10.10952 9.104292,9.6318 8.851932,9.22068 C8.602092,8.81424 8.297532,8.48808 7.946532,8.25156 C7.609572,8.02476 7.265412,7.81056 6.924852,7.61544 C6.596172,7.42788 6.311052,7.22448 6.077412,7.01064 C5.860692,6.81264 5.755212,6.5988 5.755212,6.35616 L5.755572,4.60944 L7.289532,4.60944 L7.289892,6.68592 L9.232092,6.68592 L9.232092,5.40432 C9.232092,4.58496 8.971092,3.93804 8.456292,3.48084" id="Fill-1" fill="#FFFFFF"></path>
                <path d="M19.783296,12.603528 L18.248976,12.603528 L18.251136,4.606488 L19.785096,4.606488 M20.942136,3.477168 C20.424816,3.024648 19.777896,2.794968 19.019376,2.794968 C18.260856,2.794968 17.613936,3.024648 17.096616,3.477168 C16.574616,3.934368 16.309656,4.581648 16.309656,5.401368 L16.309656,11.816928 C16.309656,12.636648 16.574616,13.283928 17.096616,13.740768 C17.613936,14.193648 18.260856,14.422968 19.019376,14.422968 C19.777896,14.422968 20.424816,14.193648 20.942136,13.740768 C21.464496,13.283928 21.729096,12.636648 21.729096,11.816928 L21.729096,5.401368 C21.729096,4.581648 21.464496,3.934368 20.942136,3.477168" id="Fill-3" fill="#FFFFFF"></path>
                <mask id="mask-3" fill="white">
                    <use xlink:href="#path-2"></use>
                </mask>
                <g id="Clip-6"></g>
                <polygon id="Fill-5" fill="#FFFFFF" mask="url(#mask-3)" points="0 14.270076 1.92276 14.270076 1.92276 0.000396 0 0.000396"></polygon>
                <path d="M15.048612,2.794932 C14.290092,2.794932 13.643172,3.028212 13.125852,3.488652 C13.104612,3.507372 13.084812,3.527892 13.064292,3.547332 L13.064292,2.794932 L11.139372,2.794932 L11.139372,14.269572 L13.064292,14.269572 L13.064292,4.610412 L15.048612,4.610412 L15.048612,2.794932 Z" id="Fill-7" fill="#FFFFFF" mask="url(#mask-3)"></path>
                <path d="M31.4469,4.610556 L32.96502,4.610556 L32.96502,6.345756 C32.96502,6.588396 32.86062,6.802236 32.64606,7.000236 C32.4153,7.214076 32.13342,7.417476 31.80762,7.605036 C31.68774,7.674516 31.56714,7.746516 31.4469,7.820676 L31.4469,4.610556 Z M34.10838,3.469716 C33.59646,3.017196 32.95638,2.787516 32.20578,2.787516 C31.44186,2.787516 30.79782,3.017196 30.29274,3.470436 C29.78334,3.927636 29.52486,4.574556 29.52486,5.393556 L29.52486,11.809476 C29.52486,12.587436 29.78658,13.220316 30.3021,13.690476 C30.81402,14.158116 31.45482,14.394996 32.20578,14.394996 C32.94342,14.394996 33.58026,14.158116 34.09866,13.691196 C34.62174,13.221036 34.88706,12.588156 34.88706,11.809476 L34.88706,10.509156 L32.96502,10.509156 L32.96502,12.607596 L31.4469,12.607596 L31.4469,10.629756 C31.4469,10.338876 31.61106,10.053756 31.93506,9.782676 C32.28066,9.493956 32.67234,9.241596 33.09822,9.032796 C33.54966,8.812116 33.9633,8.466516 34.32798,8.005716 C34.69878,7.537356 34.88706,6.978996 34.88706,6.345756 L34.88706,5.393556 C34.88706,4.574196 34.62498,3.926916 34.10838,3.469716 L34.10838,3.469716 Z" id="Fill-8" fill="#FFFFFF" mask="url(#mask-3)"></path>
                <path d="M38.700144,12.60738 L38.700864,0.00018 L36.771264,0.00018 L36.771264,11.86254 C36.771264,12.66714 36.983304,13.30074 37.400904,13.74462 C37.820304,14.18994 38.417184,14.41638 39.174984,14.41638 C39.409344,14.41638 39.540744,14.38722 39.765384,14.33502 L39.765384,12.60738 L38.700144,12.60738 Z" id="Fill-9" fill="#FFFFFF" mask="url(#mask-3)"></path>
                <path d="M27.949716,2.79756 L26.262756,2.79756 L26.260596,0 L24.334956,0.00036 L24.333876,2.79468 L23.225076,2.79756 L23.225076,4.61016 L24.334956,4.61016 L24.334956,11.86272 C24.334956,12.66732 24.546636,13.30056 24.964596,13.74444 C25.383636,14.19048 25.980876,14.41656 26.738676,14.41656 C27.108036,14.41656 27.468396,14.35104 27.809316,14.2218 L27.888156,14.19156 L27.888156,12.60756 L26.263476,12.6072 L26.264196,4.61052 L27.949716,4.61052 L27.949716,2.79756 Z" id="Fill-10" fill="#FFFFFF" mask="url(#mask-3)"></path>
                <path d="M62.355204,2.517912 C60.570324,2.517912 59.461524,3.693672 59.461524,5.586192 L59.461524,11.473272 C59.461524,13.437072 60.491844,14.563512 62.288604,14.563512 C63.978084,14.563512 65.027484,13.574592 65.027484,11.982312 L65.027484,10.728792 L63.847404,10.728792 L63.847404,11.871432 C63.847404,12.582072 63.584244,13.428432 62.332524,13.428432 C61.008444,13.428432 60.730164,12.413592 60.730164,11.561832 L60.730164,5.453712 C60.730164,4.905432 60.888924,3.630312 62.355204,3.630312 C63.739764,3.630312 63.847404,4.737672 63.847404,5.077152 L63.847404,6.308712 L65.027484,6.308712 L65.027484,4.988952 C65.027484,3.849192 64.327644,2.517912 62.355204,2.517912" id="Fill-11" fill="#FFFFFF" mask="url(#mask-3)"></path>
                <path d="M68.937876,13.295736 C68.314356,13.295736 68.220756,12.861216 68.220756,12.602016 L68.220756,0.000216 L66.952116,0.000216 L66.952116,12.823056 C66.952116,13.888296 67.531356,14.475096 68.583276,14.475096 C68.919516,14.475096 69.239916,14.423256 69.561396,14.316336 L69.616476,14.297976 L69.616476,13.209336 L69.518196,13.231296 C69.326316,13.274136 69.130836,13.295736 68.937876,13.295736" id="Fill-12" fill="#FFFFFF" mask="url(#mask-3)"></path>
                <polygon id="Fill-13" fill="#FFFFFF" mask="url(#mask-3)" points="46.2744 7.38036 49.905 7.38036 49.905 6.17976 46.2744 6.17976 46.2744 1.2006 50.78448 1.2006 50.78448 0 44.93772 0 44.93772 14.22432 50.8068 14.22432 50.8068 13.02336 46.2744 13.02336"></polygon>
                <path d="M75.605796,11.030472 C75.605796,12.175272 74.865636,13.450752 73.803276,13.450752 C72.948636,13.450752 72.533196,12.992112 72.533196,12.048552 L72.533196,2.738952 L71.264556,2.738952 L71.264556,12.513312 C71.264556,13.753152 72.088956,14.585472 73.316196,14.585472 C74.305836,14.585472 75.168036,14.097672 75.677436,13.264272 L75.695796,14.250672 L76.874436,14.250672 L76.874436,2.738952 L75.605796,2.738952 L75.605796,11.030472 Z" id="Fill-14" fill="#FFFFFF" mask="url(#mask-3)"></path>
                <polygon id="Fill-15" fill="#FFFFFF" mask="url(#mask-3)" points="58.088484 2.739024 56.895084 2.739024 55.223244 7.193664 53.571204 2.791224 53.551404 2.739024 52.180164 2.739024 54.449604 8.418744 52.102404 14.139504 52.056324 14.251104 53.295084 14.251104 55.112004 9.657864 56.865924 14.179104 56.886084 14.230584 58.234284 14.230584 55.886004 8.352144"></polygon>
                <polygon id="Fill-16" fill="#FFFFFF" mask="url(#mask-3)" points="92.01636 11.913588 90.26604 2.738988 88.9488 2.738988 91.31688 14.196348 91.32984 14.260788 92.61324 14.260788 94.9968 2.836188 95.01696 2.738988 93.78792 2.738988"></polygon>
                <path d="M101.942028,8.853768 L101.942028,5.541768 C101.942028,3.648528 100.951308,2.517768 99.292068,2.517768 C97.479468,2.517768 96.353748,3.761208 96.353748,5.763168 L96.353748,11.340288 C96.353748,13.449168 97.415748,14.563368 99.424548,14.563368 C100.297548,14.563368 101.169108,14.325048 101.816388,13.909248 L101.872188,13.873248 L101.484468,12.890448 L101.406348,12.927528 C100.973988,13.133448 100.313748,13.406328 99.580068,13.406328 C98.189388,13.406328 97.622028,12.750048 97.622028,11.141208 L97.622028,8.853768 L101.942028,8.853768 Z M97.622028,5.519808 C97.622028,4.617288 98.032428,3.652848 99.181188,3.652848 C100.517508,3.652848 100.717668,4.794768 100.717668,5.475528 L100.717668,7.762608 L97.622028,7.762608 L97.622028,5.519808 Z" id="Fill-17" fill="#FFFFFF" mask="url(#mask-3)"></path>
                <path d="M81.587088,3.63042 C82.423008,3.63042 82.798128,4.11282 82.924128,5.35086 L82.931688,5.42646 L84.152448,5.37534 L84.148488,5.29434 C84.062808,3.54402 83.153448,2.53998 81.653328,2.53998 C80.083368,2.53998 79.069608,3.50982 79.069608,5.01066 C79.069608,6.11838 79.608168,7.00002 80.417088,7.98318 L81.502128,9.31086 C82.050768,9.98046 82.879848,10.99206 82.879848,11.93778 C82.879848,12.89898 82.404648,13.42854 81.542808,13.42854 C80.632368,13.42854 80.193528,12.91662 80.027208,11.66166 L80.018208,11.59182 L78.753888,11.59182 L78.759288,11.67786 C78.879528,13.49766 79.886088,14.54166 81.520488,14.54166 C82.765008,14.54166 84.103848,13.71294 84.103848,11.89386 C84.103848,10.8693 83.612448,9.78822 82.601568,8.5887 L81.271728,6.99462 C80.577648,6.1749 80.293968,5.57442 80.293968,4.92246 C80.293968,4.1373 80.801928,3.63042 81.587088,3.63042" id="Fill-18" fill="#FFFFFF" mask="url(#mask-3)"></path>
                <polygon id="Fill-19" fill="#FFFFFF" mask="url(#mask-3)" points="85.97934 14.2506 87.24798 14.2506 87.2487 2.73888 85.98006 2.73888"></polygon>
                <polygon id="Fill-20" fill="#FFFFFF" mask="url(#mask-3)" points="85.97196 1.262196 87.2226 1.262196 87.2226 0.011196 85.97196 0.011196"></polygon>
            </g>
        </g>
    </g>
</svg>