<svg xmlns="http://www.w3.org/2000/svg" xmlns:xlink="http://www.w3.org/1999/xlink" width="131" height="24" viewBox="0 0 131 24">
    <defs>
        <path id="585yihenab" d="M0.05 0.183L5.882 0.183 5.882 12.24 0.05 12.24z"/>
        <path id="7bsfg60l2d" d="M0 14.787L106.693 14.787 106.693 0 0 0z"/>
        <filter id="2q7lthe1ya">
            <feColorMatrix in="SourceGraphic" values="0 0 0 0 0.101961 0 0 0 0 0.207843 0 0 0 0 0.458824 0 0 0 1.000000 0"/>
        </filter>
    </defs>
    <g fill="none" fill-rule="evenodd">
        <g>
            <g>
                <g>
                    <g>
                        <g filter="url(#2q7lthe1ya)" transform="translate(-1190 -713) translate(664 673) translate(172 32) translate(335) translate(19 8)">
                            <g transform="translate(12 4)">
                                <g transform="translate(53.64 2.547)">
                                    <mask id="cyxvmgxkkc" fill="#fff">
                                        <use xlink:href="#585yihenab"/>
                                    </mask>
                                    <path fill="#FFF" d="M2.988.183C1.203.183.05 1.39.05 3.254v5.87c0 1.98 1.054 3.116 2.893 3.116 1.84 0 2.939-1.181 2.939-3.16V3.144c0-1.826-1.11-2.96-2.894-2.96zm-1.67 2.983c0-.562.159-1.869 1.625-1.869 1.046 0 1.67.69 1.67 1.847v6.025c0 .883-.282 1.935-1.625 1.935-1.23 0-1.67-1-1.67-1.935V3.166z" mask="url(#cyxvmgxkkc)"/>
                                </g>
                                <path fill="#FFF" d="M63.692 13.518c-.624 0-.718-.435-.718-.695V.225h-1.268v12.82c0 1.066.58 1.653 1.631 1.653.337 0 .657-.052.978-.16l.055-.017v-1.09l-.098.023c-.193.042-.388.064-.58.064M67.816 13.518c-.624 0-.717-.435-.717-.695V.225H65.83v12.82c0 1.066.58 1.653 1.632 1.653.337 0 .657-.052.977-.16l.055-.017v-1.09l-.098.023c-.192.042-.388.064-.58.064M48.518 0c-2.175 0-3.58 1.362-3.58 3.47v7.98c0 2.09 1.347 3.337 3.602 3.337 2.014 0 3.315-1.258 3.315-3.204V9.84h-1.202v1.675c0 1-.555 2.068-2.113 2.068-1.476 0-2.29-.836-2.29-2.356V3.536c0-.888.292-2.378 2.246-2.378 1.37 0 2.157.77 2.157 2.113V4.9h1.202V3.006C51.855 1.509 50.823 0 48.518 0"/>
                                <mask id="8ap42vbape" fill="#fff">
                                    <use xlink:href="#7bsfg60l2d"/>
                                </mask>
                                <path fill="#FFF" d="M89.995 14.491L91.263 14.491 91.263 2.973 89.995 2.973zM86.421.225h-1.268v2.749h-1.219V4.11h1.219v9.023c0 1.009.603 1.587 1.653 1.587.39 0 .745-.072 1.224-.248l.053-.02v-1.076l-.106.035c-.325.109-.68.173-.95.173-.374 0-.606-.127-.606-.76V4.11h1.883V2.974h-1.883V.224zM96.187 2.73c-1.785 0-2.938 1.206-2.938 3.071v5.87c0 1.98 1.054 3.116 2.893 3.116 1.84 0 2.939-1.182 2.939-3.16V5.69c0-1.826-1.11-2.96-2.894-2.96zm-1.67 2.983c0-.562.159-1.869 1.625-1.869 1.045 0 1.67.69 1.67 1.846v6.026c0 .883-.282 1.935-1.625 1.935-1.23 0-1.67-1-1.67-1.935V5.713zM104.62 2.73c-.975 0-1.845.49-2.34 1.298l-.018-1.076h-1.179V14.49h1.27V6.266c0-1.145.74-2.422 1.802-2.422.831 0 1.27.508 1.27 1.47v9.177h1.268V4.782c0-1.227-.833-2.052-2.073-2.052M79.981 2.73c-1.785 0-2.894 1.177-2.894 3.071v5.892c0 1.966 1.03 3.094 2.828 3.094 1.689 0 2.738-.99 2.738-2.584V10.95h-1.18v1.143c0 .711-.263 1.56-1.514 1.56-1.325 0-1.603-1.017-1.603-1.87V5.668c0-.548.158-1.824 1.625-1.824 1.384 0 1.492 1.108 1.492 1.448v1.233h1.18V5.203c0-1.14-.7-2.473-2.672-2.473M72.596 2.73c-1.813 0-2.938 1.245-2.938 3.248v5.583c0 2.11 1.062 3.226 3.07 3.226.873 0 1.745-.24 2.392-.655l.056-.036-.388-.984-.078.037c-.432.206-1.091.48-1.826.48-1.39 0-1.957-.657-1.957-2.268v-2.29h4.32V5.758c0-1.895-.991-3.027-2.65-3.027m-.111 1.136c1.336 0 1.536 1.143 1.536 1.824v2.29h-3.095V5.735c0-.904.41-1.869 1.559-1.869M89.992 1.499L91.266 1.499 91.266.225 89.992.225zM8.456 3.706c-.51-.453-1.161-.683-1.934-.683-.758 0-1.405.23-1.922.682-.522.457-.787 1.104-.787 1.924v.952c0 .633.19 1.192.565 1.66.368.46.786.806 1.243 1.027.43.209.826.461 1.175.75.328.27.494.556.494.847v1.966H5.756v-2.094H3.812v1.308c0 .778.268 1.411.796 1.881.524.467 1.168.704 1.913.704.76 0 1.407-.237 1.925-.704.52-.47.785-1.103.785-1.881v-1.18c0-.53-.128-1.009-.38-1.42-.25-.406-.554-.732-.905-.969-.337-.227-.682-.44-1.022-.636-.329-.187-.614-.39-.848-.605-.216-.198-.322-.412-.322-.654V4.834H7.29v2.077h1.942V5.629c0-.82-.26-1.466-.776-1.923M19.783 12.828H18.25l.002-7.997h1.534m1.157-1.13c-.517-.452-1.164-.682-1.923-.682-.758 0-1.405.23-1.922.683-.522.457-.787 1.104-.787 1.924v6.415c0 .82.265 1.467.787 1.924.517.453 1.164.683 1.922.683.759 0 1.406-.23 1.923-.683.522-.457.787-1.104.787-1.924V5.626c0-.82-.265-1.467-.787-1.924M0 14.494L1.923 14.494 1.923.224 0 .224zM15.049 3.02c-.759 0-1.406.233-1.923.693l-.062.059V3.02H11.14v11.474h1.925V4.835h1.985V3.02zM31.447 4.835h1.518V6.57c0 .243-.104.457-.319.655-.23.214-.513.417-.838.605-.12.069-.24.141-.361.215v-3.21zm2.661-1.14c-.512-.453-1.152-.683-1.902-.683-.764 0-1.408.23-1.913.683-.51.458-.768 1.104-.768 1.923v6.416c0 .778.262 1.41.777 1.881.512.468 1.153.705 1.904.705.737 0 1.374-.237 1.893-.704.523-.47.788-1.103.788-1.882v-1.3h-1.922v2.098h-1.518v-1.978c0-.29.164-.576.488-.847.346-.289.737-.54 1.163-.75.452-.22.865-.566 1.23-1.027.37-.468.56-1.026.56-1.66v-.952c0-.82-.263-1.467-.78-1.924zM38.7 12.832V.225h-1.929v11.862c0 .805.212 1.438.63 1.882.42.446 1.016.672 1.774.672.234 0 .366-.03.59-.081v-1.728H38.7zM27.95 3.022h-1.687L26.26.225h-1.926l-.001 2.794-1.109.003v1.813h1.11v7.252c0 .805.212 1.438.63 1.882.419.446 1.016.672 1.774.672.369 0 .73-.065 1.07-.194l.08-.03v-1.585h-1.626l.001-7.997h1.686V3.022z" mask="url(#8ap42vbape)"/>
                            </g>
                        </g>
                    </g>
                </g>
            </g>
        </g>
    </g>
</svg>
