<svg xmlns="http://www.w3.org/2000/svg" width="58" height="32" viewBox="0 0 58 32">
    <g fill="none" fill-rule="evenodd">
        <g fill="#002D74">
            <g>
                <g>
                    <g>
                        <path d="M0 20.937L3.034 20.937 3.034.202 0 .202zM21.982 4.065c-1.105 0-2.048.34-2.802 1.01l-.09.085V4.065h-2.804v16.692h2.805V6.707h2.89V4.064zM45.874 6.706h2.212V9.23c0 .353-.152.665-.465.953-.336.31-.747.606-1.222.88-.174.1-.35.205-.525.313v-4.67zm3.877-1.659c-.745-.658-1.678-.992-2.771-.992-1.114 0-2.052.334-2.788.993-.742.665-1.118 1.606-1.118 2.797v9.333c0 1.131.38 2.052 1.132 2.736.746.68 1.68 1.025 2.774 1.025 1.074 0 2.002-.345 2.757-1.024.763-.684 1.149-1.604 1.149-2.737v-1.891h-2.8v3.052h-2.212v-2.877c0-.423.24-.838.711-1.232.504-.42 1.074-.787 1.695-1.091.657-.321 1.26-.823 1.791-1.494.54-.681.815-1.493.815-2.415V7.845c0-1.192-.382-2.133-1.135-2.798zM56.442 18.339V0h-2.81v17.255c0 1.17.308 2.092.917 2.738.611.648 1.48.977 2.585.977.341 0 .533-.043.86-.119V18.34h-1.552zM40.779 4.07H38.32L38.317 0h-2.805l-.002 4.066-1.615.003v2.637h1.617v10.55c0 1.17.308 2.091.917 2.737.61.648 1.48.977 2.585.977.538 0 1.063-.095 1.56-.283l.115-.044V18.34h-2.367V6.707h2.457V4.069zM12.62 4.968C11.874 4.3 10.926 3.961 9.8 3.961c-1.105 0-2.048.338-2.802 1.006-.76.675-1.147 1.63-1.147 2.84V9.21c0 .935.277 1.759.824 2.45.537.68 1.146 1.19 1.81 1.515.628.309 1.205.681 1.714 1.107.477.4.72.82.72 1.25v2.902H8.682v-3.09h-2.83v1.929c0 1.149.39 2.083 1.16 2.777.764.689 1.702 1.038 2.788 1.038 1.107 0 2.05-.35 2.804-1.04.76-.693 1.145-1.627 1.145-2.775v-1.74c0-.784-.186-1.489-.554-2.096-.364-.6-.808-1.08-1.32-1.43-.49-.335-.992-.65-1.488-.938-.48-.277-.895-.578-1.235-.893-.316-.292-.47-.608-.47-.966V6.634h2.236v3.064h2.831V7.806c0-1.208-.38-2.163-1.13-2.838M29.127 18.43h-2.236l.003-11.8h2.236m1.686-1.667c-.754-.668-1.697-1.007-2.802-1.007s-2.048.339-2.802 1.007c-.761.674-1.147 1.63-1.147 2.839v9.467c0 1.21.386 2.165 1.147 2.84.754.668 1.697 1.006 2.802 1.006s2.048-.338 2.802-1.006c.761-.675 1.147-1.63 1.147-2.84V7.802c0-1.21-.386-2.165-1.147-2.84" transform="translate(-282.000000, -81.000000) translate(0.000000, 69.000000) translate(282.000000, 12.000000) translate(0.000000, 6.000000)"/>
                    </g>
                </g>
            </g>
        </g>
    </g>
</svg>
