<?xml version="1.0" encoding="UTF-8"?>
<svg width="131px" height="24px" viewBox="0 0 131 24" version="1.1" xmlns="http://www.w3.org/2000/svg" xmlns:xlink="http://www.w3.org/1999/xlink">
    <title>Logos/Hotel Logos/Segments/Design no bg</title>
    <defs>
        <polygon id="path-1" points="0 18.057096 84.79152 18.057096 84.79152 -0.000144 0 -0.000144"></polygon>
    </defs>
    <g id="Logos/Hotel-Logos/Segments/Design-no-bg" stroke="none" stroke-width="1" fill="none" fill-rule="evenodd">
        <g id="Group-19-Copy" transform="translate(23.000000, 4.000000)">
            <path d="M48.370068,-0.000108 L44.922348,-0.000108 L44.937828,14.372172 L48.318228,14.372172 C50.533668,14.372172 51.855588,13.066092 51.855588,10.879092 L51.840468,3.201372 C51.840468,1.196532 50.543028,-0.000108 48.370068,-0.000108 L48.370068,-0.000108 Z M46.252548,1.195812 L48.258108,1.195812 C49.918788,1.195812 50.510268,2.301732 50.510268,3.336012 L50.525748,10.946412 C50.525748,11.975292 49.929948,13.176252 48.250908,13.176252 L46.268028,13.176252 L46.252548,1.195812 Z" id="Fill-1" fill="#39474F"></path>
            <path d="M8.456292,3.500028 C7.945452,3.046788 7.294932,2.817108 6.522372,2.817108 C5.763852,2.817108 5.117292,3.046428 4.599612,3.499668 C4.077612,3.956508 3.812652,4.603428 3.812652,5.423508 L3.812652,6.374988 C3.812652,7.008588 4.003092,7.567308 4.377852,8.035308 C4.746492,8.496108 5.164452,8.841708 5.620572,9.062028 C6.051492,9.270828 6.446772,9.523548 6.795972,9.811908 C7.123572,10.083348 7.289892,10.368468 7.289892,10.659348 L7.289532,12.625668 L5.755572,12.625668 L5.755212,10.531188 L3.812652,10.531188 L3.812652,11.839068 C3.812652,12.617748 4.080852,13.250628 4.609332,13.720788 C5.133492,14.187348 5.777172,14.424588 6.522372,14.424588 C7.281612,14.424588 7.929252,14.187348 8.446572,13.720428 C8.967852,13.249908 9.232092,12.616668 9.232092,11.839068 L9.232092,10.659348 C9.232092,10.128708 9.104292,9.650988 8.851932,9.239508 C8.602092,8.833068 8.297532,8.506908 7.946532,8.270748 C7.609572,8.043948 7.265412,7.829388 6.924852,7.634268 C6.596172,7.447068 6.311052,7.243308 6.077412,7.029828 C5.860692,6.831828 5.755212,6.617988 5.755212,6.374988 L5.755572,4.628628 L7.289532,4.628628 L7.289892,6.704748 L9.232092,6.704748 L9.232092,5.423508 C9.232092,4.603788 8.971092,3.957228 8.456292,3.500028" id="Fill-3" fill="#39474F"></path>
            <path d="M19.783476,12.622752 L18.249156,12.622752 L18.251316,4.625352 L19.785276,4.625352 M20.942316,3.496032 C20.424996,3.043872 19.778076,2.814192 19.019556,2.814192 C18.261036,2.814192 17.614116,3.043872 17.096796,3.496032 C16.574796,3.953592 16.309836,4.600872 16.309836,5.420232 L16.309836,11.835792 C16.309836,12.655872 16.574796,13.303152 17.096796,13.759632 C17.614116,14.212872 18.261036,14.442192 19.019556,14.442192 C19.778076,14.442192 20.424996,14.212872 20.942316,13.759632 C21.464676,13.303152 21.729276,12.655872 21.729276,11.835792 L21.729276,5.420232 C21.729276,4.600872 21.464676,3.953592 20.942316,3.496032" id="Fill-5" fill="#39474F"></path>
            <mask id="mask-2" fill="white">
                <use xlink:href="#path-1"></use>
            </mask>
            <g id="Clip-8"></g>
            <polygon id="Fill-7" fill="#39474F" mask="url(#mask-2)" points="0 14.288616 1.92276 14.288616 1.92276 0.018936 0 0.018936"></polygon>
            <path d="M15.048792,2.814156 C14.290272,2.814156 13.643352,3.047076 13.126032,3.507876 C13.104792,3.526596 13.084992,3.546756 13.064472,3.566556 L13.064472,2.814156 L11.139552,2.814156 L11.139552,14.288796 L13.064472,14.288796 L13.064472,4.629636 L15.048792,4.629636 L15.048792,2.814156 Z" id="Fill-9" fill="#39474F" mask="url(#mask-2)"></path>
            <path d="M31.4469,4.6296 L32.96502,4.6296 L32.96502,6.3648 C32.96502,6.60744 32.86062,6.82128 32.64606,7.01928 C32.4153,7.23312 32.13342,7.43652 31.80762,7.62408 C31.68774,7.69356 31.56714,7.76556 31.4469,7.83972 L31.4469,4.6296 Z M34.10838,3.48876 C33.59646,3.03624 32.95638,2.80692 32.20578,2.80692 C31.44186,2.80692 30.79782,3.03624 30.29274,3.48948 C29.78334,3.94704 29.52486,4.5936 29.52486,5.4126 L29.52486,11.82852 C29.52486,12.60648 29.78658,13.23936 30.3021,13.70952 C30.81402,14.17716 31.45482,14.41368 32.20578,14.41368 C32.94342,14.41368 33.58026,14.17716 34.09866,13.71024 C34.62174,13.24008 34.88706,12.6072 34.88706,11.82852 L34.88706,10.5282 L32.96502,10.5282 L32.96502,12.62664 L31.4469,12.62664 L31.4469,10.6488 C31.4469,10.35792 31.61106,10.0728 31.93506,9.80172 C32.28066,9.513 32.67234,9.26064 33.09822,9.05184 C33.54966,8.83116 33.9633,8.48556 34.32798,8.02476 C34.69878,7.5564 34.88706,6.99804 34.88706,6.3648 L34.88706,5.4126 C34.88706,4.59324 34.62498,3.94632 34.10838,3.48876 L34.10838,3.48876 Z" id="Fill-10" fill="#39474F" mask="url(#mask-2)"></path>
            <path d="M38.70018,12.626244 L38.7009,0.019044 L36.7713,0.019044 L36.7713,11.881764 C36.7713,12.686004 36.98334,13.319964 37.40094,13.763484 C37.82034,14.209164 38.41722,14.435604 39.17502,14.435604 C39.40938,14.435604 39.54078,14.406084 39.76542,14.354244 L39.76542,12.626244 L38.70018,12.626244 Z" id="Fill-11" fill="#39474F" mask="url(#mask-2)"></path>
            <path d="M27.949752,2.816604 L26.262792,2.816604 L26.260632,0.019044 L24.334992,0.019404 L24.333912,2.813724 L23.225112,2.816604 L23.225112,4.629204 L24.334992,4.629204 L24.334992,11.882124 C24.334992,12.686364 24.546672,13.319604 24.964632,13.763484 C25.383672,14.209524 25.980912,14.435604 26.738712,14.435604 C27.108072,14.435604 27.468432,14.370084 27.809352,14.240844 L27.888192,14.210604 L27.888192,12.626604 L26.263512,12.626244 L26.264232,4.629564 L27.949752,4.629564 L27.949752,2.816604 Z" id="Fill-12" fill="#39474F" mask="url(#mask-2)"></path>
            <path d="M56.78208,2.52234 C54.98028,2.52234 53.86104,3.76002 53.86104,5.75226 L53.86104,11.3031 C53.86104,13.4019 54.91692,14.51106 56.91456,14.51106 C57.7818,14.51106 58.64832,14.27346 59.29308,13.8591 L59.34816,13.82382 L58.96188,12.84534 L58.88412,12.88206 C58.455,13.08726 57.79944,13.35942 57.069,13.35942 C55.6866,13.35942 55.12248,12.70638 55.12248,11.1051 L55.12248,8.8281 L59.41764,8.8281 L59.41764,5.53194 C59.41764,3.64734 58.43232,2.52234 56.78208,2.52234 M56.67228,3.65166 C58.0014,3.65166 58.20012,4.78854 58.20012,5.46642 L58.20012,7.7427 L55.12248,7.7427 L55.12248,5.50998 C55.12248,4.61178 55.52964,3.65166 56.67228,3.65166" id="Fill-13" fill="#39474F" mask="url(#mask-2)"></path>
            <path d="M75.910428,3.588624 C75.491028,2.854944 74.642508,2.521944 73.913148,2.521944 C72.678348,2.521944 71.432388,3.343824 71.432388,5.179464 L71.432388,11.545704 C71.432388,13.119624 72.345708,14.136264 73.759428,14.136264 C74.449548,14.136264 75.349548,13.731624 75.815748,12.849624 L75.815748,14.849424 C75.815748,16.228224 75.168108,16.927704 73.891548,16.927704 C73.255428,16.927704 72.672228,16.791264 71.941068,16.471584 L71.867268,16.439184 L71.408628,17.509104 L71.477748,17.542224 C72.211788,17.898264 72.949788,18.057024 73.869228,18.057024 C74.834388,18.057024 75.637548,17.770464 76.191228,17.227224 C76.779108,16.651224 77.076828,15.821424 77.076828,14.760864 L77.076828,2.720304 L75.926988,2.720304 L75.910428,3.588624 Z M75.815748,5.928624 L75.815748,10.642104 C75.815748,11.890584 74.998908,12.984984 74.067228,12.984984 C72.872388,12.984984 72.693828,11.985984 72.693828,11.390904 L72.693828,5.267664 C72.693828,4.198824 73.178748,3.585384 74.023308,3.585384 C74.852028,3.585384 75.815748,4.608864 75.815748,5.928624 L75.815748,5.928624 Z" id="Fill-14" fill="#39474F" mask="url(#mask-2)"></path>
            <path d="M82.728972,2.52234 C81.760932,2.52234 80.894772,3.00978 80.403012,3.81366 L80.385012,2.7423 L79.212852,2.7423 L79.212852,14.3127 L80.474652,14.3127 L80.474652,6.03882 C80.474652,4.89942 81.210492,3.6297 82.266372,3.6297 C83.092932,3.6297 83.530332,4.13514 83.530332,5.09166 L83.530332,14.3127 L84.791412,14.3127 L84.791412,4.56318 C84.791412,3.34206 83.962692,2.52234 82.728972,2.52234" id="Fill-15" fill="#39474F" mask="url(#mask-2)"></path>
            <path d="M63.74268,3.629772 C64.57464,3.629772 64.9476,4.110012 65.07288,5.341932 L65.08044,5.417172 L66.294,5.366412 L66.28968,5.285772 C66.20508,3.543732 65.3004,2.544372 63.80892,2.544372 C62.24832,2.544372 61.23996,3.509532 61.23996,5.003172 C61.23996,6.106212 61.77528,6.983532 62.57916,7.961292 L63.6588,9.283212 C64.20384,9.949932 65.02824,10.957212 65.02824,11.897892 C65.02824,12.854412 64.55592,13.381092 63.69876,13.381092 C62.79372,13.381092 62.3574,12.871692 62.19216,11.622852 L62.18316,11.553372 L60.92604,11.553372 L60.93144,11.638692 C61.0506,13.450212 62.0514,14.489172 63.6768,14.489172 C65.44188,14.489172 66.24612,13.122972 66.24612,11.853612 C66.24612,10.834812 65.75688,9.758772 64.7514,8.564292 L63.42948,6.978132 C62.739,6.162372 62.45712,5.564772 62.45712,4.915332 C62.45712,4.134492 62.96184,3.629772 63.74268,3.629772" id="Fill-16" fill="#39474F" mask="url(#mask-2)"></path>
            <polygon id="Fill-17" fill="#39474F" mask="url(#mask-2)" points="68.09184 14.285268 69.36048 14.285268 69.3612 2.773548 68.09256 2.773548"></polygon>
            <polygon id="Fill-18" fill="#39474F" mask="url(#mask-2)" points="68.08464 1.296936 69.33528 1.296936 69.33528 0.045936 68.08464 0.045936"></polygon>
        </g>
    </g>
</svg>