<svg xmlns="http://www.w3.org/2000/svg" width="64" height="65" viewBox="0 0 64 65">
    <g fill="none" fill-rule="evenodd">
        <g stroke="#AB6503" stroke-width="1.2">
            <g>
                <g>
                    <g>
                        <g>
                            <path d="M28 19L21 42" transform="translate(-680 -429) translate(0 172) translate(315 184) translate(365 73) translate(8 11)"/>
                            <g>
                                <path stroke-linecap="round" d="M.474 41.641c2.424-1.676 5.48-1.554 7.786.317 2.93 2.374 6.816 2.532 9.898.402 2.424-1.677 5.48-1.553 7.786.316 1.465 1.188 3.168 1.821 4.892 1.892 1.723.07 3.465-.426 5.004-1.49.94-.648 1.972-1.027 3.017-1.14.063.002.125-.004.187-.016 1.6-.127 3.22.37 4.582 1.472" transform="translate(-680 -429) translate(0 172) translate(315 184) translate(365 73) translate(8 11)"/>
                                <path stroke-linecap="round" d="M.474 45.593c2.424-1.677 5.48-1.554 7.786.317 2.93 2.374 6.816 2.532 9.898.401 2.424-1.676 5.48-1.552 7.786.317 1.465 1.187 3.168 1.821 4.892 1.891 1.723.07 3.465-.426 5.004-1.49.94-.647 1.972-1.026 3.017-1.14.063.003.125-.004.187-.016 1.6-.126 3.22.37 4.582 1.473" transform="translate(-680 -429) translate(0 172) translate(315 184) translate(365 73) translate(8 11)"/>
                                <path stroke-linejoin="round" d="M32.926 1.54h0C15.944-3.782 5.532 14.16 5.532 14.16c2.388-.662 5.108-.647 7.807.2 2.698.845 6.569 4.313 6.569 4.313.002-.004 5.11-.652 7.807.192 2.68.84 4.929 2.37 6.539 4.267l.037.037c2.385-.661 5.105-.643 7.8.201 2.7.847 4.96 2.39 6.573 4.307 0 0 1.244-20.816-15.738-26.137z" transform="translate(-680 -429) translate(0 172) translate(315 184) translate(365 73) translate(8 11)"/>
                                <path d="M19.379 18.572c.347-8.383 5.99-15.693 13.277-16.786M33.285 22.746c4.664-6.927 3.99-16.281-1.862-20.96" transform="translate(-680 -429) translate(0 172) translate(315 184) translate(365 73) translate(8 11)"/>
                            </g>
                        </g>
                    </g>
                </g>
            </g>
        </g>
    </g>
</svg>
