<svg xmlns="http://www.w3.org/2000/svg" xmlns:xlink="http://www.w3.org/1999/xlink" width="64" height="65" viewBox="0 0 64 65">
    <defs>
        <path id="dpwv26udva" d="M0 65L55 65 55 0 0 0z"/>
    </defs>
    <g fill="none" fill-rule="evenodd">
        <g>
            <g>
                <g>
                    <g>
                        <g>
                            <path stroke="#B87100" d="M12 37.5L42 37.5" transform="translate(-522 -429) translate(0 172) translate(315 184) translate(207 73) translate(5)"/>
                            <g transform="translate(-522 -429) translate(0 172) translate(315 184) translate(207 73) translate(5)">
                                <path stroke="#B87100" d="M12.5 29.82v-6.24c0-1.15.932-2.08 2.08-2.08h25.915c1.108 0 2.005.898 2.005 2.006v8.393c0 .819-.447 1.616-1.208 1.922-1.434.579-2.792-.506-2.792-1.921v-5.022c0-.613-.247-1.211-.701-1.622-3.734-3.386-9.097-.475-8.671 3.267.03.263-.024.539-.21.729-2.05 2.094-4.578.206-3.907-1.926.187-.597-.01-1.266-.446-1.715-3.645-3.762-8.065-1.197-8.065 2.417v1.79c0 .82-.447 1.617-1.208 1.924-1.435.578-2.792-.507-2.792-1.922zM5.526 49.903c-.207-1.128-.026-2.456-.026-3.437 0-1.718-.147-5.506 0-7.22.102-1.195 2.36-1.746 2.36-1.746H47.14s2.256.55 2.36 1.747v7.413c0 .793-.6 1.54-1.263 1.92-.423.243-.947.337-1.405.172-1.846-.662-1.115-3.524-1.729-4.93-.494-1.131-1.442-2.044-2.626-2.422-3.112-.995-5.978 1.3-5.978 4.265 0 1.179.602 2.919-.756 3.59-.563.279-1.225.264-1.843.156-.422-.073-.859-.2-1.152-.511-.329-.351-.41-.867-.395-1.347.034-1.022.14-2.038.146-3.062.004-.693-.256-1.38-.775-1.84-1.625-1.447-3.932-2.141-5.952-1.086-.82.428-1.505 1.107-1.939 1.925-.22.416-.383.873-.467 1.337-.218 1.208.013 2.372-1.394 2.964-1.09.458-2.506-.068-2.985-1.162-.507-1.157.31-2.614-.662-3.598-3.99-4.043-8.826-1.28-8.826 2.613v4.263c0 1.333-1.257 2.592-2.595 1.975-.845-.39-1.223-1.127-1.379-1.98zM.5 56.5v1.934C.5 60.12 1.88 61.5 3.566 61.5h47.868c1.686 0 3.066-1.38 3.066-3.066V56.5H.5z"/>
                                <mask id="xzopnls63b" fill="#fff">
                                    <use xlink:href="#dpwv26udva"/>
                                </mask>
                                <path stroke="#B87100" d="M13.5 64.5L40.5 64.5 40.5 61.5 13.5 61.5z" mask="url(#xzopnls63b)"/>
                                <path fill="#B87100" d="M24.682 12.462c0-1.27 1.48-3.463 2.908-5.127 1.431 1.664 2.91 3.857 2.91 5.127 0 1.606-1.302 2.909-2.91 2.909-1.606 0-2.908-1.303-2.908-2.91" mask="url(#xzopnls63b)"/>
                                <path stroke="#B87100" d="M24.682 12.462c0-1.27 1.48-3.463 2.908-5.127 1.431 1.664 2.91 3.857 2.91 5.127 0 1.606-1.302 2.909-2.91 2.909-1.606 0-2.908-1.303-2.908-2.91zM29.5 21.5v-2.961c0-.571-.468-1.039-1.04-1.039H26.54c-.571 0-1.04.468-1.04 1.039V21.5h4z" mask="url(#xzopnls63b)"/>
                                <path fill="#B87100" d="M27 18L28 18 28 15 27 15z" mask="url(#xzopnls63b)"/>
                                <path stroke="#B87100" d="M12.5 10L12.5 12M12.5 13L12.5 15M13 12.5L15 12.5M10 12.5L12 12.5M47.5 20L47.5 22M48 19.5L50 19.5M45 19.5L47 19.5M30.5 0L30.5 2M30.5 3L30.5 5M31 2.5L33 2.5M28 2.5L30 2.5M47.5 17L47.5 19M49.5 56.5V40.578c0-1.693-1.385-3.078-3.078-3.078H42.5V24.578c0-1.693-1.385-3.078-3.078-3.078H15.578c-1.693 0-3.078 1.385-3.078 3.078V37.5H8.578c-1.693 0-3.078 1.385-3.078 3.078V56.5h44z" mask="url(#xzopnls63b)"/>
                            </g>
                        </g>
                    </g>
                </g>
            </g>
        </g>
    </g>
</svg>
