<?xml version="1.0" encoding="UTF-8"?>
<svg width="64px" height="65px" viewBox="0 0 64 65" version="1.1" xmlns="http://www.w3.org/2000/svg" xmlns:xlink="http://www.w3.org/1999/xlink">
    <title>CE795E79-FF86-47C6-8731-48618B90FFC3</title>
    <g id="HEB" stroke="none" stroke-width="1" fill="none" fill-rule="evenodd" stroke-linecap="round" stroke-linejoin="round">
        <g id="Isrotel_HP_1-Open/RTL-Copy" transform="translate(-373.000000, -429.000000)" stroke="#AB6503">
            <g id="Shemesh-Login/Reg" transform="translate(0.000000, 172.000000)">
                <g id="Group-18-Copy" transform="translate(315.000000, 184.000000)">
                    <g id="Icons/Mini-Illustrations/slippers" transform="translate(58.000000, 73.000000)">
                        <g id="Group-2" transform="translate(8.000000, 13.000000)">
                            <g id="noun_Slippers_1204688-2" transform="translate(26.000000, 0.000000)" stroke-width="1.2">
                                <g id="Group">
                                    <path d="M2.5875,27.0330508 L2.5875,39.2960275 C2.5875,44.2012182 6.5481,48.2234746 11.3781,48.2234746 C16.2081,48.2234746 20.1687,44.2012182 20.1687,39.2960275 L20.1687,27.0330508" id="Path"></path>
                                    <path d="M5.175,27.0330508 L5.175,38.8462841 C5.175,42.0760393 7.89519231,44.7244386 11.2125,44.7244386 C14.5298077,44.7244386 17.25,42.0760393 17.25,38.8462841 L17.25,27.0330508" id="Path"></path>
                                    <line x1="0.4786702" y1="22.2368644" x2="21.9692952" y2="22.2368644" id="Line-16"></line>
                                    <line x1="0.4786702" y1="19.6207627" x2="21.9692952" y2="19.6207627" id="Line-16"></line>
                                    <path d="M11.2125,0 C5.00392562,0 0,5.74718404 0,12.8779494 L0.0790077948,24.946798 C0.0865650399,26.1012063 1.02452984,27.0330508 2.1789628,27.0330508 L20.3112075,27.0330508 C21.4710055,27.0330508 22.4112075,26.0928488 22.4112075,24.9330508 C22.4112075,24.9284684 22.4111925,24.923886 22.4111625,24.9193037 L22.3323347,12.8779494 L22.3323347,12.8779494 C22.3323347,5.74718404 17.3284091,0 11.2125,0 Z" id="Combined-Shape"></path>
                                </g>
                            </g>
                            <g id="Group">
                                <path d="M2.5875,27.0330508 L2.5875,39.2960275 C2.5875,44.2012182 6.5481,48.2234746 11.3781,48.2234746 C16.2081,48.2234746 20.1687,44.2012182 20.1687,39.2960275 L20.1687,27.0330508" id="Path" stroke-width="1.2"></path>
                                <path d="M5.175,27.0330508 L5.175,38.8462841 C5.175,42.0760393 7.89519231,44.7244386 11.2125,44.7244386 C14.5298077,44.7244386 17.25,42.0760393 17.25,38.8462841 L17.25,27.0330508" id="Path" stroke-width="1.2"></path>
                                <line x1="0.4786702" y1="22.2368644" x2="21.9692952" y2="22.2368644" id="Line-16" stroke-width="1.2"></line>
                                <line x1="0.4786702" y1="19.6207627" x2="21.9692952" y2="19.6207627" id="Line-16" stroke-width="1.26"></line>
                                <path d="M11.2125,0 C5.00392562,0 0,5.74718404 0,12.8779494 L0.0790077948,24.946798 C0.0865650399,26.1012063 1.02452984,27.0330508 2.1789628,27.0330508 L20.3112075,27.0330508 C21.4710055,27.0330508 22.4112075,26.0928488 22.4112075,24.9330508 C22.4112075,24.9284684 22.4111925,24.923886 22.4111625,24.9193037 L22.3323347,12.8779494 L22.3323347,12.8779494 C22.3323347,5.74718404 17.3284091,0 11.2125,0 Z" id="Combined-Shape" stroke-width="1.2"></path>
                            </g>
                        </g>
                    </g>
                </g>
            </g>
        </g>
    </g>
</svg>