<svg width="32" height="32" xmlns="http://www.w3.org/2000/svg">
    <defs>
        <filter x="-1.2%" y="-12.6%" width="102.4%" height="125.1%" filterUnits="objectBoundingBox" id="a">
            <feOffset dx="-2" dy="2" in="SourceAlpha" result="shadowOffsetOuter1"/>
            <feGaussianBlur stdDeviation="5" in="shadowOffsetOuter1" result="shadowBlurOuter1"/>
            <feColorMatrix values="0 0 0 0 0.211764706 0 0 0 0 0.239215686 0 0 0 0 0.31372549 0 0 0 0.143852607 0" in="shadowBlurOuter1" result="shadowMatrixOuter1"/>
            <feMerge>
                <feMergeNode in="shadowMatrixOuter1"/>
                <feMergeNode in="SourceGraphic"/>
            </feMerge>
        </filter>
    </defs>
    <g transform="translate(-1677 -115)" filter="url(#a)" fill="#373D50" fill-rule="evenodd">
        <path d="M1693 119c5.523 0 10 4.477 10 10 0 3.682-3.333 8.349-10 14l-.396-.338-.768-.669c-5.89-5.2-8.836-9.532-8.836-12.993 0-5.523 4.477-10 10-10zm0 1a9 9 0 0 0-9 9c0 2.156 1.362 4.81 4.109 7.918l.531.588c1.095 1.187 2.385 2.438 3.872 3.75l.488.425.113-.096a62.697 62.697 0 0 0 2.459-2.252l.63-.62a41.143 41.143 0 0 0 1.691-1.797l.499-.578c2.333-2.766 3.529-5.156 3.604-7.139L1702 129a9 9 0 0 0-9-9zm0 4a5 5 0 1 1 0 10 5 5 0 0 1 0-10zm0 1a4 4 0 1 0 0 8 4 4 0 0 0 0-8z"/>
    </g>
</svg>
