<svg xmlns="http://www.w3.org/2000/svg" width="24" height="23" viewBox="0 0 24 23">
    <g fill="none" fill-rule="evenodd">
        <g>
            <g>
                <g>
                    <path fill="#004BC1" d="M15.336 3.734c.645-.43 1.65-.401 2.244.067.54.426.555 1.067.069 1.505l-.161.124-9.304 5.85c-.238.16-.272.372-.102.546l.102.084 9.304 5.85c.645.431.686 1.16.092 1.629-.54.426-1.42.49-2.06.173l-.184-.106-9.304-5.85c-1.56-1.044-1.639-2.742-.234-3.851l.234-.17 9.304-5.85z" transform="translate(-1603 -711) translate(750 673) matrix(-1 0 0 1 877 38.106)"/>
                </g>
            </g>
        </g>
    </g>
</svg>
