<svg width="16" height="16" viewBox="0 0 16 16" fill="none" xmlns="http://www.w3.org/2000/svg">
<path d="M13.818 0.72678L0.727266 13.8177C0.325608 14.2193 0.325608 14.8705 0.727266 15.2722C1.12892 15.6739 1.78014 15.6739 2.1818 15.2722L15.2726 2.18132C15.6742 1.77966 15.6742 1.12844 15.2726 0.72678C14.8709 0.325119 14.2197 0.32512 13.818 0.72678Z" fill="#363D50"/>
<path d="M15.2731 13.8181L2.18234 0.727271C1.78069 0.32561 1.12947 0.32561 0.727812 0.727271C0.326155 1.12893 0.326155 1.78015 0.727812 2.18181L13.8186 15.2727C14.2203 15.6743 14.8715 15.6743 15.2731 15.2727C15.6748 14.871 15.6748 14.2198 15.2731 13.8181Z" fill="#363D50"/>
</svg>
