<svg width="15" height="14" viewBox="0 0 15 14" fill="none" xmlns="http://www.w3.org/2000/svg">
<path d="M2.25 13.25C9.5 13.25 13.75 9 13.75 1.75C13.75 1.19772 13.3023 0.75 12.75 0.75L9.74991 0.750004C9.47377 0.750004 9.25031 0.973847 9.23275 1.24943C9.18182 2.04858 9.01758 3.06767 8.73994 3.77257C8.63378 4.04212 8.71351 4.37206 8.96504 4.51579L10.2499 5.25C10.2499 7.5 7.99992 9.75 5.49992 9.75L4.98671 8.55252C4.86356 8.26518 4.504 8.15368 4.21131 8.26353C3.50957 8.52691 2.52572 8.68334 1.74943 8.73283C1.47384 8.75039 1.25 8.97386 1.25 9.25V12.25C1.25 12.8023 1.69771 13.25 2.25 13.25Z" stroke="#002D74" stroke-linecap="round" stroke-linejoin="round"/>
</svg>
