<svg width="24" height="24" viewBox="0 0 24 24" fill="none" xmlns="http://www.w3.org/2000/svg">
<path d="M20.7271 1.09115L1.0909 20.7275C0.488412 21.3299 0.488412 22.3068 1.0909 22.9093C1.69339 23.5118 2.67021 23.5118 3.2727 22.9093L22.9089 3.27296C23.5114 2.67047 23.5114 1.69364 22.9089 1.09115C22.3064 0.488658 21.3296 0.488657 20.7271 1.09115Z" fill="white"/>
<path d="M22.9087 20.7272L3.27254 1.09091C2.67005 0.488415 1.69323 0.488415 1.09074 1.09091C0.488255 1.6934 0.488255 2.67023 1.09074 3.27272L20.7269 22.909C21.3294 23.5115 22.3062 23.5115 22.9087 22.909C23.5112 22.3065 23.5112 21.3297 22.9087 20.7272Z" fill="white"/>
</svg>
