<svg width="20" height="14" viewBox="0 0 20 14" fill="none" xmlns="http://www.w3.org/2000/svg">
<path fill-rule="evenodd" clip-rule="evenodd" d="M7.132 0.213885L0.977724 6.26234C0.563196 6.66974 0.563196 7.33026 0.977724 7.73766L7.132 13.7861C7.39315 14.0428 7.80034 14.0684 8.0907 13.8631L8.19347 13.7756C8.48363 13.4905 8.48363 13.0281 8.19347 12.7429L3.09233 7.72917L18.6032 7.73025C19.0066 7.73025 19.3335 7.4033 19.3335 7C19.3335 6.5967 19.0066 6.26975 18.6032 6.26975L3.0935 6.26967L8.19347 1.2571C8.45462 1.00043 8.48073 0.60025 8.27181 0.314884L8.1828 0.213885C7.89263 -0.0712949 7.42217 -0.0712949 7.132 0.213885Z" fill="#39474F"/>
</svg>
