<?xml version="1.0" encoding="UTF-8"?>
<svg width="122px" height="108px" viewBox="0 0 122 108" version="1.1" xmlns="http://www.w3.org/2000/svg" xmlns:xlink="http://www.w3.org/1999/xlink">
    <title>F77EA515-6648-4822-90D0-C02FD1762079</title>
    <g id="HEB" stroke="none" stroke-width="1" fill="none" fill-rule="evenodd">
        <g id="Isrotel_HP_1-Open/RTL-Copy" transform="translate(-899.000000, -212.000000)">
            <g id="Shemesh-Login/Reg" transform="translate(0.000000, 172.000000)">
                <g id="Icons/Hotel-Logos/Shemes/Regular" transform="translate(899.000000, 40.000000)">
                    <g id="Group-3" transform="translate(0.000000, 0.775139)" fill="#EF7F13">
                        <path d="M52.8858909,0.592222785 C23.9510955,0.594956962 0.459163636,23.5114633 0.0280045455,51.9455392 L0.0363227273,51.9455392 C0.0141409091,52.5497924 0.000277272727,53.1526785 0.000277272727,53.7555646 C0.00998181818,80.7596658 21.9256182,103.826552 49.5627773,105.266096 L49.6833909,103.00083 C23.2981182,101.64878 2.28916364,79.5347544 2.30025455,53.7555646 C2.30025455,53.1649823 2.31134545,52.5730329 2.33352727,51.9797165 L4.62657273,52.0125266 C5.01752727,26.0556152 26.4687318,5.12412152 52.8858909,5.1268557 C79.3044364,5.12412152 100.754255,26.0556152 101.146595,52.0125266 L105.743777,51.9455392 C105.311232,23.5114633 81.8234591,0.594956962 52.8858909,0.592222785" id="Fill-1"></path>
                    </g>
                    <path d="M95.2463705,55.8865823 C97.5172341,55.8865823 98.5667114,56.776557 98.5667114,59.1894684 L98.5667114,63.3536203 C98.5667114,63.8717468 98.626325,64.3310886 98.7413932,64.7043038 L100.02378,68.2956456 C100.08062,68.4378228 100.140234,68.6962025 100.140234,68.8411139 C100.140234,69.3291646 99.8782114,69.5875443 99.4692341,69.5875443 L98.0135523,69.5875443 C97.6336886,69.5875443 97.4312795,69.4152911 97.2552114,68.9272405 L95.9450977,65.1636456 L95.7413023,65.1636456 L93.410825,69.3578734 C93.1779159,69.7885063 92.8576659,70.0181772 92.3613477,69.8172152 L90.9930068,69.3004557 C90.7309841,69.2143291 90.5868023,68.9846582 90.5868023,68.7536203 C90.5868023,68.611443 90.6727568,68.3243544 90.7892114,68.1220253 L93.0323477,64.3310886 C93.4399386,63.6420759 93.9362568,63.3262785 94.9843477,63.3262785 L95.683075,63.3262785 L95.683075,59.6214684 C95.683075,59.0459241 95.5083932,58.7301266 94.8970068,58.7301266 L92.8285523,58.7301266 C92.3613477,58.7301266 92.129825,58.5004557 92.129825,58.0124051 L92.129825,56.5755949 C92.129825,56.1162532 92.3613477,55.8865823 92.8285523,55.8865823 L95.2463705,55.8865823 Z M25.7037364,55.8864456 C26.0822136,55.8864456 26.3151227,56.1448253 26.4315773,56.6629519 L27.5961227,62.2625468 L27.68485,62.2625468 C27.8304182,62.2625468 27.9759864,62.0615848 28.0924409,61.6883696 L29.7228045,56.6328759 C29.8974864,56.1448253 30.2177364,55.8864456 30.7140545,55.8864456 L32.19885,55.8864456 C32.5787136,55.8864456 32.7520091,56.0586987 32.7520091,56.4319139 C32.7520091,56.5467494 32.7520091,56.6629519 32.6937818,56.7764203 L30.8305091,62.4635089 C30.4811455,63.4970278 29.7519182,64.0151544 28.5873727,64.0151544 L27.9454864,64.0151544 L28.3544636,65.9974329 C28.4709182,66.5141924 28.7329409,66.7725722 29.1696455,66.7725722 L32.0823955,66.7725722 C32.7228955,66.7725722 33.1013727,66.5141924 33.2469409,65.967357 L35.9863955,56.5467494 C36.1305773,56.1161165 36.3939864,55.8864456 36.8584182,55.8864456 L38.6066227,55.8864456 C38.9268727,55.8864456 39.1029409,56.0586987 39.1029409,56.4319139 C39.1029409,56.5467494 39.1029409,56.6328759 39.0724409,56.7477114 L36.2179182,66.2544456 C35.8685545,67.3754582 35.43185,68.2093823 34.9369182,68.6974329 C34.3546455,69.300319 33.51035,69.5874076 32.4317591,69.5874076 L28.3821909,69.5874076 C27.5087818,69.5874076 26.8391682,69.3577367 26.4315773,68.8983949 C26.0822136,68.4964709 25.7910773,67.8060911 25.5858955,66.7725722 L23.9264182,58.701281 L23.0238955,58.701281 C22.5580773,58.701281 22.3237818,58.4716101 22.3237818,57.9835595 L22.3237818,56.5754582 C22.3237818,56.1161165 22.5580773,55.8864456 23.0238955,55.8864456 L25.7037364,55.8864456 Z M58.0273591,55.8864456 C58.4058364,55.8864456 58.6387455,56.1448253 58.7552,56.6629519 L59.9211318,62.2625468 L60.0084727,62.2625468 C60.1540409,62.2625468 60.2996091,62.0615848 60.4160636,61.6883696 L62.0478136,56.6328759 C62.2211091,56.1448253 62.5413591,55.8864456 63.0376773,55.8864456 L64.5238591,55.8864456 C64.90095,55.8864456 65.0770182,56.0586987 65.0770182,56.4319139 C65.0770182,56.5467494 65.0770182,56.6629519 65.0174045,56.7764203 L63.1541318,62.4635089 C62.8047682,63.4970278 62.0769273,64.0151544 60.9109955,64.0151544 L60.2704955,64.0151544 L60.6780864,65.9974329 C60.7945409,66.5141924 61.05795,66.7725722 61.4932682,66.7725722 L64.4060182,66.7725722 C65.0479045,66.7725722 65.4263818,66.5141924 65.57195,65.967357 L68.3100182,56.5467494 C68.4555864,56.1161165 68.7176091,55.8864456 69.1834273,55.8864456 L70.9302455,55.8864456 C71.2504955,55.8864456 71.4265636,56.0586987 71.4265636,56.4319139 C71.4265636,56.5467494 71.4265636,56.6328759 71.39745,56.7477114 L68.5429273,66.2544456 C68.1935636,67.3754582 67.7554727,68.2093823 67.2619273,68.6974329 C66.6796545,69.300319 65.8339727,69.5874076 64.7567682,69.5874076 L60.7085864,69.5874076 C59.8337909,69.5874076 59.1641773,69.3577367 58.7552,68.8983949 C58.4058364,68.4964709 58.1147,67.8060911 57.9109045,66.7725722 L56.2500409,58.701281 L55.3475182,58.701281 C54.8817,58.701281 54.6487909,58.4716101 54.6487909,57.9835595 L54.6487909,56.5754582 C54.6487909,56.1161165 54.8817,55.8864456 55.3475182,55.8864456 L58.0273591,55.8864456 Z M75.4719727,61.9755949 C75.9086773,61.9755949 76.1415864,62.2052658 76.1415864,62.6071899 L76.1415864,68.8124051 C76.1415864,69.3291646 75.9086773,69.5875443 75.4428591,69.5875443 L73.9857909,69.5875443 C73.5213591,69.5875443 73.25795,69.3291646 73.25795,68.8124051 L73.25795,64.9913924 C73.25795,63.843038 73.5490864,63.0091139 73.8402227,62.3488101 C73.9857909,62.0904304 74.1618591,61.9755949 74.5112227,61.9755949 L75.4719727,61.9755949 Z M81.3557,55.8865823 C82.2582227,55.8865823 82.95695,56.144962 83.4532682,56.6617215 C83.9759273,57.1511392 84.2102227,57.8401519 84.2102227,58.7014177 L84.2102227,68.8124051 C84.2102227,69.3291646 83.9759273,69.5875443 83.5114955,69.5875443 L82.0544273,69.5875443 C81.5886091,69.5875443 81.3557,69.3291646 81.3557,68.8124051 L81.3557,59.4478481 C81.3557,58.9597975 81.0936773,58.7014177 80.5682455,58.7014177 L73.8124955,58.7014177 C73.3452909,58.7014177 73.1123818,58.4717468 73.1123818,57.9823291 L73.1123818,56.5755949 C73.1123818,56.1162532 73.3452909,55.8865823 73.8124955,55.8865823 L81.3557,55.8865823 Z M105.14667,55.8865823 C105.758057,55.8865823 106.049193,56.2023797 106.049193,56.8339747 L106.049193,68.8124051 C106.049193,69.3291646 105.81767,69.5875443 105.321352,69.5875443 L103.893398,69.5875443 C103.399852,69.5875443 103.165557,69.3291646 103.165557,68.8124051 L103.165557,58.7014177 L101.797216,58.7014177 C101.330011,58.7014177 101.067989,58.4717468 101.067989,57.9823291 L101.067989,56.5755949 C101.067989,56.1162532 101.330011,55.8865823 101.797216,55.8865823 L105.14667,55.8865823 Z M118.368836,55.8865823 C120.262609,55.8865823 121.194245,56.8913924 121.194245,58.8736709 L121.194245,68.8124051 C121.194245,69.3291646 120.961336,69.5875443 120.495518,69.5875443 L119.03845,69.5875443 C118.574018,69.5875443 118.339723,69.3291646 118.339723,68.8124051 L118.339723,59.4191392 C118.339723,58.9597975 118.106814,58.7014177 117.611882,58.7014177 L112.920427,58.7014177 L112.920427,68.8124051 C112.920427,69.3291646 112.688905,69.5875443 112.2217,69.5875443 L110.767405,69.5875443 C110.3002,69.5875443 110.067291,69.3291646 110.067291,68.8124051 L110.067291,58.7014177 L109.222995,58.7014177 C108.755791,58.7014177 108.493768,58.4717468 108.493768,57.9823291 L108.493768,56.5755949 C108.493768,56.1162532 108.755791,55.8865823 109.222995,55.8865823 L118.368836,55.8865823 Z M42.7684864,55.8286177 L43.2911455,56.3754532 C43.5836682,56.6625418 43.9912591,57.1505924 44.4861909,57.8108962 C45.1266909,56.9783392 45.6230091,56.4315038 45.9723727,56.2319089 C46.3799636,56.0008709 47.0509636,55.8874025 48.0117136,55.8874025 L49.9914409,55.8874025 C52.2636909,55.8874025 53.4005091,57.035757 53.4005091,59.3051241 L53.4005091,68.6108962 C53.4005091,68.9841114 53.3713955,69.2151494 53.2549409,69.3286177 C53.1093727,69.5008709 52.81685,69.5869975 52.4106455,69.5869975 L47.6027364,69.5869975 C47.1091909,69.5869975 46.8748955,69.3573266 46.8748955,68.8993519 L46.8748955,67.4898835 C46.8748955,67.0018329 47.1091909,66.772162 47.6027364,66.772162 L50.5459864,66.772162 L50.5459864,59.9941367 C50.5459864,59.1328709 50.0496682,58.7008709 49.0598045,58.7008709 L46.4090773,58.7008709 C45.2445318,58.7008709 44.6622591,59.2176304 44.6622591,60.2525165 L44.6622591,68.8118582 C44.6622591,69.3286177 44.39885,69.5869975 43.9344182,69.5869975 L42.47735,69.5869975 C42.0101455,69.5869975 41.7786227,69.3286177 41.7786227,68.8118582 L41.7786227,59.735757 C41.7786227,59.3051241 41.6330545,58.9305418 41.3696455,58.6147443 L40.7000318,57.8396051 C40.5267364,57.638643 40.4380091,57.4663899 40.4380091,57.2941367 C40.4380091,57.1218835 40.5267364,56.9496304 40.7000318,56.8060861 L41.6898955,55.9147443 C42.0988727,55.5415291 42.4482364,55.5415291 42.7684864,55.8286177 Z" id="Combined-Shape" fill="#363D50"></path>
                    <path d="M121.2192,77.8381975 L121.2192,74.6638177 C121.2192,73.8900456 120.831018,73.4990582 120.056041,73.4990582 L119.380882,73.4990582 C119.0537,73.4990582 118.82495,73.5373367 118.686314,73.6166278 C118.567086,73.6849823 118.39795,73.8709063 118.178905,74.1552608 C118.009768,73.9296911 117.871132,73.7629063 117.771314,73.665843 L117.592473,73.4785519 C117.484336,73.3814886 117.365109,73.3814886 117.225086,73.5086278 L116.8882,73.8121215 C116.828586,73.8613367 116.798086,73.9201215 116.798086,73.9789063 C116.798086,74.0376911 116.828586,74.0964759 116.8882,74.1648304 L117.115564,74.4286785 C117.205677,74.5380456 117.255586,74.6638177 117.255586,74.8114633 L117.255586,77.9065519 C117.255586,78.0829063 117.334609,78.1717671 117.494041,78.1717671 L117.990359,78.1717671 C118.149791,78.1717671 118.238518,78.0829063 118.238518,77.9065519 L118.238518,74.9878177 C118.238518,74.6351089 118.438155,74.4587544 118.834655,74.4587544 L119.738564,74.4587544 C120.076836,74.4587544 120.245973,74.6050329 120.245973,74.898957 L120.245973,77.2107038 L119.242245,77.2107038 C119.073109,77.2107038 118.994086,77.2899949 118.994086,77.4567797 L118.994086,77.9366278 C118.994086,78.0924759 119.073109,78.1717671 119.242245,78.1717671 L120.880927,78.1717671 C121.02095,78.1717671 121.119382,78.1416911 121.169291,78.0829063 C121.209495,78.0446278 121.2192,77.9653367 121.2192,77.8381975 L121.2192,77.8381975 Z M115.865064,77.9065519 L115.865064,73.8216911 C115.865064,73.6056911 115.765245,73.4990582 115.557291,73.4990582 L114.414927,73.4990582 C114.255495,73.4990582 114.166768,73.5769823 114.166768,73.7341975 L114.166768,74.2140456 C114.166768,74.3808304 114.255495,74.4587544 114.414927,74.4587544 L114.882132,74.4587544 L114.882132,77.9065519 C114.882132,78.0829063 114.961155,78.1717671 115.128905,78.1717671 L115.616905,78.1717671 C115.784655,78.1717671 115.865064,78.0829063 115.865064,77.9065519 L115.865064,77.9065519 Z M113.440314,73.7533367 C113.440314,73.5865519 113.351586,73.4990582 113.18245,73.4990582 L111.980473,73.4990582 C111.822427,73.4990582 111.732314,73.5769823 111.732314,73.7341975 L111.732314,74.2140456 C111.732314,74.3808304 111.822427,74.4587544 111.980473,74.4587544 L112.338155,74.4587544 L112.180109,75.192881 C112.049791,75.7615899 111.742018,76.3002228 111.2152,76.7609316 L111.176382,76.7992101 L111.155586,76.7896405 C111.2152,76.6816405 111.226291,76.5558684 111.195791,76.4177924 L110.610745,73.8216911 C110.560836,73.6056911 110.440223,73.4990582 110.241973,73.4990582 L109.318655,73.4990582 C109.149518,73.4990582 109.070495,73.5769823 109.070495,73.7341975 L109.070495,74.2140456 C109.070495,74.3808304 109.149518,74.4587544 109.318655,74.4587544 L109.745655,74.4587544 L110.440223,77.3187038 L110.420814,77.3583494 L109.120405,78.3576911 C109.060791,78.4069063 109.020586,78.4643241 109.020586,78.5340456 C109.020586,78.5818937 109.0497,78.6324759 109.089905,78.6912608 L109.378268,79.0726785 C109.457291,79.1806785 109.566814,79.1902481 109.686041,79.0918177 L111.503564,77.7014886 C112.388064,77.0152101 112.934291,76.1826532 113.153336,75.2038177 L113.440314,73.8996152 L113.440314,73.7533367 Z M108.235905,74.2536911 L108.235905,73.7041215 C108.235905,73.5674127 108.156882,73.4990582 108.018245,73.4990582 L104.629973,73.4990582 C104.470541,73.4990582 104.381814,73.5769823 104.381814,73.7341975 L104.381814,74.2140456 C104.381814,74.3808304 104.470541,74.4587544 104.629973,74.4587544 L106.547314,74.4587544 L106.547314,77.9065519 C106.547314,78.0829063 106.627723,78.1717671 106.785768,78.1717671 L107.282086,78.1717671 C107.441518,78.1717671 107.520541,78.0829063 107.520541,77.9065519 L107.520541,74.4587544 L108.037655,74.4587544 C108.166586,74.4587544 108.235905,74.3904 108.235905,74.2536911 L108.235905,74.2536911 Z M103.448791,77.9065519 L103.448791,73.8216911 C103.448791,73.6056911 103.348973,73.4990582 103.139632,73.4990582 L101.998655,73.4990582 C101.839223,73.4990582 101.749109,73.5769823 101.749109,73.7341975 L101.749109,74.2140456 C101.749109,74.3808304 101.839223,74.4587544 101.998655,74.4587544 L102.464473,74.4587544 L102.464473,77.9065519 C102.464473,78.0829063 102.544882,78.1717671 102.712632,78.1717671 L103.199245,78.1717671 C103.368382,78.1717671 103.448791,78.0829063 103.448791,77.9065519 L103.448791,77.9065519 Z M100.816086,79.9243747 L100.816086,73.8216911 C100.816086,73.6056911 100.716268,73.4990582 100.508314,73.4990582 L99.36595,73.4990582 C99.2065182,73.4990582 99.1177909,73.5769823 99.1177909,73.7341975 L99.1177909,74.2140456 C99.1177909,74.3808304 99.2065182,74.4587544 99.36595,74.4587544 L99.8331545,74.4587544 L99.8331545,79.7972354 C99.8331545,79.9640203 99.8428591,80.1308051 100.079927,80.1308051 L100.587336,80.1308051 C100.735677,80.1308051 100.816086,80.0624506 100.816086,79.9243747 L100.816086,79.9243747 Z M95.7960636,77.9065519 L95.7960636,74.5175392 C95.7960636,73.8421975 95.4772,73.4990582 94.8311545,73.4990582 L91.7118364,73.4990582 C91.5537909,73.4990582 91.4650636,73.5769823 91.4650636,73.7341975 L91.4650636,74.2140456 C91.4650636,74.3808304 91.5537909,74.4587544 91.7118364,74.4587544 L92.0002,74.4587544 L92.0002,77.9065519 C92.0002,78.0829063 92.0806091,78.1717671 92.2386545,78.1717671 L92.7363591,78.1717671 C92.8944045,78.1717671 92.9748136,78.0829063 92.9748136,77.9065519 L92.9748136,74.4587544 L94.5732909,74.4587544 C94.7424273,74.4587544 94.82145,74.5476152 94.82145,74.7034633 L94.82145,77.9065519 C94.82145,78.0829063 94.9018591,78.1717671 95.0599045,78.1717671 L95.5576091,78.1717671 C95.7156545,78.1717671 95.7960636,78.0829063 95.7960636,77.9065519 L95.7960636,77.9065519 Z M90.8786318,77.9461975 L90.8786318,77.4567797 C90.8786318,77.3091342 90.8093136,77.2312101 90.6692909,77.2312101 L90.1230636,77.2312101 L90.1230636,77.1724253 C90.2727909,77.0548557 90.3518136,76.859362 90.3518136,76.5845772 L90.3518136,74.5858937 C90.3518136,74.2044759 90.2727909,73.9296911 90.1230636,73.7533367 C89.9636318,73.5865519 89.6960636,73.4990582 89.3078818,73.4990582 L87.3822227,73.4990582 C87.2130864,73.4990582 87.1340636,73.5769823 87.1340636,73.7437671 L87.1340636,74.2236152 C87.1340636,74.3808304 87.2130864,74.4587544 87.3822227,74.4587544 L89.0306091,74.4587544 C89.2593591,74.4587544 89.3785864,74.5667544 89.3785864,74.7813873 L89.3785864,76.859362 C89.3785864,77.0931342 89.2593591,77.2107038 89.0209045,77.2107038 L87.2019955,77.2107038 C87.04395,77.2107038 86.9635409,77.2899949 86.9635409,77.4567797 L86.9635409,77.9366278 C86.9635409,78.0924759 87.04395,78.1717671 87.2019955,78.1717671 L90.6997909,78.1717671 C90.8190182,78.1717671 90.8786318,78.0924759 90.8786318,77.9461975 L90.8786318,77.9461975 Z M85.9709045,77.9065519 L85.9709045,74.6050329 C85.9709045,73.8709063 85.5938136,73.4990582 84.8396318,73.4990582 L82.8723818,73.4990582 C82.71295,73.4990582 82.6242227,73.5769823 82.6242227,73.7341975 L82.6242227,74.2140456 C82.6242227,74.3808304 82.71295,74.4587544 82.8723818,74.4587544 L84.6704955,74.4587544 C84.8881545,74.4587544 84.9879727,74.5667544 84.9879727,74.7622481 L84.9879727,77.9065519 C84.9879727,78.0829063 85.0669955,78.1717671 85.2361318,78.1717671 L85.7227455,78.1717671 C85.8918818,78.1717671 85.9709045,78.0829063 85.9709045,77.9065519 L85.9709045,77.9065519 Z M81.7896318,75.9967291 L81.7896318,73.8216911 C81.7896318,73.6056911 81.6898136,73.4990582 81.4818591,73.4990582 L80.3394955,73.4990582 C80.1800636,73.4990582 80.0913364,73.5769823 80.0913364,73.7341975 L80.0913364,74.2140456 C80.0913364,74.3808304 80.1800636,74.4587544 80.3394955,74.4587544 L80.8067,74.4587544 L80.8067,75.9967291 C80.8067,76.1730835 80.8857227,76.2619443 81.0534727,76.2619443 L81.5414727,76.2619443 C81.7106091,76.2619443 81.7896318,76.1730835 81.7896318,75.9967291 L81.7896318,75.9967291 Z M76.7585182,77.8381975 L76.7585182,74.6638177 C76.7585182,73.8900456 76.3717227,73.4990582 75.5967455,73.4990582 L74.9202,73.4990582 C74.5930182,73.4990582 74.3642682,73.5373367 74.2256318,73.6166278 C74.1064045,73.6849823 73.9372682,73.8709063 73.7196091,74.1552608 C73.5504727,73.9296911 73.41045,73.7629063 73.3120182,73.665843 L73.1331773,73.4785519 C73.0236545,73.3814886 72.9044273,73.3814886 72.7657909,73.5086278 L72.4275182,73.8121215 C72.3679045,73.8613367 72.3374045,73.9201215 72.3374045,73.9789063 C72.3374045,74.0376911 72.3679045,74.0964759 72.4275182,74.1648304 L72.6562682,74.4286785 C72.7449955,74.5380456 72.7949045,74.6638177 72.7949045,74.8114633 L72.7949045,77.9065519 C72.7949045,78.0829063 72.8739273,78.1717671 73.0333591,78.1717671 L73.5296773,78.1717671 C73.6891091,78.1717671 73.7792227,78.0829063 73.7792227,77.9065519 L73.7792227,74.9878177 C73.7792227,74.6351089 73.9774727,74.4587544 74.3753591,74.4587544 L75.2778818,74.4587544 C75.6161545,74.4587544 75.7852909,74.6050329 75.7852909,74.898957 L75.7852909,77.2107038 L74.7815636,77.2107038 C74.6138136,77.2107038 74.5334045,77.2899949 74.5334045,77.4567797 L74.5334045,77.9366278 C74.5334045,78.0924759 74.6138136,78.1717671 74.7815636,78.1717671 L76.4216318,78.1717671 C76.5602682,78.1717671 76.6600864,78.1416911 76.7086091,78.0829063 C76.7488136,78.0446278 76.7585182,77.9653367 76.7585182,77.8381975 L76.7585182,77.8381975 Z M71.6026318,74.4095392 L71.6026318,73.8216911 C71.6026318,73.6056911 71.5042,73.4990582 71.2948591,73.4990582 L68.9408136,73.4990582 L68.9408136,72.5585013 C68.9408136,72.3917165 68.8520864,72.3042228 68.6926545,72.3042228 L68.2351545,72.3042228 C68.0466091,72.3042228 67.9578818,72.3725772 67.9578818,72.5202228 L67.9578818,74.1935392 C67.9578818,74.3698937 68.0369045,74.4587544 68.1963364,74.4587544 L70.4810636,74.4587544 L68.9408136,77.7110582 C68.9006091,77.7794127 68.9006091,77.8477671 68.9214045,77.9161215 C68.9408136,77.985843 68.9810182,78.0336911 69.0406318,78.0541975 L69.53695,78.2209823 C69.6963818,78.2688304 69.8045182,78.2291848 69.8655182,78.0829063 L71.6026318,74.4095392 Z M67.0040636,77.9065519 L67.0040636,73.8216911 C67.0040636,73.6056911 66.9042455,73.4990582 66.6962909,73.4990582 L65.5539273,73.4990582 C65.3944955,73.4990582 65.3057682,73.5769823 65.3057682,73.7341975 L65.3057682,74.2140456 C65.3057682,74.3808304 65.3944955,74.4587544 65.5539273,74.4587544 L66.0197455,74.4587544 L66.0197455,77.9065519 C66.0197455,78.0829063 66.1001545,78.1717671 66.2692909,78.1717671 L66.7559045,78.1717671 C66.9250409,78.1717671 67.0040636,78.0829063 67.0040636,77.9065519 L67.0040636,77.9065519 Z M64.3713591,77.1628557 L64.3713591,73.8216911 C64.3713591,73.6056911 64.2729273,73.4990582 64.0635864,73.4990582 L62.6827682,73.4990582 C62.5136318,73.4990582 62.4346091,73.5769823 62.4346091,73.7341975 L62.4346091,74.2140456 C62.4346091,74.3808304 62.5136318,74.4587544 62.6827682,74.4587544 L63.3981318,74.4587544 L63.3981318,76.9468557 C63.3981318,77.1232101 63.3080182,77.2107038 63.1305636,77.2107038 L62.1767455,77.2107038 C62.0270182,77.2107038 61.9479955,77.2899949 61.9479955,77.4567797 L61.9479955,77.9366278 C61.9479955,78.0924759 62.0367227,78.1717671 62.2266545,78.1717671 L63.3981318,78.1717671 C63.6962,78.1717671 63.9346545,78.0733367 64.1134955,77.8874127 C64.2826318,77.7014886 64.3713591,77.4567797 64.3713591,77.1628557 L64.3713591,77.1628557 Z M61.0537909,77.9065519 L61.0537909,73.8216911 C61.0537909,73.6056911 60.9553591,73.4990582 60.7460182,73.4990582 L59.6036545,73.4990582 C59.4442227,73.4990582 59.3554955,73.5769823 59.3554955,73.7341975 L59.3554955,74.2140456 C59.3554955,74.3808304 59.4442227,74.4587544 59.6036545,74.4587544 L60.0708591,74.4587544 L60.0708591,77.9065519 C60.0708591,78.0829063 60.1498818,78.1717671 60.3190182,78.1717671 L60.8056318,78.1717671 C60.9747682,78.1717671 61.0537909,78.0829063 61.0537909,77.9065519 L61.0537909,77.9065519 Z M58.4210864,77.9065519 L58.4210864,74.5175392 C58.4210864,73.8421975 58.1036091,73.4990582 57.4783591,73.4990582 L54.5281773,73.4990582 C54.3590409,73.4990582 54.2800182,73.5769823 54.2800182,73.7341975 L54.2800182,74.2140456 C54.2800182,74.3808304 54.3687455,74.4587544 54.5281773,74.4587544 L55.0938136,74.4587544 L54.9052682,74.8798177 C54.7860409,75.1546025 54.7652455,75.3801722 54.7652455,75.5948051 L54.7652455,77.2107038 L54.2093136,77.2107038 C54.0512682,77.2107038 53.9708591,77.2899949 53.9708591,77.445843 L53.9708591,77.9270582 C53.9708591,78.0924759 54.0512682,78.1717671 54.2093136,78.1717671 L55.4417909,78.1717671 C55.6705409,78.1717671 55.7093591,78.0541975 55.7093591,77.877843 L55.7093591,75.516881 C55.7093591,75.222957 55.7495636,75.0274633 55.8091773,74.8511089 L55.8979045,74.5667544 C55.9187,74.5079696 55.9381091,74.4587544 55.9783136,74.4587544 L57.1997,74.4587544 C57.3591318,74.4587544 57.4381545,74.5476152 57.4381545,74.7034633 L57.4381545,77.9065519 C57.4381545,78.0829063 57.5185636,78.1717671 57.6863136,78.1717671 L58.1729273,78.1717671 C58.3420636,78.1717671 58.4210864,78.0829063 58.4210864,77.9065519 L58.4210864,77.9065519 Z M50.7877682,75.9967291 L50.7877682,73.8216911 C50.7877682,73.6056911 50.6893364,73.4990582 50.4813818,73.4990582 L49.3376318,73.4990582 C49.1795864,73.4990582 49.0894727,73.5769823 49.0894727,73.7341975 L49.0894727,74.2140456 C49.0894727,74.3808304 49.1795864,74.4587544 49.3376318,74.4587544 L49.8048364,74.4587544 L49.8048364,75.9967291 C49.8048364,76.1730835 49.8852455,76.2619443 50.0529955,76.2619443 L50.5396091,76.2619443 C50.7087455,76.2619443 50.7877682,76.1730835 50.7877682,75.9967291 L50.7877682,75.9967291 Z M48.3352909,73.6849823 C48.3352909,73.557843 48.2756773,73.4990582 48.1661545,73.4990582 L47.5700182,73.4990582 C47.4105864,73.4990582 47.3218591,73.5769823 47.27195,73.7246278 L46.3375409,76.9372861 C46.2890182,77.1232101 46.1587,77.2107038 45.9410409,77.2107038 L44.9470182,77.2107038 C44.7986773,77.2107038 44.7085636,77.1232101 44.6697455,76.9468557 L44.5297227,76.2715139 L44.7487682,76.2715139 C45.1466545,76.2715139 45.3948136,76.0951595 45.5140409,75.7424506 L46.1503818,73.8025519 C46.1697909,73.7629063 46.1697909,73.7246278 46.1697909,73.6849823 C46.1697909,73.557843 46.1101773,73.4990582 45.9812455,73.4990582 L45.4738364,73.4990582 C45.3047,73.4990582 45.1965636,73.5865519 45.13695,73.7533367 L44.5796318,75.4772354 C44.5408136,75.6043747 44.4909045,75.6740962 44.4409955,75.6740962 L44.4118818,75.6740962 L44.0139955,73.7629063 C43.9737909,73.5865519 43.8947682,73.4990582 43.7658364,73.4990582 L42.8522227,73.4990582 C42.6927909,73.4990582 42.6137682,73.5769823 42.6137682,73.7341975 L42.6137682,74.2140456 C42.6137682,74.3808304 42.6927909,74.4587544 42.8522227,74.4587544 L43.1599955,74.4587544 L43.7256318,77.2107038 C43.79495,77.5634127 43.8947682,77.7985519 44.0139955,77.9366278 C44.1526318,78.0924759 44.3813818,78.1717671 44.67945,78.1717671 L46.0602682,78.1717671 C46.4276545,78.1717671 46.7160182,78.0733367 46.9142682,77.8682734 C47.0834045,77.7014886 47.2317455,77.4171342 47.3509727,77.0343494 L48.3255864,73.7929823 C48.3352909,73.7533367 48.3352909,73.7246278 48.3352909,73.6849823 L48.3352909,73.6849823 Z M41.6987682,77.9065519 L41.6987682,74.6050329 C41.6987682,73.8709063 41.3216773,73.4990582 40.5674955,73.4990582 L38.6002455,73.4990582 C38.4422,73.4990582 38.3520864,73.5769823 38.3520864,73.7341975 L38.3520864,74.2140456 C38.3520864,74.3808304 38.4422,74.4587544 38.6002455,74.4587544 L40.3983591,74.4587544 C40.6160182,74.4587544 40.7158364,74.5667544 40.7158364,74.7622481 L40.7158364,77.9065519 C40.7158364,78.0829063 40.7948591,78.1717671 40.9639955,78.1717671 L41.4506091,78.1717671 C41.6197455,78.1717671 41.6987682,78.0829063 41.6987682,77.9065519 L41.6987682,77.9065519 Z M37.4176773,77.9065519 L37.4176773,73.8216911 C37.4176773,73.6056911 37.3178591,73.4990582 37.1099045,73.4990582 L35.9675409,73.4990582 C35.8081091,73.4990582 35.7193818,73.5769823 35.7193818,73.7341975 L35.7193818,74.2140456 C35.7193818,74.3808304 35.8081091,74.4587544 35.9675409,74.4587544 L36.4347455,74.4587544 L36.4347455,77.9065519 C36.4347455,78.0829063 36.5137682,78.1717671 36.6829045,78.1717671 L37.1695182,78.1717671 C37.3386545,78.1717671 37.4176773,78.0829063 37.4176773,77.9065519 L37.4176773,77.9065519 Z M34.7863591,76.7404253 L34.7863591,73.9201215 C34.7863591,73.6357671 34.6463364,73.4990582 34.3690636,73.4990582 L33.6232,73.4990582 C33.4748591,73.4990582 33.3556318,73.5181975 33.2766091,73.5674127 C33.2169955,73.5961215 33.1268818,73.6849823 33.0173591,73.8121215 L32.2922909,74.6542481 C32.2520864,74.6938937 32.2423818,74.7431089 32.2423818,74.7923241 C32.2423818,74.8798177 32.2728818,74.9481722 32.3422,74.9973873 L32.7497909,75.3104506 C32.8482227,75.3801722 32.9480409,75.3596658 33.0381545,75.2325266 L33.7535182,74.3220456 L33.8131318,74.3316152 L33.8131318,76.8388557 C33.8131318,76.9372861 33.7729273,77.0343494 33.6925182,77.1136405 C33.6134955,77.2011342 33.5344727,77.2407797 33.4346545,77.2407797 L32.2035636,77.2407797 C32.0843364,77.2407797 31.9845182,77.2011342 31.9152,77.1232101 C31.8347909,77.0452861 31.7959727,76.9564253 31.7959727,76.8497924 L31.7959727,73.7437671 C31.7959727,73.5769823 31.7072455,73.4990582 31.5270182,73.4990582 L30.5634955,73.4990582 C30.40545,73.4990582 30.3153364,73.5769823 30.3153364,73.7341975 L30.3153364,74.2140456 C30.3153364,74.3808304 30.40545,74.4587544 30.5634955,74.4587544 L30.8227455,74.4587544 L30.8227455,76.8880709 C30.8227455,77.2899949 30.9613818,77.6126278 31.2386545,77.8573367 C31.5076091,78.0829063 31.8458818,78.2004759 32.2520864,78.2004759 L33.3556318,78.2004759 C33.7923364,78.2004759 34.1403136,78.0637671 34.3981773,77.7889823 C34.6560409,77.5251342 34.7863591,77.1724253 34.7863591,76.7404253 L34.7863591,76.7404253 Z M29.5805636,74.4095392 L29.5805636,73.8216911 C29.5805636,73.6056911 29.4807455,73.4990582 29.2727909,73.4990582 L26.9187455,73.4990582 L26.9187455,72.5585013 C26.9187455,72.3917165 26.8286318,72.3042228 26.6692,72.3042228 L26.2130864,72.3042228 C26.0245409,72.3042228 25.9344273,72.3725772 25.9344273,72.5202228 L25.9344273,74.1935392 C25.9344273,74.3698937 26.0148364,74.4587544 26.1728818,74.4587544 L28.4576091,74.4587544 L26.9187455,77.7110582 C26.8785409,77.7794127 26.8785409,77.8477671 26.89795,77.9161215 C26.9187455,77.985843 26.9575636,78.0336911 27.0185636,78.0541975 L27.5148818,78.2209823 C27.6729273,78.2688304 27.78245,78.2291848 27.8420636,78.0829063 L29.5805636,74.4095392 Z" id="Fill-18" fill="#363D50"></path>
                </g>
            </g>
        </g>
    </g>
</svg>